<svg width="203" height="51" viewBox="0 0 203 51" fill="none" xmlns="http://www.w3.org/2000/svg">
<path d="M13.712 8.768V20H10.976V13.264L8.464 20H6.256L3.728 13.248V20H0.992V8.768H4.224L7.376 16.544L10.496 8.768H13.712ZM24.0955 15.392C24.0955 15.648 24.0795 15.9147 24.0475 16.192H17.8555C17.8982 16.7467 18.0742 17.1733 18.3835 17.472C18.7035 17.76 19.0928 17.904 19.5515 17.904C20.2342 17.904 20.7088 17.616 20.9755 17.04H23.8875C23.7382 17.6267 23.4662 18.1547 23.0715 18.624C22.6875 19.0933 22.2022 19.4613 21.6155 19.728C21.0288 19.9947 20.3728 20.128 19.6475 20.128C18.7728 20.128 17.9942 19.9413 17.3115 19.568C16.6288 19.1947 16.0955 18.6613 15.7115 17.968C15.3275 17.2747 15.1355 16.464 15.1355 15.536C15.1355 14.608 15.3222 13.7973 15.6955 13.104C16.0795 12.4107 16.6128 11.8773 17.2955 11.504C17.9782 11.1307 18.7622 10.944 19.6475 10.944C20.5115 10.944 21.2795 11.1253 21.9515 11.488C22.6235 11.8507 23.1462 12.368 23.5195 13.04C23.9035 13.712 24.0955 14.496 24.0955 15.392ZM21.2955 14.672C21.2955 14.2027 21.1355 13.8293 20.8155 13.552C20.4955 13.2747 20.0955 13.136 19.6155 13.136C19.1568 13.136 18.7675 13.2693 18.4475 13.536C18.1382 13.8027 17.9462 14.1813 17.8715 14.672H21.2955ZM28.2749 8.16V20H25.5389V8.16H28.2749ZM31.6336 10.144C31.1536 10.144 30.759 10.0053 30.4496 9.728C30.151 9.44 30.0016 9.088 30.0016 8.672C30.0016 8.24533 30.151 7.89333 30.4496 7.616C30.759 7.328 31.1536 7.184 31.6336 7.184C32.103 7.184 32.487 7.328 32.7856 7.616C33.095 7.89333 33.2496 8.24533 33.2496 8.672C33.2496 9.088 33.095 9.44 32.7856 9.728C32.487 10.0053 32.103 10.144 31.6336 10.144ZM32.9936 11.072V20H30.2576V11.072H32.9936ZM40.4164 10.976C41.4617 10.976 42.2937 11.3173 42.9124 12C43.5417 12.672 43.8564 13.6 43.8564 14.784V20H41.1364V15.152C41.1364 14.5547 40.9817 14.0907 40.6724 13.76C40.363 13.4293 39.947 13.264 39.4244 13.264C38.9017 13.264 38.4857 13.4293 38.1764 13.76C37.867 14.0907 37.7124 14.5547 37.7124 15.152V20H34.9764V11.072H37.7124V12.256C37.9897 11.8613 38.363 11.552 38.8324 11.328C39.3017 11.0933 39.8297 10.976 40.4164 10.976ZM45.2136 15.52C45.2136 14.6027 45.3843 13.7973 45.7256 13.104C46.0776 12.4107 46.5523 11.8773 47.1496 11.504C47.747 11.1307 48.4136 10.944 49.1496 10.944C49.779 10.944 50.3283 11.072 50.7976 11.328C51.2776 11.584 51.6456 11.92 51.9016 12.336V11.072H54.6376V20H51.9016V18.736C51.635 19.152 51.2616 19.488 50.7816 19.744C50.3123 20 49.763 20.128 49.1336 20.128C48.4083 20.128 47.747 19.9413 47.1496 19.568C46.5523 19.184 46.0776 18.6453 45.7256 17.952C45.3843 17.248 45.2136 16.4373 45.2136 15.52ZM51.9016 15.536C51.9016 14.8533 51.7096 14.3147 51.3256 13.92C50.9523 13.5253 50.4936 13.328 49.9496 13.328C49.4056 13.328 48.9416 13.5253 48.5576 13.92C48.1843 14.304 47.9976 14.8373 47.9976 15.52C47.9976 16.2027 48.1843 16.7467 48.5576 17.152C48.9416 17.5467 49.4056 17.744 49.9496 17.744C50.4936 17.744 50.9523 17.5467 51.3256 17.152C51.7096 16.7573 51.9016 16.2187 51.9016 15.536ZM70.0556 20H67.3196L62.7436 13.072V20H60.0076V8.768H62.7436L67.3196 15.728V8.768H70.0556V20ZM80.4549 15.392C80.4549 15.648 80.4389 15.9147 80.4069 16.192H74.2149C74.2575 16.7467 74.4335 17.1733 74.7429 17.472C75.0629 17.76 75.4522 17.904 75.9109 17.904C76.5935 17.904 77.0682 17.616 77.3349 17.04H80.2469C80.0975 17.6267 79.8255 18.1547 79.4309 18.624C79.0469 19.0933 78.5615 19.4613 77.9749 19.728C77.3882 19.9947 76.7322 20.128 76.0069 20.128C75.1322 20.128 74.3535 19.9413 73.6709 19.568C72.9882 19.1947 72.4549 18.6613 72.0709 17.968C71.6869 17.2747 71.4949 16.464 71.4949 15.536C71.4949 14.608 71.6815 13.7973 72.0549 13.104C72.4389 12.4107 72.9722 11.8773 73.6549 11.504C74.3375 11.1307 75.1215 10.944 76.0069 10.944C76.8709 10.944 77.6389 11.1253 78.3109 11.488C78.9829 11.8507 79.5055 12.368 79.8789 13.04C80.2629 13.712 80.4549 14.496 80.4549 15.392ZM77.6549 14.672C77.6549 14.2027 77.4949 13.8293 77.1749 13.552C76.8549 13.2747 76.4549 13.136 75.9749 13.136C75.5162 13.136 75.1269 13.2693 74.8069 13.536C74.4975 13.8027 74.3055 14.1813 74.2309 14.672H77.6549ZM85.5303 20.128C84.7516 20.128 84.0583 19.9947 83.4503 19.728C82.8423 19.4613 82.3623 19.0987 82.0103 18.64C81.6583 18.1707 81.4609 17.648 81.4183 17.072H84.1223C84.1543 17.3813 84.2983 17.632 84.5543 17.824C84.8103 18.016 85.1249 18.112 85.4983 18.112C85.8396 18.112 86.1009 18.048 86.2823 17.92C86.4743 17.7813 86.5703 17.6053 86.5703 17.392C86.5703 17.136 86.4369 16.9493 86.1703 16.832C85.9036 16.704 85.4716 16.5653 84.8743 16.416C84.2343 16.2667 83.7009 16.112 83.2743 15.952C82.8476 15.7813 82.4796 15.52 82.1703 15.168C81.8609 14.8053 81.7063 14.32 81.7063 13.712C81.7063 13.2 81.8449 12.736 82.1223 12.32C82.4103 11.8933 82.8263 11.5573 83.3703 11.312C83.9249 11.0667 84.5809 10.944 85.3383 10.944C86.4583 10.944 87.3383 11.2213 87.9783 11.776C88.6289 12.3307 89.0023 13.0667 89.0983 13.984H86.5703C86.5276 13.6747 86.3889 13.4293 86.1543 13.248C85.9303 13.0667 85.6316 12.976 85.2583 12.976C84.9383 12.976 84.6929 13.04 84.5223 13.168C84.3516 13.2853 84.2663 13.4507 84.2663 13.664C84.2663 13.92 84.3996 14.112 84.6663 14.24C84.9436 14.368 85.3703 14.496 85.9463 14.624C86.6076 14.7947 87.1463 14.9653 87.5623 15.136C87.9783 15.296 88.3409 15.5627 88.6503 15.936C88.9703 16.2987 89.1356 16.7893 89.1463 17.408C89.1463 17.9307 88.9969 18.4 88.6983 18.816C88.4103 19.2213 87.9889 19.5413 87.4343 19.776C86.8903 20.0107 86.2556 20.128 85.5303 20.128ZM95.7961 17.68V20H94.4041C93.4121 20 92.6388 19.76 92.0841 19.28C91.5295 18.7893 91.2521 17.9947 91.2521 16.896V13.344H90.1641V11.072H91.2521V8.896H93.9881V11.072H95.7801V13.344H93.9881V16.928C93.9881 17.1947 94.0521 17.3867 94.1801 17.504C94.3081 17.6213 94.5215 17.68 94.8201 17.68H95.7961ZM105.736 15.392C105.736 15.648 105.72 15.9147 105.688 16.192H99.4961C99.5388 16.7467 99.7148 17.1733 100.024 17.472C100.344 17.76 100.733 17.904 101.192 17.904C101.875 17.904 102.349 17.616 102.616 17.04H105.528C105.379 17.6267 105.107 18.1547 104.712 18.624C104.328 19.0933 103.843 19.4613 103.256 19.728C102.669 19.9947 102.013 20.128 101.288 20.128C100.413 20.128 99.6348 19.9413 98.9521 19.568C98.2695 19.1947 97.7361 18.6613 97.3521 17.968C96.9681 17.2747 96.7761 16.464 96.7761 15.536C96.7761 14.608 96.9628 13.7973 97.3361 13.104C97.7201 12.4107 98.2535 11.8773 98.9361 11.504C99.6188 11.1307 100.403 10.944 101.288 10.944C102.152 10.944 102.92 11.1253 103.592 11.488C104.264 11.8507 104.787 12.368 105.16 13.04C105.544 13.712 105.736 14.496 105.736 15.392ZM102.936 14.672C102.936 14.2027 102.776 13.8293 102.456 13.552C102.136 13.2747 101.736 13.136 101.256 13.136C100.797 13.136 100.408 13.2693 100.088 13.536C99.7788 13.8027 99.5868 14.1813 99.5121 14.672H102.936ZM109.916 12.56C110.236 12.0693 110.636 11.6853 111.116 11.408C111.596 11.12 112.129 10.976 112.716 10.976V13.872H111.964C111.281 13.872 110.769 14.0213 110.428 14.32C110.086 14.608 109.916 15.12 109.916 15.856V20H107.18V11.072H109.916V12.56ZM122.439 15.392C122.439 15.648 122.423 15.9147 122.391 16.192H116.199C116.242 16.7467 116.418 17.1733 116.727 17.472C117.047 17.76 117.437 17.904 117.895 17.904C118.578 17.904 119.053 17.616 119.319 17.04H122.231C122.082 17.6267 121.81 18.1547 121.415 18.624C121.031 19.0933 120.546 19.4613 119.959 19.728C119.373 19.9947 118.717 20.128 117.991 20.128C117.117 20.128 116.338 19.9413 115.655 19.568C114.973 19.1947 114.439 18.6613 114.055 17.968C113.671 17.2747 113.479 16.464 113.479 15.536C113.479 14.608 113.666 13.7973 114.039 13.104C114.423 12.4107 114.957 11.8773 115.639 11.504C116.322 11.1307 117.106 10.944 117.991 10.944C118.855 10.944 119.623 11.1253 120.295 11.488C120.967 11.8507 121.49 12.368 121.863 13.04C122.247 13.712 122.439 14.496 122.439 15.392ZM119.639 14.672C119.639 14.2027 119.479 13.8293 119.159 13.552C118.839 13.2747 118.439 13.136 117.959 13.136C117.501 13.136 117.111 13.2693 116.791 13.536C116.482 13.8027 116.29 14.1813 116.215 14.672H119.639ZM129.323 10.976C130.368 10.976 131.2 11.3173 131.819 12C132.448 12.672 132.763 13.6 132.763 14.784V20H130.043V15.152C130.043 14.5547 129.888 14.0907 129.579 13.76C129.269 13.4293 128.853 13.264 128.331 13.264C127.808 13.264 127.392 13.4293 127.083 13.76C126.773 14.0907 126.619 14.5547 126.619 15.152V20H123.883V11.072H126.619V12.256C126.896 11.8613 127.269 11.552 127.739 11.328C128.208 11.0933 128.736 10.976 129.323 10.976ZM140.12 20L137.4 16.256V20H134.664V8.16H137.4V14.704L140.104 11.072H143.48L139.768 15.552L143.512 20H140.12ZM148.619 20.128C147.744 20.128 146.955 19.9413 146.251 19.568C145.557 19.1947 145.008 18.6613 144.603 17.968C144.208 17.2747 144.011 16.464 144.011 15.536C144.011 14.6187 144.213 13.8133 144.618 13.12C145.024 12.416 145.579 11.8773 146.283 11.504C146.987 11.1307 147.776 10.944 148.651 10.944C149.525 10.944 150.315 11.1307 151.019 11.504C151.723 11.8773 152.277 12.416 152.683 13.12C153.088 13.8133 153.291 14.6187 153.291 15.536C153.291 16.4533 153.083 17.264 152.667 17.968C152.261 18.6613 151.701 19.1947 150.987 19.568C150.283 19.9413 149.493 20.128 148.619 20.128ZM148.619 17.76C149.141 17.76 149.584 17.568 149.947 17.184C150.32 16.8 150.507 16.2507 150.507 15.536C150.507 14.8213 150.325 14.272 149.963 13.888C149.611 13.504 149.173 13.312 148.651 13.312C148.117 13.312 147.675 13.504 147.323 13.888C146.971 14.2613 146.795 14.8107 146.795 15.536C146.795 16.2507 146.965 16.8 147.307 17.184C147.659 17.568 148.096 17.76 148.619 17.76Z" fill="#100E34"/>
<path d="M5.112 39.692C5.416 39.74 5.692 39.864 5.94 40.064C6.196 40.264 6.396 40.512 6.54 40.808C6.692 41.104 6.768 41.42 6.768 41.756C6.768 42.18 6.66 42.564 6.444 42.908C6.228 43.244 5.912 43.512 5.496 43.712C5.088 43.904 4.604 44 4.044 44H0.924V35.636H3.924C4.492 35.636 4.976 35.732 5.376 35.924C5.776 36.108 6.076 36.36 6.276 36.68C6.476 37 6.576 37.36 6.576 37.76C6.576 38.256 6.44 38.668 6.168 38.996C5.904 39.316 5.552 39.548 5.112 39.692ZM2.016 39.248H3.852C4.364 39.248 4.76 39.128 5.04 38.888C5.32 38.648 5.46 38.316 5.46 37.892C5.46 37.468 5.32 37.136 5.04 36.896C4.76 36.656 4.356 36.536 3.828 36.536H2.016V39.248ZM3.948 43.1C4.492 43.1 4.916 42.972 5.22 42.716C5.524 42.46 5.676 42.104 5.676 41.648C5.676 41.184 5.516 40.82 5.196 40.556C4.876 40.284 4.448 40.148 3.912 40.148H2.016V43.1H3.948ZM11.1514 44.108C10.5354 44.108 9.97538 43.968 9.47138 43.688C8.97538 43.408 8.58338 43.012 8.29538 42.5C8.01538 41.98 7.87538 41.38 7.87538 40.7C7.87538 40.028 8.01938 39.436 8.30738 38.924C8.60338 38.404 9.00338 38.008 9.50738 37.736C10.0114 37.456 10.5754 37.316 11.1994 37.316C11.8234 37.316 12.3874 37.456 12.8914 37.736C13.3954 38.008 13.7914 38.4 14.0794 38.912C14.3754 39.424 14.5234 40.02 14.5234 40.7C14.5234 41.38 14.3714 41.98 14.0674 42.5C13.7714 43.012 13.3674 43.408 12.8554 43.688C12.3434 43.968 11.7754 44.108 11.1514 44.108ZM11.1514 43.148C11.5434 43.148 11.9114 43.056 12.2554 42.872C12.5994 42.688 12.8754 42.412 13.0834 42.044C13.2994 41.676 13.4074 41.228 13.4074 40.7C13.4074 40.172 13.3034 39.724 13.0954 39.356C12.8874 38.988 12.6154 38.716 12.2794 38.54C11.9434 38.356 11.5794 38.264 11.1874 38.264C10.7874 38.264 10.4194 38.356 10.0834 38.54C9.75538 38.716 9.49138 38.988 9.29138 39.356C9.09138 39.724 8.99138 40.172 8.99138 40.7C8.99138 41.236 9.08738 41.688 9.27938 42.056C9.47938 42.424 9.74338 42.7 10.0714 42.884C10.3994 43.06 10.7594 43.148 11.1514 43.148ZM21.7912 37.424V44H20.6992V43.028C20.4912 43.364 20.1992 43.628 19.8232 43.82C19.4552 44.004 19.0472 44.096 18.5992 44.096C18.0872 44.096 17.6272 43.992 17.2192 43.784C16.8112 43.568 16.4872 43.248 16.2472 42.824C16.0152 42.4 15.8992 41.884 15.8992 41.276V37.424H16.9792V41.132C16.9792 41.78 17.1432 42.28 17.4712 42.632C17.7992 42.976 18.2472 43.148 18.8152 43.148C19.3992 43.148 19.8592 42.968 20.1952 42.608C20.5312 42.248 20.6992 41.724 20.6992 41.036V37.424H21.7912ZM26.3469 37.316C26.9149 37.316 27.4109 37.44 27.8349 37.688C28.2669 37.936 28.5869 38.248 28.7949 38.624V37.424H29.8989V44.144C29.8989 44.744 29.7709 45.276 29.5149 45.74C29.2589 46.212 28.8909 46.58 28.4109 46.844C27.9389 47.108 27.3869 47.24 26.7549 47.24C25.8909 47.24 25.1709 47.036 24.5949 46.628C24.0189 46.22 23.6789 45.664 23.5749 44.96H24.6549C24.7749 45.36 25.0229 45.68 25.3989 45.92C25.7749 46.168 26.2269 46.292 26.7549 46.292C27.3549 46.292 27.8429 46.104 28.2189 45.728C28.6029 45.352 28.7949 44.824 28.7949 44.144V42.764C28.5789 43.148 28.2589 43.468 27.8349 43.724C27.4109 43.98 26.9149 44.108 26.3469 44.108C25.7629 44.108 25.2309 43.964 24.7509 43.676C24.2789 43.388 23.9069 42.984 23.6349 42.464C23.3629 41.944 23.2269 41.352 23.2269 40.688C23.2269 40.016 23.3629 39.428 23.6349 38.924C23.9069 38.412 24.2789 38.016 24.7509 37.736C25.2309 37.456 25.7629 37.316 26.3469 37.316ZM28.7949 40.7C28.7949 40.204 28.6949 39.772 28.4949 39.404C28.2949 39.036 28.0229 38.756 27.6789 38.564C27.3429 38.364 26.9709 38.264 26.5629 38.264C26.1549 38.264 25.7829 38.36 25.4469 38.552C25.1109 38.744 24.8429 39.024 24.6429 39.392C24.4429 39.76 24.3429 40.192 24.3429 40.688C24.3429 41.192 24.4429 41.632 24.6429 42.008C24.8429 42.376 25.1109 42.66 25.4469 42.86C25.7829 43.052 26.1549 43.148 26.5629 43.148C26.9709 43.148 27.3429 43.052 27.6789 42.86C28.0229 42.66 28.2949 42.376 28.4949 42.008C28.6949 41.632 28.7949 41.196 28.7949 40.7ZM35.0083 37.304C35.5043 37.304 35.9523 37.412 36.3523 37.628C36.7523 37.836 37.0643 38.152 37.2883 38.576C37.5203 39 37.6363 39.516 37.6363 40.124V44H36.5563V40.28C36.5563 39.624 36.3923 39.124 36.0643 38.78C35.7363 38.428 35.2883 38.252 34.7203 38.252C34.1443 38.252 33.6843 38.432 33.3403 38.792C33.0043 39.152 32.8363 39.676 32.8363 40.364V44H31.7443V35.12H32.8363V38.36C33.0523 38.024 33.3483 37.764 33.7243 37.58C34.1083 37.396 34.5363 37.304 35.0083 37.304ZM40.7521 38.324V42.2C40.7521 42.52 40.8201 42.748 40.9561 42.884C41.0921 43.012 41.3281 43.076 41.6641 43.076H42.4681V44H41.4841C40.8761 44 40.4201 43.86 40.1161 43.58C39.8121 43.3 39.6601 42.84 39.6601 42.2V38.324H38.8081V37.424H39.6601V35.768H40.7521V37.424H42.4681V38.324H40.7521ZM52.1384 35.636V36.524H49.8584V44H48.7664V36.524H46.4744V35.636H52.1384ZM59.4826 40.46C59.4826 40.668 59.4706 40.888 59.4466 41.12H54.1906C54.2306 41.768 54.4506 42.276 54.8506 42.644C55.2586 43.004 55.7506 43.184 56.3266 43.184C56.7986 43.184 57.1906 43.076 57.5026 42.86C57.8226 42.636 58.0466 42.34 58.1746 41.972H59.3506C59.1746 42.604 58.8226 43.12 58.2946 43.52C57.7666 43.912 57.1106 44.108 56.3266 44.108C55.7026 44.108 55.1426 43.968 54.6466 43.688C54.1586 43.408 53.7746 43.012 53.4946 42.5C53.2146 41.98 53.0746 41.38 53.0746 40.7C53.0746 40.02 53.2106 39.424 53.4826 38.912C53.7546 38.4 54.1346 38.008 54.6226 37.736C55.1186 37.456 55.6866 37.316 56.3266 37.316C56.9506 37.316 57.5026 37.452 57.9826 37.724C58.4626 37.996 58.8306 38.372 59.0866 38.852C59.3506 39.324 59.4826 39.86 59.4826 40.46ZM58.3546 40.232C58.3546 39.816 58.2626 39.46 58.0786 39.164C57.8946 38.86 57.6426 38.632 57.3226 38.48C57.0106 38.32 56.6626 38.24 56.2786 38.24C55.7266 38.24 55.2546 38.416 54.8626 38.768C54.4786 39.12 54.2586 39.608 54.2026 40.232H58.3546ZM63.252 44.108C62.748 44.108 62.296 44.024 61.896 43.856C61.496 43.68 61.18 43.44 60.948 43.136C60.716 42.824 60.588 42.468 60.564 42.068H61.692C61.724 42.396 61.876 42.664 62.148 42.872C62.428 43.08 62.792 43.184 63.24 43.184C63.656 43.184 63.984 43.092 64.224 42.908C64.464 42.724 64.584 42.492 64.584 42.212C64.584 41.924 64.456 41.712 64.2 41.576C63.944 41.432 63.548 41.292 63.012 41.156C62.524 41.028 62.124 40.9 61.812 40.772C61.508 40.636 61.244 40.44 61.02 40.184C60.804 39.92 60.696 39.576 60.696 39.152C60.696 38.816 60.796 38.508 60.996 38.228C61.196 37.948 61.48 37.728 61.848 37.568C62.216 37.4 62.636 37.316 63.108 37.316C63.836 37.316 64.424 37.5 64.872 37.868C65.32 38.236 65.56 38.74 65.592 39.38H64.5C64.476 39.036 64.336 38.76 64.08 38.552C63.832 38.344 63.496 38.24 63.072 38.24C62.68 38.24 62.368 38.324 62.136 38.492C61.904 38.66 61.788 38.88 61.788 39.152C61.788 39.368 61.856 39.548 61.992 39.692C62.136 39.828 62.312 39.94 62.52 40.028C62.736 40.108 63.032 40.2 63.408 40.304C63.88 40.432 64.264 40.56 64.56 40.688C64.856 40.808 65.108 40.992 65.316 41.24C65.532 41.488 65.644 41.812 65.652 42.212C65.652 42.572 65.552 42.896 65.352 43.184C65.152 43.472 64.868 43.7 64.5 43.868C64.14 44.028 63.724 44.108 63.252 44.108ZM68.2855 35.12V44H67.1935V35.12H68.2855ZM69.7387 40.688C69.7387 40.016 69.8747 39.428 70.1467 38.924C70.4187 38.412 70.7907 38.016 71.2627 37.736C71.7427 37.456 72.2747 37.316 72.8587 37.316C73.4347 37.316 73.9347 37.44 74.3587 37.688C74.7827 37.936 75.0987 38.248 75.3067 38.624V37.424H76.4107V44H75.3067V42.776C75.0907 43.16 74.7667 43.48 74.3347 43.736C73.9107 43.984 73.4147 44.108 72.8467 44.108C72.2627 44.108 71.7347 43.964 71.2627 43.676C70.7907 43.388 70.4187 42.984 70.1467 42.464C69.8747 41.944 69.7387 41.352 69.7387 40.688ZM75.3067 40.7C75.3067 40.204 75.2067 39.772 75.0067 39.404C74.8067 39.036 74.5347 38.756 74.1907 38.564C73.8547 38.364 73.4827 38.264 73.0747 38.264C72.6667 38.264 72.2947 38.36 71.9587 38.552C71.6227 38.744 71.3547 39.024 71.1547 39.392C70.9547 39.76 70.8547 40.192 70.8547 40.688C70.8547 41.192 70.9547 41.632 71.1547 42.008C71.3547 42.376 71.6227 42.66 71.9587 42.86C72.2947 43.052 72.6667 43.148 73.0747 43.148C73.4827 43.148 73.8547 43.052 74.1907 42.86C74.5347 42.66 74.8067 42.376 75.0067 42.008C75.2067 41.632 75.3067 41.196 75.3067 40.7ZM89.9393 35.696V44H88.8473V37.808L86.0873 44H85.3193L82.5473 37.796V44H81.4553V35.696H82.6313L85.7033 42.56L88.7753 35.696H89.9393ZM94.6592 44.108C94.0432 44.108 93.4832 43.968 92.9792 43.688C92.4832 43.408 92.0912 43.012 91.8032 42.5C91.5232 41.98 91.3832 41.38 91.3832 40.7C91.3832 40.028 91.5272 39.436 91.8152 38.924C92.1112 38.404 92.5112 38.008 93.0152 37.736C93.5192 37.456 94.0832 37.316 94.7072 37.316C95.3312 37.316 95.8952 37.456 96.3992 37.736C96.9032 38.008 97.2992 38.4 97.5872 38.912C97.8832 39.424 98.0312 40.02 98.0312 40.7C98.0312 41.38 97.8792 41.98 97.5752 42.5C97.2792 43.012 96.8752 43.408 96.3632 43.688C95.8512 43.968 95.2832 44.108 94.6592 44.108ZM94.6592 43.148C95.0512 43.148 95.4192 43.056 95.7632 42.872C96.1072 42.688 96.3832 42.412 96.5912 42.044C96.8072 41.676 96.9152 41.228 96.9152 40.7C96.9152 40.172 96.8112 39.724 96.6032 39.356C96.3952 38.988 96.1232 38.716 95.7872 38.54C95.4512 38.356 95.0872 38.264 94.6952 38.264C94.2952 38.264 93.9272 38.356 93.5912 38.54C93.2632 38.716 92.9992 38.988 92.7992 39.356C92.5992 39.724 92.4992 40.172 92.4992 40.7C92.4992 41.236 92.5952 41.688 92.7872 42.056C92.9872 42.424 93.2512 42.7 93.5792 42.884C93.9072 43.06 94.2672 43.148 94.6592 43.148ZM99.059 40.688C99.059 40.016 99.195 39.428 99.467 38.924C99.739 38.412 100.111 38.016 100.583 37.736C101.063 37.456 101.599 37.316 102.191 37.316C102.703 37.316 103.179 37.436 103.619 37.676C104.059 37.908 104.395 38.216 104.627 38.6V35.12H105.731V44H104.627V42.764C104.411 43.156 104.091 43.48 103.667 43.736C103.243 43.984 102.747 44.108 102.179 44.108C101.595 44.108 101.063 43.964 100.583 43.676C100.111 43.388 99.739 42.984 99.467 42.464C99.195 41.944 99.059 41.352 99.059 40.688ZM104.627 40.7C104.627 40.204 104.527 39.772 104.327 39.404C104.127 39.036 103.855 38.756 103.511 38.564C103.175 38.364 102.803 38.264 102.395 38.264C101.987 38.264 101.615 38.36 101.279 38.552C100.943 38.744 100.675 39.024 100.475 39.392C100.275 39.76 100.175 40.192 100.175 40.688C100.175 41.192 100.275 41.632 100.475 42.008C100.675 42.376 100.943 42.66 101.279 42.86C101.615 43.052 101.987 43.148 102.395 43.148C102.803 43.148 103.175 43.052 103.511 42.86C103.855 42.66 104.127 42.376 104.327 42.008C104.527 41.632 104.627 41.196 104.627 40.7ZM113.576 40.46C113.576 40.668 113.564 40.888 113.54 41.12H108.284C108.324 41.768 108.544 42.276 108.944 42.644C109.352 43.004 109.844 43.184 110.42 43.184C110.892 43.184 111.284 43.076 111.596 42.86C111.916 42.636 112.14 42.34 112.268 41.972H113.444C113.268 42.604 112.916 43.12 112.388 43.52C111.86 43.912 111.204 44.108 110.42 44.108C109.796 44.108 109.236 43.968 108.74 43.688C108.252 43.408 107.868 43.012 107.588 42.5C107.308 41.98 107.168 41.38 107.168 40.7C107.168 40.02 107.304 39.424 107.576 38.912C107.848 38.4 108.228 38.008 108.716 37.736C109.212 37.456 109.78 37.316 110.42 37.316C111.044 37.316 111.596 37.452 112.076 37.724C112.556 37.996 112.924 38.372 113.18 38.852C113.444 39.324 113.576 39.86 113.576 40.46ZM112.448 40.232C112.448 39.816 112.356 39.46 112.172 39.164C111.988 38.86 111.736 38.632 111.416 38.48C111.104 38.32 110.756 38.24 110.372 38.24C109.82 38.24 109.348 38.416 108.956 38.768C108.572 39.12 108.352 39.608 108.296 40.232H112.448ZM116.11 35.12V44H115.018V35.12H116.11ZM120.966 37.508C121.022 36.772 121.306 36.196 121.818 35.78C122.33 35.364 122.994 35.156 123.81 35.156C124.354 35.156 124.822 35.256 125.214 35.456C125.614 35.648 125.914 35.912 126.114 36.248C126.322 36.584 126.426 36.964 126.426 37.388C126.426 37.884 126.282 38.312 125.994 38.672C125.714 39.032 125.346 39.264 124.89 39.368V39.428C125.41 39.556 125.822 39.808 126.126 40.184C126.43 40.56 126.582 41.052 126.582 41.66C126.582 42.116 126.478 42.528 126.27 42.896C126.062 43.256 125.75 43.54 125.334 43.748C124.918 43.956 124.418 44.06 123.834 44.06C122.986 44.06 122.29 43.84 121.746 43.4C121.202 42.952 120.898 42.32 120.834 41.504H121.89C121.946 41.984 122.142 42.376 122.478 42.68C122.814 42.984 123.262 43.136 123.822 43.136C124.382 43.136 124.806 42.992 125.094 42.704C125.39 42.408 125.538 42.028 125.538 41.564C125.538 40.964 125.338 40.532 124.938 40.268C124.538 40.004 123.934 39.872 123.126 39.872H122.85V38.96H123.138C123.874 38.952 124.43 38.832 124.806 38.6C125.182 38.36 125.37 37.992 125.37 37.496C125.37 37.072 125.23 36.732 124.95 36.476C124.678 36.22 124.286 36.092 123.774 36.092C123.278 36.092 122.878 36.22 122.574 36.476C122.27 36.732 122.09 37.076 122.034 37.508H120.966ZM139.363 35.636V36.524H135.727V39.344H138.679V40.232H135.727V44H134.635V35.636H139.363ZM143.55 44.108C142.934 44.108 142.374 43.968 141.87 43.688C141.374 43.408 140.982 43.012 140.694 42.5C140.414 41.98 140.274 41.38 140.274 40.7C140.274 40.028 140.418 39.436 140.706 38.924C141.002 38.404 141.402 38.008 141.906 37.736C142.41 37.456 142.974 37.316 143.598 37.316C144.222 37.316 144.786 37.456 145.29 37.736C145.794 38.008 146.19 38.4 146.478 38.912C146.774 39.424 146.922 40.02 146.922 40.7C146.922 41.38 146.77 41.98 146.466 42.5C146.17 43.012 145.766 43.408 145.254 43.688C144.742 43.968 144.174 44.108 143.55 44.108ZM143.55 43.148C143.942 43.148 144.31 43.056 144.654 42.872C144.998 42.688 145.274 42.412 145.482 42.044C145.698 41.676 145.806 41.228 145.806 40.7C145.806 40.172 145.702 39.724 145.494 39.356C145.286 38.988 145.014 38.716 144.678 38.54C144.342 38.356 143.978 38.264 143.586 38.264C143.186 38.264 142.818 38.356 142.482 38.54C142.154 38.716 141.89 38.988 141.69 39.356C141.49 39.724 141.39 40.172 141.39 40.7C141.39 41.236 141.486 41.688 141.678 42.056C141.878 42.424 142.142 42.7 142.47 42.884C142.798 43.06 143.158 43.148 143.55 43.148ZM149.45 38.492C149.642 38.116 149.914 37.824 150.266 37.616C150.626 37.408 151.062 37.304 151.574 37.304V38.432H151.286C150.062 38.432 149.45 39.096 149.45 40.424V44H148.358V37.424H149.45V38.492ZM161.433 41.708C161.433 42.092 161.337 42.46 161.145 42.812C160.953 43.156 160.669 43.444 160.293 43.676C159.925 43.908 159.481 44.04 158.961 44.072V45.044H158.313V44.072C157.585 44.008 156.993 43.776 156.537 43.376C156.081 42.968 155.849 42.452 155.841 41.828H157.005C157.037 42.164 157.161 42.456 157.377 42.704C157.601 42.952 157.913 43.108 158.313 43.172V40.172C157.777 40.036 157.345 39.896 157.017 39.752C156.689 39.608 156.409 39.384 156.177 39.08C155.945 38.776 155.829 38.368 155.829 37.856C155.829 37.208 156.053 36.672 156.501 36.248C156.957 35.824 157.561 35.588 158.313 35.54V34.544H158.961V35.54C159.641 35.596 160.189 35.816 160.605 36.2C161.021 36.576 161.261 37.068 161.325 37.676H160.161C160.121 37.396 159.997 37.144 159.789 36.92C159.581 36.688 159.305 36.536 158.961 36.464V39.392C159.489 39.528 159.917 39.668 160.245 39.812C160.581 39.948 160.861 40.168 161.085 40.472C161.317 40.776 161.433 41.188 161.433 41.708ZM156.945 37.796C156.945 38.188 157.061 38.488 157.293 38.696C157.525 38.904 157.865 39.076 158.313 39.212V36.44C157.897 36.48 157.565 36.616 157.317 36.848C157.069 37.072 156.945 37.388 156.945 37.796ZM158.961 43.184C159.393 43.136 159.729 42.98 159.969 42.716C160.217 42.452 160.341 42.136 160.341 41.768C160.341 41.376 160.221 41.076 159.981 40.868C159.741 40.652 159.401 40.48 158.961 40.352V43.184ZM164.902 39.488C164.454 39.312 164.11 39.056 163.87 38.72C163.63 38.384 163.51 37.976 163.51 37.496C163.51 37.064 163.618 36.676 163.834 36.332C164.05 35.98 164.37 35.704 164.794 35.504C165.226 35.296 165.746 35.192 166.354 35.192C166.962 35.192 167.478 35.296 167.902 35.504C168.334 35.704 168.658 35.98 168.874 36.332C169.098 36.676 169.21 37.064 169.21 37.496C169.21 37.96 169.086 38.368 168.838 38.72C168.59 39.064 168.25 39.32 167.818 39.488C168.314 39.64 168.706 39.908 168.994 40.292C169.29 40.668 169.438 41.124 169.438 41.66C169.438 42.18 169.31 42.636 169.054 43.028C168.798 43.412 168.434 43.712 167.962 43.928C167.498 44.136 166.962 44.24 166.354 44.24C165.746 44.24 165.21 44.136 164.746 43.928C164.29 43.712 163.934 43.412 163.678 43.028C163.422 42.636 163.294 42.18 163.294 41.66C163.294 41.124 163.438 40.664 163.726 40.28C164.014 39.896 164.406 39.632 164.902 39.488ZM168.154 37.628C168.154 37.14 167.994 36.764 167.674 36.5C167.354 36.236 166.914 36.104 166.354 36.104C165.802 36.104 165.366 36.236 165.046 36.5C164.726 36.764 164.566 37.144 164.566 37.64C164.566 38.088 164.73 38.448 165.058 38.72C165.394 38.992 165.826 39.128 166.354 39.128C166.89 39.128 167.322 38.992 167.65 38.72C167.986 38.44 168.154 38.076 168.154 37.628ZM166.354 39.968C165.762 39.968 165.278 40.108 164.902 40.388C164.526 40.66 164.338 41.072 164.338 41.624C164.338 42.136 164.518 42.548 164.878 42.86C165.246 43.172 165.738 43.328 166.354 43.328C166.97 43.328 167.458 43.172 167.818 42.86C168.178 42.548 168.358 42.136 168.358 41.624C168.358 41.088 168.174 40.68 167.806 40.4C167.438 40.112 166.954 39.968 166.354 39.968ZM176.421 36.272H172.209V39.008C172.393 38.752 172.665 38.544 173.025 38.384C173.385 38.216 173.773 38.132 174.189 38.132C174.853 38.132 175.393 38.272 175.809 38.552C176.225 38.824 176.521 39.18 176.697 39.62C176.881 40.052 176.973 40.512 176.973 41C176.973 41.576 176.865 42.092 176.649 42.548C176.433 43.004 176.101 43.364 175.653 43.628C175.213 43.892 174.665 44.024 174.009 44.024C173.169 44.024 172.489 43.808 171.969 43.376C171.449 42.944 171.133 42.368 171.021 41.648H172.089C172.193 42.104 172.413 42.46 172.749 42.716C173.085 42.972 173.509 43.1 174.021 43.1C174.653 43.1 175.129 42.912 175.449 42.536C175.769 42.152 175.929 41.648 175.929 41.024C175.929 40.4 175.769 39.92 175.449 39.584C175.129 39.24 174.657 39.068 174.033 39.068C173.609 39.068 173.237 39.172 172.917 39.38C172.605 39.58 172.377 39.856 172.233 40.208H171.201V35.312H176.421V36.272ZM179.732 42.488L178.388 45.716H177.656L178.532 42.488H179.732ZM180.803 39.572C180.803 38.196 181.027 37.124 181.475 36.356C181.923 35.58 182.707 35.192 183.827 35.192C184.939 35.192 185.719 35.58 186.167 36.356C186.615 37.124 186.839 38.196 186.839 39.572C186.839 40.972 186.615 42.06 186.167 42.836C185.719 43.612 184.939 44 183.827 44C182.707 44 181.923 43.612 181.475 42.836C181.027 42.06 180.803 40.972 180.803 39.572ZM185.759 39.572C185.759 38.876 185.711 38.288 185.615 37.808C185.527 37.32 185.339 36.928 185.051 36.632C184.771 36.336 184.363 36.188 183.827 36.188C183.283 36.188 182.867 36.336 182.579 36.632C182.299 36.928 182.111 37.32 182.015 37.808C181.927 38.288 181.883 38.876 181.883 39.572C181.883 40.292 181.927 40.896 182.015 41.384C182.111 41.872 182.299 42.264 182.579 42.56C182.867 42.856 183.283 43.004 183.827 43.004C184.363 43.004 184.771 42.856 185.051 42.56C185.339 42.264 185.527 41.872 185.615 41.384C185.711 40.896 185.759 40.292 185.759 39.572ZM188.338 39.572C188.338 38.196 188.562 37.124 189.01 36.356C189.458 35.58 190.242 35.192 191.362 35.192C192.474 35.192 193.254 35.58 193.702 36.356C194.15 37.124 194.374 38.196 194.374 39.572C194.374 40.972 194.15 42.06 193.702 42.836C193.254 43.612 192.474 44 191.362 44C190.242 44 189.458 43.612 189.01 42.836C188.562 42.06 188.338 40.972 188.338 39.572ZM193.294 39.572C193.294 38.876 193.246 38.288 193.15 37.808C193.062 37.32 192.874 36.928 192.586 36.632C192.306 36.336 191.898 36.188 191.362 36.188C190.818 36.188 190.402 36.336 190.114 36.632C189.834 36.928 189.646 37.32 189.55 37.808C189.462 38.288 189.418 38.876 189.418 39.572C189.418 40.292 189.462 40.896 189.55 41.384C189.646 41.872 189.834 42.264 190.114 42.56C190.402 42.856 190.818 43.004 191.362 43.004C191.898 43.004 192.306 42.856 192.586 42.56C192.874 42.264 193.062 41.872 193.15 41.384C193.246 40.896 193.294 40.292 193.294 39.572ZM195.873 39.572C195.873 38.196 196.097 37.124 196.545 36.356C196.993 35.58 197.777 35.192 198.897 35.192C200.009 35.192 200.789 35.58 201.237 36.356C201.685 37.124 201.909 38.196 201.909 39.572C201.909 40.972 201.685 42.06 201.237 42.836C200.789 43.612 200.009 44 198.897 44C197.777 44 196.993 43.612 196.545 42.836C196.097 42.06 195.873 40.972 195.873 39.572ZM200.829 39.572C200.829 38.876 200.781 38.288 200.685 37.808C200.597 37.32 200.409 36.928 200.121 36.632C199.841 36.336 199.433 36.188 198.897 36.188C198.353 36.188 197.937 36.336 197.649 36.632C197.369 36.928 197.181 37.32 197.085 37.808C196.997 38.288 196.953 38.876 196.953 39.572C196.953 40.292 196.997 40.896 197.085 41.384C197.181 41.872 197.369 42.264 197.649 42.56C197.937 42.856 198.353 43.004 198.897 43.004C199.433 43.004 199.841 42.856 200.121 42.56C200.409 42.264 200.597 41.872 200.685 41.384C200.781 40.896 200.829 40.292 200.829 39.572Z" fill="#100E34"/>
</svg>
