<svg width="200" height="57" viewBox="0 0 200 57" fill="none" xmlns="http://www.w3.org/2000/svg">
<path d="M8.75 17H7.476L2.352 9.23V17H1.078V7.228H2.352L7.476 14.984V7.228H8.75V17ZM17.9218 12.87C17.9218 13.1127 17.9078 13.3693 17.8798 13.64H11.7478C11.7944 14.396 12.0511 14.9887 12.5178 15.418C12.9938 15.838 13.5678 16.048 14.2398 16.048C14.7904 16.048 15.2478 15.922 15.6118 15.67C15.9851 15.4087 16.2464 15.0633 16.3958 14.634H17.7678C17.5624 15.3713 17.1518 15.9733 16.5358 16.44C15.9198 16.8973 15.1544 17.126 14.2398 17.126C13.5118 17.126 12.8584 16.9627 12.2798 16.636C11.7104 16.3093 11.2624 15.8473 10.9358 15.25C10.6091 14.6433 10.4458 13.9433 10.4458 13.15C10.4458 12.3567 10.6044 11.6613 10.9218 11.064C11.2391 10.4667 11.6824 10.0093 12.2518 9.692C12.8304 9.36533 13.4931 9.202 14.2398 9.202C14.9678 9.202 15.6118 9.36067 16.1718 9.678C16.7318 9.99533 17.1611 10.434 17.4598 10.994C17.7678 11.5447 17.9218 12.17 17.9218 12.87ZM16.6058 12.604C16.6058 12.1187 16.4984 11.7033 16.2838 11.358C16.0691 11.0033 15.7751 10.7373 15.4018 10.56C15.0378 10.3733 14.6318 10.28 14.1838 10.28C13.5398 10.28 12.9891 10.4853 12.5318 10.896C12.0838 11.3067 11.8271 11.876 11.7618 12.604H16.6058ZM29.8234 9.328L27.4294 17H26.1134L24.2654 10.91L22.4174 17H21.1014L18.6934 9.328H19.9954L21.7594 15.768L23.6634 9.328H24.9654L26.8274 15.782L28.5634 9.328H29.8234ZM35.8478 3.812L32.0118 19.38H30.7518L34.5738 3.812H35.8478ZM38.992 7.242V13.416C38.992 14.284 39.202 14.928 39.622 15.348C40.0513 15.768 40.644 15.978 41.4 15.978C42.1466 15.978 42.73 15.768 43.15 15.348C43.5793 14.928 43.794 14.284 43.794 13.416V7.242H45.068V13.402C45.068 14.214 44.9046 14.9 44.578 15.46C44.2513 16.0107 43.808 16.4213 43.248 16.692C42.6973 16.9627 42.0766 17.098 41.386 17.098C40.6953 17.098 40.07 16.9627 39.51 16.692C38.9593 16.4213 38.5206 16.0107 38.194 15.46C37.8766 14.9 37.718 14.214 37.718 13.402V7.242H38.992ZM49.9092 17.126C49.3212 17.126 48.7939 17.028 48.3272 16.832C47.8606 16.6267 47.4919 16.3467 47.2212 15.992C46.9506 15.628 46.8012 15.2127 46.7732 14.746H48.0892C48.1266 15.1287 48.3039 15.4413 48.6212 15.684C48.9479 15.9267 49.3726 16.048 49.8952 16.048C50.3806 16.048 50.7632 15.9407 51.0432 15.726C51.3232 15.5113 51.4632 15.2407 51.4632 14.914C51.4632 14.578 51.3139 14.3307 51.0152 14.172C50.7166 14.004 50.2546 13.8407 49.6292 13.682C49.0599 13.5327 48.5932 13.3833 48.2292 13.234C47.8746 13.0753 47.5666 12.8467 47.3052 12.548C47.0532 12.24 46.9272 11.8387 46.9272 11.344C46.9272 10.952 47.0439 10.5927 47.2772 10.266C47.5106 9.93933 47.8419 9.68267 48.2712 9.496C48.7006 9.3 49.1906 9.202 49.7412 9.202C50.5906 9.202 51.2766 9.41667 51.7992 9.846C52.3219 10.2753 52.6019 10.8633 52.6392 11.61H51.3652C51.3372 11.2087 51.1739 10.8867 50.8752 10.644C50.5859 10.4013 50.1939 10.28 49.6992 10.28C49.2419 10.28 48.8779 10.378 48.6072 10.574C48.3366 10.77 48.2012 11.0267 48.2012 11.344C48.2012 11.596 48.2806 11.806 48.4392 11.974C48.6072 12.1327 48.8126 12.2633 49.0552 12.366C49.3072 12.4593 49.6526 12.5667 50.0912 12.688C50.6419 12.8373 51.0899 12.9867 51.4352 13.136C51.7806 13.276 52.0746 13.4907 52.3172 13.78C52.5692 14.0693 52.6999 14.4473 52.7092 14.914C52.7092 15.334 52.5926 15.712 52.3592 16.048C52.1259 16.384 51.7946 16.65 51.3652 16.846C50.9452 17.0327 50.4599 17.126 49.9092 17.126ZM61.5077 12.87C61.5077 13.1127 61.4937 13.3693 61.4657 13.64H55.3337C55.3804 14.396 55.637 14.9887 56.1037 15.418C56.5797 15.838 57.1537 16.048 57.8257 16.048C58.3764 16.048 58.8337 15.922 59.1977 15.67C59.571 15.4087 59.8324 15.0633 59.9817 14.634H61.3537C61.1484 15.3713 60.7377 15.9733 60.1217 16.44C59.5057 16.8973 58.7404 17.126 57.8257 17.126C57.0977 17.126 56.4444 16.9627 55.8657 16.636C55.2964 16.3093 54.8484 15.8473 54.5217 15.25C54.195 14.6433 54.0317 13.9433 54.0317 13.15C54.0317 12.3567 54.1904 11.6613 54.5077 11.064C54.825 10.4667 55.2684 10.0093 55.8377 9.692C56.4164 9.36533 57.079 9.202 57.8257 9.202C58.5537 9.202 59.1977 9.36067 59.7577 9.678C60.3177 9.99533 60.747 10.434 61.0457 10.994C61.3537 11.5447 61.5077 12.17 61.5077 12.87ZM60.1917 12.604C60.1917 12.1187 60.0844 11.7033 59.8697 11.358C59.655 11.0033 59.361 10.7373 58.9877 10.56C58.6237 10.3733 58.2177 10.28 57.7697 10.28C57.1257 10.28 56.575 10.4853 56.1177 10.896C55.6697 11.3067 55.413 11.876 55.3477 12.604H60.1917ZM62.7133 13.136C62.7133 12.352 62.872 11.666 63.1893 11.078C63.5067 10.4807 63.9407 10.0187 64.4913 9.692C65.0513 9.36533 65.6767 9.202 66.3673 9.202C66.9647 9.202 67.52 9.342 68.0333 9.622C68.5467 9.89267 68.9387 10.252 69.2093 10.7V6.64H70.4973V17H69.2093V15.558C68.9573 16.0153 68.584 16.3933 68.0893 16.692C67.5947 16.9813 67.016 17.126 66.3533 17.126C65.672 17.126 65.0513 16.958 64.4913 16.622C63.9407 16.286 63.5067 15.8147 63.1893 15.208C62.872 14.6013 62.7133 13.9107 62.7133 13.136ZM69.2093 13.15C69.2093 12.5713 69.0927 12.0673 68.8593 11.638C68.626 11.2087 68.3087 10.882 67.9073 10.658C67.5153 10.4247 67.0813 10.308 66.6053 10.308C66.1293 10.308 65.6953 10.42 65.3033 10.644C64.9113 10.868 64.5987 11.1947 64.3653 11.624C64.132 12.0533 64.0153 12.5573 64.0153 13.136C64.0153 13.724 64.132 14.2373 64.3653 14.676C64.5987 15.1053 64.9113 15.4367 65.3033 15.67C65.6953 15.894 66.1293 16.006 66.6053 16.006C67.0813 16.006 67.5153 15.894 67.9073 15.67C68.3087 15.4367 68.626 15.1053 68.8593 14.676C69.0927 14.2373 69.2093 13.7287 69.2093 13.15Z" fill="#AFB1BA"/>
<path d="M88.28 10.4667L83.9333 14.8133C83.42 15.3267 82.58 15.3267 82.0666 14.8133L77.72 10.4667" stroke="#AFB1BA" stroke-width="1.5" stroke-miterlimit="10" stroke-linecap="round" stroke-linejoin="round"/>
<path d="M10 48H8.544L2.688 39.12V48H1.232V36.832H2.688L8.544 45.696V36.832H10V48ZM20.482 43.28C20.482 43.5573 20.466 43.8507 20.434 44.16H13.426C13.4793 45.024 13.7727 45.7013 14.306 46.192C14.85 46.672 15.506 46.912 16.274 46.912C16.9033 46.912 17.426 46.768 17.842 46.48C18.2687 46.1813 18.5673 45.7867 18.738 45.296H20.306C20.0713 46.1387 19.602 46.8267 18.898 47.36C18.194 47.8827 17.3193 48.144 16.274 48.144C15.442 48.144 14.6953 47.9573 14.034 47.584C13.3833 47.2107 12.8713 46.6827 12.498 46C12.1247 45.3067 11.938 44.5067 11.938 43.6C11.938 42.6933 12.1193 41.8987 12.482 41.216C12.8447 40.5333 13.3513 40.0107 14.002 39.648C14.6633 39.2747 15.4207 39.088 16.274 39.088C17.106 39.088 17.842 39.2693 18.482 39.632C19.122 39.9947 19.6127 40.496 19.954 41.136C20.306 41.7653 20.482 42.48 20.482 43.28ZM18.978 42.976C18.978 42.4213 18.8553 41.9467 18.61 41.552C18.3647 41.1467 18.0287 40.8427 17.602 40.64C17.186 40.4267 16.722 40.32 16.21 40.32C15.474 40.32 14.8447 40.5547 14.322 41.024C13.81 41.4933 13.5167 42.144 13.442 42.976H18.978ZM34.0839 39.232L31.3479 48H29.8439L27.7319 41.04L25.6199 48H24.1159L21.3639 39.232H22.8519L24.8679 46.592L27.0439 39.232H28.5319L30.6599 46.608L32.6439 39.232H34.0839ZM48.3545 48L46.8985 46.528C46.3545 47.0933 45.7732 47.5147 45.1545 47.792C44.5358 48.0587 43.8372 48.192 43.0585 48.192C42.2905 48.192 41.6078 48.0533 41.0105 47.776C40.4238 47.4987 39.9652 47.104 39.6345 46.592C39.3145 46.08 39.1545 45.4827 39.1545 44.8C39.1545 44.0213 39.3732 43.3387 39.8105 42.752C40.2585 42.1547 40.9145 41.6853 41.7785 41.344C41.4372 40.9387 41.1918 40.5653 41.0425 40.224C40.8932 39.8827 40.8185 39.5093 40.8185 39.104C40.8185 38.6347 40.9358 38.2133 41.1705 37.84C41.4158 37.456 41.7625 37.1573 42.2105 36.944C42.6585 36.7307 43.1758 36.624 43.7625 36.624C44.3385 36.624 44.8398 36.736 45.2665 36.96C45.6932 37.184 46.0132 37.4987 46.2265 37.904C46.4398 38.2987 46.5358 38.7413 46.5145 39.232H45.0585C45.0692 38.7947 44.9465 38.4533 44.6905 38.208C44.4345 37.952 44.1038 37.824 43.6985 37.824C43.2718 37.824 42.9252 37.9467 42.6585 38.192C42.4025 38.4267 42.2745 38.7307 42.2745 39.104C42.2745 39.424 42.3598 39.7333 42.5305 40.032C42.7118 40.3307 43.0105 40.6987 43.4265 41.136L46.7545 44.48L47.0425 44.032L48.1305 42.208H49.6985L48.3865 44.48C48.2052 44.8 47.9918 45.136 47.7465 45.488L50.2585 48H48.3545ZM43.0585 46.944C43.6345 46.944 44.1518 46.832 44.6105 46.608C45.0798 46.384 45.5225 46.0373 45.9385 45.568L42.6585 42.272C41.2932 42.7947 40.6105 43.6213 40.6105 44.752C40.6105 45.3813 40.8345 45.904 41.2825 46.32C41.7412 46.736 42.3332 46.944 43.0585 46.944ZM57.3123 36.848V43.904C57.3123 44.896 57.5523 45.632 58.0323 46.112C58.5229 46.592 59.2003 46.832 60.0643 46.832C60.9176 46.832 61.5843 46.592 62.0643 46.112C62.5549 45.632 62.8003 44.896 62.8003 43.904V36.848H64.2563V43.888C64.2563 44.816 64.0696 45.6 63.6962 46.24C63.3229 46.8693 62.8163 47.3387 62.1763 47.648C61.5469 47.9573 60.8376 48.112 60.0483 48.112C59.2589 48.112 58.5443 47.9573 57.9043 47.648C57.2749 47.3387 56.7736 46.8693 56.4003 46.24C56.0376 45.6 55.8563 44.816 55.8563 43.888V36.848H57.3123ZM69.7891 48.144C69.1171 48.144 68.5145 48.032 67.9811 47.808C67.4478 47.5733 67.0265 47.2533 66.7171 46.848C66.4078 46.432 66.2371 45.9573 66.2051 45.424H67.7091C67.7518 45.8613 67.9545 46.2187 68.3171 46.496C68.6905 46.7733 69.1758 46.912 69.7731 46.912C70.3278 46.912 70.7651 46.7893 71.0851 46.544C71.4051 46.2987 71.5651 45.9893 71.5651 45.616C71.5651 45.232 71.3945 44.9493 71.0531 44.768C70.7118 44.576 70.1838 44.3893 69.4691 44.208C68.8185 44.0373 68.2851 43.8667 67.8691 43.696C67.4638 43.5147 67.1118 43.2533 66.8131 42.912C66.5251 42.56 66.3811 42.1013 66.3811 41.536C66.3811 41.088 66.5145 40.6773 66.7811 40.304C67.0478 39.9307 67.4265 39.6373 67.9171 39.424C68.4078 39.2 68.9678 39.088 69.5971 39.088C70.5678 39.088 71.3518 39.3333 71.9491 39.824C72.5465 40.3147 72.8665 40.9867 72.9091 41.84H71.4531C71.4211 41.3813 71.2345 41.0133 70.8931 40.736C70.5625 40.4587 70.1145 40.32 69.5491 40.32C69.0265 40.32 68.6105 40.432 68.3011 40.656C67.9918 40.88 67.8371 41.1733 67.8371 41.536C67.8371 41.824 67.9278 42.064 68.1091 42.256C68.3011 42.4373 68.5358 42.5867 68.8131 42.704C69.1011 42.8107 69.4958 42.9333 69.9971 43.072C70.6265 43.2427 71.1385 43.4133 71.5331 43.584C71.9278 43.744 72.2638 43.9893 72.5411 44.32C72.8291 44.6507 72.9785 45.0827 72.9891 45.616C72.9891 46.096 72.8558 46.528 72.5891 46.912C72.3225 47.296 71.9438 47.6 71.4531 47.824C70.9731 48.0373 70.4185 48.144 69.7891 48.144ZM83.0445 43.28C83.0445 43.5573 83.0285 43.8507 82.9965 44.16H75.9885C76.0418 45.024 76.3352 45.7013 76.8685 46.192C77.4125 46.672 78.0685 46.912 78.8365 46.912C79.4658 46.912 79.9885 46.768 80.4045 46.48C80.8312 46.1813 81.1298 45.7867 81.3005 45.296H82.8685C82.6338 46.1387 82.1645 46.8267 81.4605 47.36C80.7565 47.8827 79.8818 48.144 78.8365 48.144C78.0045 48.144 77.2578 47.9573 76.5965 47.584C75.9458 47.2107 75.4338 46.6827 75.0605 46C74.6872 45.3067 74.5005 44.5067 74.5005 43.6C74.5005 42.6933 74.6818 41.8987 75.0445 41.216C75.4072 40.5333 75.9138 40.0107 76.5645 39.648C77.2258 39.2747 77.9832 39.088 78.8365 39.088C79.6685 39.088 80.4045 39.2693 81.0445 39.632C81.6845 39.9947 82.1752 40.496 82.5165 41.136C82.8685 41.7653 83.0445 42.48 83.0445 43.28ZM81.5405 42.976C81.5405 42.4213 81.4178 41.9467 81.1725 41.552C80.9272 41.1467 80.5912 40.8427 80.1645 40.64C79.7485 40.4267 79.2845 40.32 78.7725 40.32C78.0365 40.32 77.4072 40.5547 76.8845 41.024C76.3725 41.4933 76.0792 42.144 76.0045 42.976H81.5405ZM84.4224 43.584C84.4224 42.688 84.6037 41.904 84.9664 41.232C85.329 40.5493 85.825 40.0213 86.4544 39.648C87.0944 39.2747 87.809 39.088 88.5984 39.088C89.281 39.088 89.9157 39.248 90.5024 39.568C91.089 39.8773 91.537 40.288 91.8464 40.8V36.16H93.3184V48H91.8464V46.352C91.5584 46.8747 91.1317 47.3067 90.5664 47.648C90.001 47.9787 89.3397 48.144 88.5824 48.144C87.8037 48.144 87.0944 47.952 86.4544 47.568C85.825 47.184 85.329 46.6453 84.9664 45.952C84.6037 45.2587 84.4224 44.4693 84.4224 43.584ZM91.8464 43.6C91.8464 42.9387 91.713 42.3627 91.4464 41.872C91.1797 41.3813 90.817 41.008 90.3584 40.752C89.9104 40.4853 89.4144 40.352 88.8704 40.352C88.3264 40.352 87.8304 40.48 87.3824 40.736C86.9344 40.992 86.577 41.3653 86.3104 41.856C86.0437 42.3467 85.9104 42.9227 85.9104 43.584C85.9104 44.256 86.0437 44.8427 86.3104 45.344C86.577 45.8347 86.9344 46.2133 87.3824 46.48C87.8304 46.736 88.3264 46.864 88.8704 46.864C89.4144 46.864 89.9104 46.736 90.3584 46.48C90.817 46.2133 91.1797 45.8347 91.4464 45.344C91.713 44.8427 91.8464 44.2613 91.8464 43.6Z" fill="#100E34"/>
</svg>
