<svg width="200" height="57" viewBox="0 0 200 57" fill="none" xmlns="http://www.w3.org/2000/svg">
<path d="M10.976 7.312V17H9.702V9.776L6.482 17H5.586L2.352 9.762V17H1.078V7.312H2.45L6.034 15.32L9.618 7.312H10.976ZM16.4826 17.126C15.7639 17.126 15.1106 16.9627 14.5226 16.636C13.9439 16.3093 13.4866 15.8473 13.1506 15.25C12.8239 14.6433 12.6606 13.9433 12.6606 13.15C12.6606 12.366 12.8286 11.6753 13.1646 11.078C13.5099 10.4713 13.9766 10.0093 14.5646 9.692C15.1526 9.36533 15.8106 9.202 16.5386 9.202C17.2666 9.202 17.9246 9.36533 18.5126 9.692C19.1006 10.0093 19.5626 10.4667 19.8986 11.064C20.2439 11.6613 20.4166 12.3567 20.4166 13.15C20.4166 13.9433 20.2393 14.6433 19.8846 15.25C19.5393 15.8473 19.0679 16.3093 18.4706 16.636C17.8733 16.9627 17.2106 17.126 16.4826 17.126ZM16.4826 16.006C16.9399 16.006 17.3693 15.8987 17.7706 15.684C18.1719 15.4693 18.4939 15.1473 18.7366 14.718C18.9886 14.2887 19.1146 13.766 19.1146 13.15C19.1146 12.534 18.9933 12.0113 18.7506 11.582C18.5079 11.1527 18.1906 10.8353 17.7986 10.63C17.4066 10.4153 16.9819 10.308 16.5246 10.308C16.0579 10.308 15.6286 10.4153 15.2366 10.63C14.8539 10.8353 14.5459 11.1527 14.3126 11.582C14.0793 12.0113 13.9626 12.534 13.9626 13.15C13.9626 13.7753 14.0746 14.3027 14.2986 14.732C14.5319 15.1613 14.8399 15.4833 15.2226 15.698C15.6053 15.9033 16.0253 16.006 16.4826 16.006ZM21.6157 13.136C21.6157 12.352 21.7743 11.666 22.0917 11.078C22.409 10.4807 22.843 10.0187 23.3937 9.692C23.9537 9.36533 24.579 9.202 25.2697 9.202C25.867 9.202 26.4223 9.342 26.9357 9.622C27.449 9.89267 27.841 10.252 28.1117 10.7V6.64H29.3997V17H28.1117V15.558C27.8597 16.0153 27.4863 16.3933 26.9917 16.692C26.497 16.9813 25.9183 17.126 25.2557 17.126C24.5743 17.126 23.9537 16.958 23.3937 16.622C22.843 16.286 22.409 15.8147 22.0917 15.208C21.7743 14.6013 21.6157 13.9107 21.6157 13.136ZM28.1117 13.15C28.1117 12.5713 27.995 12.0673 27.7617 11.638C27.5283 11.2087 27.211 10.882 26.8097 10.658C26.4177 10.4247 25.9837 10.308 25.5077 10.308C25.0317 10.308 24.5977 10.42 24.2057 10.644C23.8137 10.868 23.501 11.1947 23.2677 11.624C23.0343 12.0533 22.9177 12.5573 22.9177 13.136C22.9177 13.724 23.0343 14.2373 23.2677 14.676C23.501 15.1053 23.8137 15.4367 24.2057 15.67C24.5977 15.894 25.0317 16.006 25.5077 16.006C25.9837 16.006 26.4177 15.894 26.8097 15.67C27.211 15.4367 27.5283 15.1053 27.7617 14.676C27.995 14.2373 28.1117 13.7287 28.1117 13.15ZM38.5526 12.87C38.5526 13.1127 38.5386 13.3693 38.5106 13.64H32.3786C32.4253 14.396 32.6819 14.9887 33.1486 15.418C33.6246 15.838 34.1986 16.048 34.8706 16.048C35.4213 16.048 35.8786 15.922 36.2426 15.67C36.6159 15.4087 36.8773 15.0633 37.0266 14.634H38.3986C38.1933 15.3713 37.7826 15.9733 37.1666 16.44C36.5506 16.8973 35.7853 17.126 34.8706 17.126C34.1426 17.126 33.4893 16.9627 32.9106 16.636C32.3413 16.3093 31.8933 15.8473 31.5666 15.25C31.2399 14.6433 31.0766 13.9433 31.0766 13.15C31.0766 12.3567 31.2353 11.6613 31.5526 11.064C31.8699 10.4667 32.3133 10.0093 32.8826 9.692C33.4613 9.36533 34.1239 9.202 34.8706 9.202C35.5986 9.202 36.2426 9.36067 36.8026 9.678C37.3626 9.99533 37.7919 10.434 38.0906 10.994C38.3986 11.5447 38.5526 12.17 38.5526 12.87ZM37.2366 12.604C37.2366 12.1187 37.1293 11.7033 36.9146 11.358C36.6999 11.0033 36.4059 10.7373 36.0326 10.56C35.6686 10.3733 35.2626 10.28 34.8146 10.28C34.1706 10.28 33.6199 10.4853 33.1626 10.896C32.7146 11.3067 32.4579 11.876 32.3926 12.604H37.2366ZM41.5083 6.64V17H40.2343V6.64H41.5083Z" fill="#AFB1BA"/>
<path d="M59.28 10.4667L54.9333 14.8133C54.42 15.3267 53.58 15.3267 53.0666 14.8133L48.72 10.4667" stroke="#AFB1BA" stroke-width="1.5" stroke-miterlimit="10" stroke-linecap="round" stroke-linejoin="round"/>
<path d="M7.824 45.52H2.96L2.064 48H0.528L4.56 36.912H6.24L10.256 48H8.72L7.824 45.52ZM7.408 44.336L5.392 38.704L3.376 44.336H7.408ZM13.4693 36.16V48H12.0133V36.16H13.4693ZM17.4068 36.16V48H15.9508V36.16H17.4068ZM35.4659 36.928V48H34.0099V39.744L30.3299 48H29.3059L25.6099 39.728V48H24.1539V36.928H25.7219L29.8179 46.08L33.9139 36.928H35.4659ZM41.7591 48.144C40.9378 48.144 40.1911 47.9573 39.5191 47.584C38.8578 47.2107 38.3351 46.6827 37.9511 46C37.5778 45.3067 37.3911 44.5067 37.3911 43.6C37.3911 42.704 37.5831 41.9147 37.9671 41.232C38.3618 40.5387 38.8951 40.0107 39.5671 39.648C40.2391 39.2747 40.9911 39.088 41.8231 39.088C42.6551 39.088 43.4071 39.2747 44.0791 39.648C44.7511 40.0107 45.2791 40.5333 45.6631 41.216C46.0578 41.8987 46.2551 42.6933 46.2551 43.6C46.2551 44.5067 46.0525 45.3067 45.6471 46C45.2525 46.6827 44.7138 47.2107 44.0311 47.584C43.3485 47.9573 42.5911 48.144 41.7591 48.144ZM41.7591 46.864C42.2818 46.864 42.7725 46.7413 43.2311 46.496C43.6898 46.2507 44.0578 45.8827 44.3351 45.392C44.6231 44.9013 44.7671 44.304 44.7671 43.6C44.7671 42.896 44.6285 42.2987 44.3511 41.808C44.0738 41.3173 43.7111 40.9547 43.2631 40.72C42.8151 40.4747 42.3298 40.352 41.8071 40.352C41.2738 40.352 40.7831 40.4747 40.3351 40.72C39.8978 40.9547 39.5458 41.3173 39.2791 41.808C39.0125 42.2987 38.8791 42.896 38.8791 43.6C38.8791 44.3147 39.0071 44.9173 39.2631 45.408C39.5298 45.8987 39.8818 46.2667 40.3191 46.512C40.7565 46.7467 41.2365 46.864 41.7591 46.864ZM47.6255 43.584C47.6255 42.688 47.8068 41.904 48.1695 41.232C48.5322 40.5493 49.0282 40.0213 49.6575 39.648C50.2975 39.2747 51.0122 39.088 51.8015 39.088C52.4842 39.088 53.1188 39.248 53.7055 39.568C54.2922 39.8773 54.7402 40.288 55.0495 40.8V36.16H56.5215V48H55.0495V46.352C54.7615 46.8747 54.3348 47.3067 53.7695 47.648C53.2042 47.9787 52.5428 48.144 51.7855 48.144C51.0068 48.144 50.2975 47.952 49.6575 47.568C49.0282 47.184 48.5322 46.6453 48.1695 45.952C47.8068 45.2587 47.6255 44.4693 47.6255 43.584ZM55.0495 43.6C55.0495 42.9387 54.9162 42.3627 54.6495 41.872C54.3828 41.3813 54.0202 41.008 53.5615 40.752C53.1135 40.4853 52.6175 40.352 52.0735 40.352C51.5295 40.352 51.0335 40.48 50.5855 40.736C50.1375 40.992 49.7802 41.3653 49.5135 41.856C49.2468 42.3467 49.1135 42.9227 49.1135 43.584C49.1135 44.256 49.2468 44.8427 49.5135 45.344C49.7802 45.8347 50.1375 46.2133 50.5855 46.48C51.0335 46.736 51.5295 46.864 52.0735 46.864C52.6175 46.864 53.1135 46.736 53.5615 46.48C54.0202 46.2133 54.3828 45.8347 54.6495 45.344C54.9162 44.8427 55.0495 44.2613 55.0495 43.6ZM66.982 43.28C66.982 43.5573 66.966 43.8507 66.934 44.16H59.926C59.9793 45.024 60.2727 45.7013 60.806 46.192C61.35 46.672 62.006 46.912 62.774 46.912C63.4033 46.912 63.926 46.768 64.342 46.48C64.7687 46.1813 65.0673 45.7867 65.238 45.296H66.806C66.5713 46.1387 66.102 46.8267 65.398 47.36C64.694 47.8827 63.8193 48.144 62.774 48.144C61.942 48.144 61.1953 47.9573 60.534 47.584C59.8833 47.2107 59.3713 46.6827 58.998 46C58.6247 45.3067 58.438 44.5067 58.438 43.6C58.438 42.6933 58.6193 41.8987 58.982 41.216C59.3447 40.5333 59.8513 40.0107 60.502 39.648C61.1633 39.2747 61.9207 39.088 62.774 39.088C63.606 39.088 64.342 39.2693 64.982 39.632C65.622 39.9947 66.1127 40.496 66.454 41.136C66.806 41.7653 66.982 42.48 66.982 43.28ZM65.478 42.976C65.478 42.4213 65.3553 41.9467 65.11 41.552C64.8647 41.1467 64.5287 40.8427 64.102 40.64C63.686 40.4267 63.222 40.32 62.71 40.32C61.974 40.32 61.3447 40.5547 60.822 41.024C60.31 41.4933 60.0167 42.144 59.942 42.976H65.478ZM70.3599 36.16V48H68.9039V36.16H70.3599ZM75.9454 48.144C75.2734 48.144 74.6707 48.032 74.1374 47.808C73.604 47.5733 73.1827 47.2533 72.8734 46.848C72.564 46.432 72.3934 45.9573 72.3614 45.424H73.8654C73.908 45.8613 74.1107 46.2187 74.4734 46.496C74.8467 46.7733 75.332 46.912 75.9294 46.912C76.484 46.912 76.9214 46.7893 77.2414 46.544C77.5614 46.2987 77.7214 45.9893 77.7214 45.616C77.7214 45.232 77.5507 44.9493 77.2094 44.768C76.868 44.576 76.34 44.3893 75.6254 44.208C74.9747 44.0373 74.4414 43.8667 74.0254 43.696C73.62 43.5147 73.268 43.2533 72.9694 42.912C72.6814 42.56 72.5374 42.1013 72.5374 41.536C72.5374 41.088 72.6707 40.6773 72.9374 40.304C73.204 39.9307 73.5827 39.6373 74.0734 39.424C74.564 39.2 75.124 39.088 75.7534 39.088C76.724 39.088 77.508 39.3333 78.1054 39.824C78.7027 40.3147 79.0227 40.9867 79.0654 41.84H77.6094C77.5774 41.3813 77.3907 41.0133 77.0494 40.736C76.7187 40.4587 76.2707 40.32 75.7054 40.32C75.1827 40.32 74.7667 40.432 74.4574 40.656C74.148 40.88 73.9934 41.1733 73.9934 41.536C73.9934 41.824 74.084 42.064 74.2654 42.256C74.4574 42.4373 74.692 42.5867 74.9694 42.704C75.2574 42.8107 75.652 42.9333 76.1534 43.072C76.7827 43.2427 77.2947 43.4133 77.6894 43.584C78.084 43.744 78.42 43.9893 78.6974 44.32C78.9854 44.6507 79.1347 45.0827 79.1454 45.616C79.1454 46.096 79.012 46.528 78.7454 46.912C78.4787 47.296 78.1 47.6 77.6094 47.824C77.1294 48.0373 76.5747 48.144 75.9454 48.144Z" fill="#100E34"/>
</svg>
