<svg width="40" height="40" viewBox="0 0 40 40" fill="none" xmlns="http://www.w3.org/2000/svg">
<path d="M25.85 4.71667H14.15C9.99996 4.71667 9.08329 6.78334 8.54996 9.31668L6.66663 18.3333H33.3333L31.45 9.31668C30.9166 6.78334 30 4.71667 25.85 4.71667Z" stroke="#A2001D" stroke-width="2" stroke-linecap="round" stroke-linejoin="round"/>
<path d="M36.65 33.0334C36.8334 34.9834 35.2667 36.6667 33.2667 36.6667H30.1334C28.3334 36.6667 28.0834 35.9 27.7667 34.95L27.4334 33.95C26.9667 32.5834 26.6667 31.6667 24.2667 31.6667H15.7334C13.3334 31.6667 12.9834 32.7 12.5667 33.95L12.2334 34.95C11.9167 35.9 11.6667 36.6667 9.86672 36.6667H6.73338C4.73338 36.6667 3.16672 34.9834 3.35005 33.0334L4.28338 22.8834C4.51672 20.3834 5.00005 18.3334 9.36672 18.3334H30.6334C35 18.3334 35.4834 20.3834 35.7167 22.8834L36.65 33.0334Z" stroke="#A2001D" stroke-width="2" stroke-linecap="round" stroke-linejoin="round"/>
<path d="M6.66667 13.3334H5" stroke="#A2001D" stroke-width="2" stroke-linecap="round" stroke-linejoin="round"/>
<path d="M35 13.3334H33.3334" stroke="#A2001D" stroke-width="2" stroke-linecap="round" stroke-linejoin="round"/>
<path d="M20 5V8.33333" stroke="#A2001D" stroke-width="2" stroke-linecap="round" stroke-linejoin="round"/>
<path d="M17.5 8.33337H22.5" stroke="#A2001D" stroke-width="2" stroke-linecap="round" stroke-linejoin="round"/>
<path d="M10 25H15" stroke="#A2001D" stroke-width="2" stroke-linecap="round" stroke-linejoin="round"/>
<path d="M25 25H30" stroke="#A2001D" stroke-width="2" stroke-linecap="round" stroke-linejoin="round"/>
</svg>
