<svg width="188" height="52" viewBox="0 0 188 52" fill="none" xmlns="http://www.w3.org/2000/svg">
<path d="M1.24661 25.7867C1.24661 23.775 1.68184 21.9858 2.55228 20.419C3.42273 18.8328 4.63169 17.6045 6.17915 16.7341C7.74596 15.8443 9.51587 15.3994 11.4889 15.3994C13.9068 15.3994 15.9765 16.0377 17.6981 17.3144C19.4196 18.591 20.5706 20.3319 21.1509 22.5371H15.696C15.2898 21.686 14.7095 21.038 13.9552 20.5931C13.2201 20.1482 12.3787 19.9257 11.4309 19.9257C9.90273 19.9257 8.66476 20.4577 7.71694 21.5216C6.76912 22.5854 6.29521 24.0072 6.29521 25.7867C6.29521 27.5663 6.76912 28.9881 7.71694 30.0519C8.66476 31.1158 9.90273 31.6478 11.4309 31.6478C12.3787 31.6478 13.2201 31.4253 13.9552 30.9804C14.7095 30.5355 15.2898 29.8875 15.696 29.0364H21.1509C20.5706 31.2416 19.4196 32.9824 17.6981 34.2591C15.9765 35.5164 13.9068 36.1451 11.4889 36.1451C9.51587 36.1451 7.74596 35.7099 6.17915 34.8394C4.63169 33.9496 3.42273 32.7213 2.55228 31.1545C1.68184 29.5877 1.24661 27.7984 1.24661 25.7867ZM36.8688 32.4021H29.2669L28.0482 36H22.8546L30.2244 15.6315H35.9693L43.3391 36H38.0874L36.8688 32.4021ZM35.5921 28.5722L33.0678 21.1153L30.5725 28.5722H35.5921ZM55.9694 36L51.7333 28.311H50.5437V36H45.5821V15.6315H53.9094C55.5149 15.6315 56.8786 15.912 58.0005 16.473C59.1417 17.0339 59.9928 17.8076 60.5538 18.7941C61.1148 19.7613 61.3952 20.8445 61.3952 22.0438C61.3952 23.3978 61.0084 24.6068 60.2346 25.6707C59.4803 26.7346 58.3583 27.489 56.8689 27.9338L61.5693 36H55.9694ZM50.5437 24.8002H53.6192C54.5284 24.8002 55.2054 24.5778 55.6503 24.1329C56.1145 23.688 56.3466 23.0593 56.3466 22.2469C56.3466 21.4732 56.1145 20.8639 55.6503 20.419C55.2054 19.9741 54.5284 19.7516 53.6192 19.7516H50.5437V24.8002Z" fill="#100E34"/>
<path d="M79.3329 22.421C80.7643 22.421 82.0151 22.7047 83.0855 23.2721C84.1558 23.8395 84.9811 24.639 85.5614 25.6707C86.1546 26.6894 86.4512 27.8694 86.4512 29.2105C86.4512 30.5387 86.1546 31.7187 85.5614 32.7503C84.9811 33.782 84.1493 34.5815 83.0661 35.1489C81.9958 35.7163 80.7514 36 79.3329 36H74.2456V22.421H79.3329ZM79.1201 33.1372C80.3709 33.1372 81.3446 32.7955 82.0409 32.112C82.7373 31.4285 83.0855 30.4614 83.0855 29.2105C83.0855 27.9596 82.7373 26.986 82.0409 26.2897C81.3446 25.5933 80.3709 25.2451 79.1201 25.2451H77.5533V33.1372H79.1201ZM91.6074 25.071V27.8178H96.037V30.3711H91.6074V33.35H96.6173V36H88.2997V22.421H96.6173V25.071H91.6074ZM107.218 33.6014H102.15L101.337 36H97.8749L102.788 22.421H106.618L111.531 36H108.03L107.218 33.6014ZM106.367 31.0481L104.684 26.0769L103.02 31.0481H106.367ZM116.334 33.4467H120.667V36H113.027V22.421H116.334V33.4467ZM125.553 25.071V27.8178H129.982V30.3711H125.553V33.35H130.562V36H122.245V22.421H130.562V25.071H125.553ZM139.635 36L136.811 30.874H136.018V36H132.71V22.421H138.261C139.332 22.421 140.241 22.608 140.989 22.982C141.75 23.3559 142.317 23.8718 142.691 24.5294C143.065 25.1742 143.252 25.8964 143.252 26.6959C143.252 27.5986 142.994 28.4045 142.478 29.1138C141.975 29.823 141.227 30.326 140.234 30.6226L143.368 36H139.635ZM136.018 28.5335H138.068C138.674 28.5335 139.125 28.3852 139.422 28.0886C139.732 27.792 139.886 27.3729 139.886 26.8313C139.886 26.3155 139.732 25.9093 139.422 25.6127C139.125 25.3161 138.674 25.1678 138.068 25.1678H136.018V28.5335ZM150.242 36.1354C149.249 36.1354 148.359 35.9742 147.572 35.6518C146.786 35.3294 146.154 34.8523 145.677 34.2204C145.212 33.5885 144.967 32.8277 144.941 31.9379H148.462C148.514 32.4408 148.688 32.8277 148.984 33.0985C149.281 33.3564 149.668 33.4854 150.145 33.4854C150.635 33.4854 151.022 33.3758 151.305 33.1565C151.589 32.9244 151.731 32.6085 151.731 32.2087C151.731 31.8734 151.615 31.5962 151.383 31.377C151.164 31.1577 150.886 30.9772 150.551 30.8353C150.229 30.6935 149.764 30.5323 149.158 30.3518C148.281 30.081 147.566 29.8101 147.011 29.5393C146.457 29.2685 145.98 28.8688 145.58 28.3401C145.18 27.8113 144.98 27.1214 144.98 26.2703C144.98 25.0066 145.438 24.0201 146.354 23.3108C147.269 22.5887 148.462 22.2276 149.932 22.2276C151.428 22.2276 152.634 22.5887 153.549 23.3108C154.465 24.0201 154.955 25.013 155.019 26.2897H151.441C151.415 25.8512 151.254 25.5095 150.957 25.2645C150.661 25.0066 150.28 24.8776 149.816 24.8776C149.416 24.8776 149.094 24.9872 148.849 25.2064C148.604 25.4128 148.481 25.7158 148.481 26.1156C148.481 26.554 148.688 26.8958 149.1 27.1408C149.513 27.3858 150.158 27.6501 151.035 27.9338C151.912 28.2304 152.621 28.5141 153.162 28.785C153.717 29.0558 154.194 29.4491 154.594 29.9649C154.994 30.4807 155.193 31.1448 155.193 31.9573C155.193 32.731 154.994 33.4338 154.594 34.0657C154.207 34.6976 153.64 35.2005 152.892 35.5744C152.144 35.9484 151.26 36.1354 150.242 36.1354ZM168.99 22.421V36H165.682V30.4098H160.537V36H157.229V22.421H160.537V27.7404H165.682V22.421H168.99ZM174.685 22.421V36H171.378V22.421H174.685ZM187.431 26.7926C187.431 27.5792 187.25 28.3014 186.889 28.959C186.528 29.6038 185.974 30.1261 185.226 30.5259C184.478 30.9256 183.549 31.1255 182.44 31.1255H180.39V36H177.082V22.421H182.44C183.524 22.421 184.439 22.608 185.187 22.982C185.935 23.3559 186.496 23.8718 186.87 24.5294C187.244 25.1871 187.431 25.9415 187.431 26.7926ZM182.189 28.4948C182.821 28.4948 183.292 28.3465 183.601 28.0499C183.911 27.7533 184.065 27.3342 184.065 26.7926C184.065 26.251 183.911 25.8319 183.601 25.5353C183.292 25.2387 182.821 25.0904 182.189 25.0904H180.39V28.4948H182.189Z" fill="#A2001D"/>
</svg>
