<svg width="131" height="130" viewBox="0 0 131 130" fill="none" xmlns="http://www.w3.org/2000/svg">
<path fill-rule="evenodd" clip-rule="evenodd" d="M103.695 121.033C103.695 121.033 103.695 121.11 103.695 106.25H97.5928C97.5928 121.11 97.5928 121.033 97.5928 121.033H103.695Z" fill="#D3D5E0"/>
<path fill-rule="evenodd" clip-rule="evenodd" d="M71.3906 114.9V106.478H65.4785V112.916C65.4785 114.786 65.4024 115.311 65.2884 115.799C64.8765 117.149 63.4571 117.745 61.9933 117.745C59.9719 117.745 59.0341 116.959 58.6602 115.723C58.5461 115.311 58.5081 114.862 58.4701 114.412C58.4321 113.924 58.4701 113.404 58.4701 112.84V106.478H52.4819V114.938C52.4819 116.845 53.1156 118.271 54.1675 119.24C55.9671 121.002 58.996 121.521 61.8032 121.521C65.2123 121.521 67.8294 121.034 69.6987 119.202C70.6745 118.264 71.3842 117.029 71.3842 114.9H71.3906Z" fill="#D3D5E0"/>
<path fill-rule="evenodd" clip-rule="evenodd" d="M42.3432 113.848C42.1531 113.81 41.8172 113.772 41.4434 113.772H34.7075C34.3716 113.772 33.9978 113.81 33.8077 113.848C33.9217 113.734 34.1435 113.512 34.3716 113.214L37.4006 108.195C37.8124 107.524 38.0025 107.074 38.0723 106.884C38.1483 107.074 38.3321 107.517 38.7439 108.233L41.8489 113.284C42.001 113.505 42.2228 113.734 42.3368 113.848H42.3432ZM53.6478 121.033L40.176 100.819H32.6164L34.5998 103.177C34.6378 103.215 34.7138 103.253 34.7899 103.291C34.7138 103.329 34.6378 103.367 34.5998 103.405L22.8452 121.033H29.6571L31.4884 118.005C31.5645 117.852 31.6025 117.707 31.6025 117.631C31.6785 117.631 31.8623 117.707 32.0524 117.707H44.2188C44.4089 117.707 44.5547 117.669 44.6307 117.631C44.6307 117.707 44.6307 117.821 44.7068 117.928L46.6141 121.033H53.6478Z" fill="#D3D5E0"/>
<path fill-rule="evenodd" clip-rule="evenodd" d="M95.9452 113.436C95.9452 111.788 95.2735 109.881 93.1761 107.22L88.1258 100.819H81.0921L85.0968 105.312C85.7685 106.06 86.6303 106.732 86.6303 106.732C85.6545 106.168 84.4252 105.946 83.4493 105.946C81.1301 105.946 78.7728 106.434 76.6754 107.593C74.4322 108.829 72.9304 110.888 72.9304 113.62C72.9304 115.717 73.8682 117.327 75.0659 118.562C77.759 121.255 82.6636 121.521 84.4632 121.521C87.1182 121.521 91.2751 120.919 93.6323 118.79C95.0201 117.517 95.9516 115.761 95.9516 113.436H95.9452ZM90.1091 113.626C90.1091 115.159 89.1016 116.319 87.8279 116.959C86.7824 117.523 85.5467 117.669 84.4568 117.669C83.3669 117.669 82.0996 117.447 81.0477 116.921C79.774 116.287 78.8045 115.052 78.8045 113.702C78.8045 112.092 80.0402 110.819 81.4976 110.185C82.3974 109.773 83.481 109.621 84.3428 109.621C85.2046 109.621 86.3642 109.735 87.302 110.109C88.9876 110.819 90.1091 112.168 90.1091 113.626Z" fill="#D3D5E0"/>
<path fill-rule="evenodd" clip-rule="evenodd" d="M102.075 29.5984C97.5125 29.5984 93.324 31.1635 90.0035 33.7933C86.6831 31.1635 82.4946 29.5984 77.9322 29.5984C73.3698 29.5984 69.1812 31.1635 65.8608 33.7933C62.5404 31.1635 58.3518 29.5984 53.7894 29.5984C49.227 29.5984 45.0385 31.1635 41.7181 33.7933C38.3976 31.1635 34.2091 29.5984 29.6467 29.5984C18.8934 29.5984 10.1804 38.3113 10.1804 49.0647C10.1804 59.818 18.8934 68.5309 29.6467 68.5309C34.2091 68.5309 38.3976 66.9658 41.7181 64.336C45.0385 66.9594 49.227 68.5309 53.7894 68.5309C58.3518 68.5309 62.5404 66.9658 65.8608 64.336C69.1812 66.9594 73.3698 68.5309 77.9322 68.5309C82.4946 68.5309 86.6831 66.9658 90.0035 64.336C93.324 66.9658 97.5125 68.5309 102.075 68.5309C112.828 68.5309 121.541 59.818 121.541 49.0647C121.541 38.3113 112.828 29.5984 102.075 29.5984ZM38.5307 61.1614C36.0531 62.9737 32.9481 64.0762 29.6467 64.0762C21.352 64.0762 14.6351 57.3657 14.6351 49.0647C14.6351 40.7636 21.3456 34.0531 29.6467 34.0531C32.9544 34.0531 36.0467 35.1557 38.5307 36.9679C35.8883 40.2884 34.3168 44.4896 34.3168 49.0647C34.3168 53.6397 35.9073 57.841 38.5307 61.1614ZM41.7181 57.9867C39.8678 55.49 38.7842 52.4104 38.7842 49.071C38.7842 45.7316 39.8678 42.6519 41.7181 40.1553C43.5684 42.6519 44.6583 45.7252 44.6583 49.071C44.6583 52.4168 43.5684 55.49 41.7181 57.9867ZM62.6735 61.1614C60.1831 62.9927 57.1035 64.0699 53.7768 64.0699C50.45 64.0699 47.3894 62.9927 44.8991 61.1614C47.5225 57.8473 49.113 53.6207 49.113 49.0647C49.113 44.5086 47.5415 40.2947 44.8991 36.9679C47.3894 35.1366 50.4437 34.0594 53.7768 34.0594C57.1098 34.0594 60.1831 35.1366 62.6735 36.9679C60.0311 40.2884 58.4596 44.4896 58.4596 49.0647C58.4596 53.6397 60.0501 57.841 62.6735 61.1614ZM65.8608 57.9867C64.0105 55.49 62.9269 52.4104 62.9269 49.071C62.9269 45.7316 64.0105 42.6519 65.8608 40.1553C67.7111 42.6519 68.801 45.7252 68.801 49.071C68.801 52.4168 67.7111 55.49 65.8608 57.9867ZM86.8162 61.1614C84.3259 62.9927 81.2463 64.0699 77.9195 64.0699C74.5927 64.0699 71.5321 62.9927 69.0418 61.1614C71.6652 57.8473 73.2557 53.6207 73.2557 49.0647C73.2557 44.5086 71.6842 40.2947 69.0418 36.9679C71.5321 35.1366 74.5864 34.0594 77.9195 34.0594C81.2526 34.0594 84.3259 35.1366 86.8162 36.9679C84.1738 40.2884 82.6023 44.4896 82.6023 49.0647C82.6023 53.6397 84.1928 57.841 86.8162 61.1614ZM90.0035 57.9867C88.1532 55.49 87.0633 52.4104 87.0633 49.071C87.0633 45.7316 88.1469 42.6519 90.0035 40.1553C91.8538 42.6519 92.9374 45.7252 92.9374 49.071C92.9374 52.4168 91.8475 55.49 90.0035 57.9867ZM102.075 64.0762C98.7672 64.0762 95.6685 62.9737 93.1909 61.1614C95.8143 57.8473 97.4048 53.6207 97.4048 49.0647C97.4048 44.5086 95.8333 40.2947 93.1909 36.9679C95.6749 35.1557 98.7735 34.0531 102.075 34.0531C110.37 34.0531 117.087 40.7636 117.087 49.0647C117.087 57.3657 110.376 64.0762 102.075 64.0762Z" fill="#D3D5E0"/>
</svg>
