<svg width="40" height="40" viewBox="0 0 40 40" fill="none" xmlns="http://www.w3.org/2000/svg">
<path d="M36.6666 20V28.3333C36.6666 33.3333 33.3333 36.6666 28.3333 36.6666H11.6666C6.66659 36.6666 3.33325 33.3333 3.33325 28.3333V20C3.33325 15.4666 6.06659 12.3 10.3166 11.7666C10.7499 11.7 11.1999 11.6666 11.6666 11.6666H28.3333C28.7666 11.6666 29.1833 11.6833 29.5833 11.7499C33.8833 12.2499 36.6666 15.4333 36.6666 20Z" stroke="#A2001D" stroke-width="2" stroke-linecap="round" stroke-linejoin="round"/>
<path d="M29.5858 11.75C29.1858 11.6834 28.7691 11.6667 28.3358 11.6667H11.6691C11.2024 11.6667 10.7524 11.7001 10.3191 11.7667C10.5524 11.3001 10.8858 10.8667 11.2858 10.4667L16.7024 5.03337C18.9858 2.76671 22.6858 2.76671 24.9691 5.03337L27.8858 7.98341C28.9524 9.03341 29.5191 10.3667 29.5858 11.75Z" stroke="#A2001D" stroke-width="2" stroke-linecap="round" stroke-linejoin="round"/>
<path d="M36.6666 20.8334H31.6666C29.8333 20.8334 28.3333 22.3334 28.3333 24.1667C28.3333 26 29.8333 27.5 31.6666 27.5H36.6666" stroke="#A2001D" stroke-width="2" stroke-linecap="round" stroke-linejoin="round"/>
</svg>
