<svg width="464" height="43" viewBox="0 0 464 43" fill="none" xmlns="http://www.w3.org/2000/svg">
<line x1="3.44088e-08" y1="21.5" x2="464" y2="21.5" stroke="#D3D5E0"/>
<rect width="85" height="43" transform="translate(189.5)" fill="#EAEBF0"/>
<path d="M209.857 21.384C210.465 21.48 211.017 21.728 211.513 22.128C212.025 22.528 212.425 23.024 212.713 23.616C213.017 24.208 213.169 24.84 213.169 25.512C213.169 26.36 212.953 27.128 212.521 27.816C212.089 28.488 211.457 29.024 210.625 29.424C209.809 29.808 208.841 30 207.721 30H201.481V13.272H207.481C208.617 13.272 209.585 13.464 210.385 13.848C211.185 14.216 211.785 14.72 212.185 15.36C212.585 16 212.785 16.72 212.785 17.52C212.785 18.512 212.513 19.336 211.969 19.992C211.441 20.632 210.737 21.096 209.857 21.384ZM203.665 20.496H207.337C208.361 20.496 209.153 20.256 209.713 19.776C210.273 19.296 210.553 18.632 210.553 17.784C210.553 16.936 210.273 16.272 209.713 15.792C209.153 15.312 208.345 15.072 207.289 15.072H203.665V20.496ZM207.529 28.2C208.617 28.2 209.465 27.944 210.073 27.432C210.681 26.92 210.985 26.208 210.985 25.296C210.985 24.368 210.665 23.64 210.025 23.112C209.385 22.568 208.529 22.296 207.457 22.296H203.665V28.2H207.529ZM218.384 12.24V30H216.2V12.24H218.384ZM227.842 30.216C226.61 30.216 225.49 29.936 224.482 29.376C223.49 28.816 222.706 28.024 222.13 27C221.57 25.96 221.29 24.76 221.29 23.4C221.29 22.056 221.578 20.872 222.154 19.848C222.746 18.808 223.546 18.016 224.554 17.472C225.562 16.912 226.69 16.632 227.938 16.632C229.186 16.632 230.314 16.912 231.322 17.472C232.33 18.016 233.122 18.8 233.698 19.824C234.29 20.848 234.586 22.04 234.586 23.4C234.586 24.76 234.282 25.96 233.674 27C233.082 28.024 232.274 28.816 231.25 29.376C230.226 29.936 229.09 30.216 227.842 30.216ZM227.842 28.296C228.626 28.296 229.362 28.112 230.05 27.744C230.738 27.376 231.29 26.824 231.706 26.088C232.138 25.352 232.354 24.456 232.354 23.4C232.354 22.344 232.146 21.448 231.73 20.712C231.314 19.976 230.77 19.432 230.098 19.08C229.426 18.712 228.698 18.528 227.914 18.528C227.114 18.528 226.378 18.712 225.706 19.08C225.05 19.432 224.522 19.976 224.122 20.712C223.722 21.448 223.522 22.344 223.522 23.4C223.522 24.472 223.714 25.376 224.098 26.112C224.498 26.848 225.026 27.4 225.682 27.768C226.338 28.12 227.058 28.296 227.842 28.296ZM242.881 16.632C244.017 16.632 245.009 16.88 245.857 17.376C246.721 17.872 247.361 18.496 247.777 19.248V16.848H249.985V30.288C249.985 31.488 249.729 32.552 249.217 33.48C248.705 34.424 247.969 35.16 247.009 35.688C246.065 36.216 244.961 36.48 243.697 36.48C241.969 36.48 240.529 36.072 239.377 35.256C238.225 34.44 237.545 33.328 237.337 31.92H239.497C239.737 32.72 240.233 33.36 240.985 33.84C241.737 34.336 242.641 34.584 243.697 34.584C244.897 34.584 245.873 34.208 246.625 33.456C247.393 32.704 247.777 31.648 247.777 30.288V27.528C247.345 28.296 246.705 28.936 245.857 29.448C245.009 29.96 244.017 30.216 242.881 30.216C241.713 30.216 240.649 29.928 239.689 29.352C238.745 28.776 238.001 27.968 237.457 26.928C236.913 25.888 236.641 24.704 236.641 23.376C236.641 22.032 236.913 20.856 237.457 19.848C238.001 18.824 238.745 18.032 239.689 17.472C240.649 16.912 241.713 16.632 242.881 16.632ZM247.777 23.4C247.777 22.408 247.577 21.544 247.177 20.808C246.777 20.072 246.233 19.512 245.545 19.128C244.873 18.728 244.129 18.528 243.313 18.528C242.497 18.528 241.753 18.72 241.081 19.104C240.409 19.488 239.873 20.048 239.473 20.784C239.073 21.52 238.873 22.384 238.873 23.376C238.873 24.384 239.073 25.264 239.473 26.016C239.873 26.752 240.409 27.32 241.081 27.72C241.753 28.104 242.497 28.296 243.313 28.296C244.129 28.296 244.873 28.104 245.545 27.72C246.233 27.32 246.777 26.752 247.177 26.016C247.577 25.264 247.777 24.392 247.777 23.4ZM258.332 30.216C257.324 30.216 256.42 30.048 255.62 29.712C254.82 29.36 254.188 28.88 253.724 28.272C253.26 27.648 253.004 26.936 252.956 26.136H255.212C255.276 26.792 255.58 27.328 256.124 27.744C256.684 28.16 257.412 28.368 258.308 28.368C259.14 28.368 259.796 28.184 260.276 27.816C260.756 27.448 260.996 26.984 260.996 26.424C260.996 25.848 260.74 25.424 260.228 25.152C259.716 24.864 258.924 24.584 257.852 24.312C256.876 24.056 256.076 23.8 255.452 23.544C254.844 23.272 254.316 22.88 253.868 22.368C253.436 21.84 253.22 21.152 253.22 20.304C253.22 19.632 253.42 19.016 253.82 18.456C254.22 17.896 254.788 17.456 255.524 17.136C256.26 16.8 257.1 16.632 258.044 16.632C259.5 16.632 260.676 17 261.572 17.736C262.468 18.472 262.948 19.48 263.012 20.76H260.828C260.78 20.072 260.5 19.52 259.988 19.104C259.492 18.688 258.82 18.48 257.972 18.48C257.188 18.48 256.564 18.648 256.1 18.984C255.636 19.32 255.404 19.76 255.404 20.304C255.404 20.736 255.54 21.096 255.812 21.384C256.1 21.656 256.452 21.88 256.868 22.056C257.3 22.216 257.892 22.4 258.644 22.608C259.588 22.864 260.356 23.12 260.948 23.376C261.54 23.616 262.044 23.984 262.46 24.48C262.892 24.976 263.116 25.624 263.132 26.424C263.132 27.144 262.932 27.792 262.532 28.368C262.132 28.944 261.564 29.4 260.828 29.736C260.108 30.056 259.276 30.216 258.332 30.216Z" fill="#100E34"/>
</svg>
