<svg width="464" height="43" viewBox="0 0 464 43" fill="none" xmlns="http://www.w3.org/2000/svg">
<line x1="0.000976597" y1="21.5" x2="464.001" y2="21.5" stroke="#D3D5E0"/>
<rect width="104" height="43" transform="translate(180.001)" fill="#F8F8F8"/>
<path d="M200.225 21.384C200.833 21.48 201.385 21.728 201.881 22.128C202.393 22.528 202.793 23.024 203.081 23.616C203.385 24.208 203.537 24.84 203.537 25.512C203.537 26.36 203.321 27.128 202.889 27.816C202.457 28.488 201.825 29.024 200.993 29.424C200.177 29.808 199.209 30 198.089 30H191.849V13.272H197.849C198.985 13.272 199.953 13.464 200.753 13.848C201.553 14.216 202.153 14.72 202.553 15.36C202.953 16 203.153 16.72 203.153 17.52C203.153 18.512 202.881 19.336 202.337 19.992C201.809 20.632 201.105 21.096 200.225 21.384ZM194.033 20.496H197.705C198.729 20.496 199.521 20.256 200.081 19.776C200.641 19.296 200.921 18.632 200.921 17.784C200.921 16.936 200.641 16.272 200.081 15.792C199.521 15.312 198.713 15.072 197.657 15.072H194.033V20.496ZM197.897 28.2C198.985 28.2 199.833 27.944 200.441 27.432C201.049 26.92 201.353 26.208 201.353 25.296C201.353 24.368 201.033 23.64 200.393 23.112C199.753 22.568 198.897 22.296 197.825 22.296H194.033V28.2H197.897ZM208.752 18.984C209.136 18.232 209.68 17.648 210.384 17.232C211.104 16.816 211.976 16.608 213 16.608V18.864H212.424C209.976 18.864 208.752 20.192 208.752 22.848V30H206.568V16.848H208.752V18.984ZM214.705 23.376C214.705 22.032 214.977 20.856 215.521 19.848C216.065 18.824 216.809 18.032 217.753 17.472C218.713 16.912 219.777 16.632 220.945 16.632C222.097 16.632 223.097 16.88 223.945 17.376C224.793 17.872 225.425 18.496 225.841 19.248V16.848H228.049V30H225.841V27.552C225.409 28.32 224.761 28.96 223.897 29.472C223.049 29.968 222.057 30.216 220.921 30.216C219.753 30.216 218.697 29.928 217.753 29.352C216.809 28.776 216.065 27.968 215.521 26.928C214.977 25.888 214.705 24.704 214.705 23.376ZM225.841 23.4C225.841 22.408 225.641 21.544 225.241 20.808C224.841 20.072 224.297 19.512 223.609 19.128C222.937 18.728 222.193 18.528 221.377 18.528C220.561 18.528 219.817 18.72 219.145 19.104C218.473 19.488 217.937 20.048 217.537 20.784C217.137 21.52 216.937 22.384 216.937 23.376C216.937 24.384 217.137 25.264 217.537 26.016C217.937 26.752 218.473 27.32 219.145 27.72C219.817 28.104 220.561 28.296 221.377 28.296C222.193 28.296 222.937 28.104 223.609 27.72C224.297 27.32 224.841 26.752 225.241 26.016C225.641 25.264 225.841 24.392 225.841 23.4ZM238.148 16.608C239.748 16.608 241.044 17.096 242.036 18.072C243.028 19.032 243.524 20.424 243.524 22.248V30H241.364V22.56C241.364 21.248 241.036 20.248 240.38 19.56C239.724 18.856 238.828 18.504 237.692 18.504C236.54 18.504 235.62 18.864 234.932 19.584C234.26 20.304 233.924 21.352 233.924 22.728V30H231.74V16.848H233.924V18.72C234.356 18.048 234.94 17.528 235.676 17.16C236.428 16.792 237.252 16.608 238.148 16.608ZM246.275 23.376C246.275 22.032 246.547 20.856 247.091 19.848C247.635 18.824 248.379 18.032 249.323 17.472C250.283 16.912 251.355 16.632 252.539 16.632C253.563 16.632 254.515 16.872 255.395 17.352C256.275 17.816 256.947 18.432 257.411 19.2V12.24H259.619V30H257.411V27.528C256.979 28.312 256.339 28.96 255.491 29.472C254.643 29.968 253.651 30.216 252.515 30.216C251.347 30.216 250.283 29.928 249.323 29.352C248.379 28.776 247.635 27.968 247.091 26.928C246.547 25.888 246.275 24.704 246.275 23.376ZM257.411 23.4C257.411 22.408 257.211 21.544 256.811 20.808C256.411 20.072 255.867 19.512 255.179 19.128C254.507 18.728 253.763 18.528 252.947 18.528C252.131 18.528 251.387 18.72 250.715 19.104C250.043 19.488 249.507 20.048 249.107 20.784C248.707 21.52 248.507 22.384 248.507 23.376C248.507 24.384 248.707 25.264 249.107 26.016C249.507 26.752 250.043 27.32 250.715 27.72C251.387 28.104 252.131 28.296 252.947 28.296C253.763 28.296 254.507 28.104 255.179 27.72C255.867 27.32 256.411 26.752 256.811 26.016C257.211 25.264 257.411 24.392 257.411 23.4ZM267.966 30.216C266.958 30.216 266.054 30.048 265.254 29.712C264.454 29.36 263.822 28.88 263.358 28.272C262.894 27.648 262.638 26.936 262.59 26.136H264.846C264.91 26.792 265.214 27.328 265.758 27.744C266.318 28.16 267.046 28.368 267.942 28.368C268.774 28.368 269.43 28.184 269.91 27.816C270.39 27.448 270.63 26.984 270.63 26.424C270.63 25.848 270.374 25.424 269.862 25.152C269.35 24.864 268.558 24.584 267.486 24.312C266.51 24.056 265.71 23.8 265.086 23.544C264.478 23.272 263.95 22.88 263.502 22.368C263.07 21.84 262.854 21.152 262.854 20.304C262.854 19.632 263.054 19.016 263.454 18.456C263.854 17.896 264.422 17.456 265.158 17.136C265.894 16.8 266.734 16.632 267.678 16.632C269.134 16.632 270.31 17 271.206 17.736C272.102 18.472 272.582 19.48 272.646 20.76H270.462C270.414 20.072 270.134 19.52 269.622 19.104C269.126 18.688 268.454 18.48 267.606 18.48C266.822 18.48 266.198 18.648 265.734 18.984C265.27 19.32 265.038 19.76 265.038 20.304C265.038 20.736 265.174 21.096 265.446 21.384C265.734 21.656 266.086 21.88 266.502 22.056C266.934 22.216 267.526 22.4 268.278 22.608C269.222 22.864 269.99 23.12 270.582 23.376C271.174 23.616 271.678 23.984 272.094 24.48C272.526 24.976 272.75 25.624 272.766 26.424C272.766 27.144 272.566 27.792 272.166 28.368C271.766 28.944 271.198 29.4 270.462 29.736C269.742 30.056 268.91 30.216 267.966 30.216Z" fill="#100E34"/>
</svg>
