<svg width="40" height="40" viewBox="0 0 40 40" fill="none" xmlns="http://www.w3.org/2000/svg">
<path d="M28.1667 36.6667H11.8334C9.00009 36.6667 6.66675 34.35 6.66675 31.5V8.50005C6.66675 5.66672 8.98342 3.33337 11.8334 3.33337H28.1667C31.0001 3.33337 33.3334 5.65005 33.3334 8.50005V31.5C33.3334 34.35 31.0167 36.6667 28.1667 36.6667Z" stroke="#A2001D" stroke-width="2" stroke-linecap="round" stroke-linejoin="round"/>
<path d="M30.8334 21.6667H9.16675C7.78341 21.6667 6.66675 20.55 6.66675 19.1667V15.8334C6.66675 14.45 7.78341 13.3334 9.16675 13.3334H30.8334C32.2167 13.3334 33.3334 14.45 33.3334 15.8334V19.1667C33.3334 20.55 32.2167 21.6667 30.8334 21.6667Z" stroke="#A2001D" stroke-width="2" stroke-linecap="round" stroke-linejoin="round"/>
<path d="M14.1574 29.5001H14.1724" stroke="#A2001D" stroke-width="2" stroke-linecap="round" stroke-linejoin="round"/>
<path d="M25.8242 29.5001H25.8391" stroke="#A2001D" stroke-width="2" stroke-linecap="round" stroke-linejoin="round"/>
<path d="M15.8333 8.33337H24.1666" stroke="#A2001D" stroke-width="2" stroke-linecap="round" stroke-linejoin="round"/>
</svg>
