<svg width="464" height="43" viewBox="0 0 464 43" fill="none" xmlns="http://www.w3.org/2000/svg">
<line x1="3.44088e-08" y1="21.5" x2="464" y2="21.5" stroke="#D3D5E0"/>
<rect width="106" height="43" transform="translate(179)" fill="#EAEBF0"/>
<path d="M193.481 15.048V20.64H199.577V22.44H193.481V28.2H200.297V30H191.297V13.248H200.297V15.048H193.481ZM210.466 30L207.346 25.104L204.346 30H202.066L206.314 23.472L202.066 16.848H204.538L207.658 21.72L210.634 16.848H212.914L208.69 23.352L212.938 30H210.466ZM217.27 19.272C217.702 18.52 218.342 17.896 219.19 17.4C220.054 16.888 221.054 16.632 222.19 16.632C223.358 16.632 224.414 16.912 225.358 17.472C226.318 18.032 227.07 18.824 227.614 19.848C228.158 20.856 228.43 22.032 228.43 23.376C228.43 24.704 228.158 25.888 227.614 26.928C227.07 27.968 226.318 28.776 225.358 29.352C224.414 29.928 223.358 30.216 222.19 30.216C221.07 30.216 220.078 29.968 219.214 29.472C218.366 28.96 217.718 28.328 217.27 27.576V36.24H215.086V16.848H217.27V19.272ZM226.198 23.376C226.198 22.384 225.998 21.52 225.598 20.784C225.198 20.048 224.654 19.488 223.966 19.104C223.294 18.72 222.55 18.528 221.734 18.528C220.934 18.528 220.19 18.728 219.502 19.128C218.83 19.512 218.286 20.08 217.87 20.832C217.47 21.568 217.27 22.424 217.27 23.4C217.27 24.392 217.47 25.264 217.87 26.016C218.286 26.752 218.83 27.32 219.502 27.72C220.19 28.104 220.934 28.296 221.734 28.296C222.55 28.296 223.294 28.104 223.966 27.72C224.654 27.32 225.198 26.752 225.598 26.016C225.998 25.264 226.198 24.384 226.198 23.376ZM233.489 12.24V30H231.305V12.24H233.489ZM242.947 30.216C241.715 30.216 240.595 29.936 239.587 29.376C238.595 28.816 237.811 28.024 237.235 27C236.675 25.96 236.395 24.76 236.395 23.4C236.395 22.056 236.683 20.872 237.259 19.848C237.851 18.808 238.651 18.016 239.659 17.472C240.667 16.912 241.795 16.632 243.043 16.632C244.291 16.632 245.419 16.912 246.427 17.472C247.435 18.016 248.227 18.8 248.803 19.824C249.395 20.848 249.691 22.04 249.691 23.4C249.691 24.76 249.387 25.96 248.779 27C248.187 28.024 247.379 28.816 246.355 29.376C245.331 29.936 244.195 30.216 242.947 30.216ZM242.947 28.296C243.731 28.296 244.467 28.112 245.155 27.744C245.843 27.376 246.395 26.824 246.811 26.088C247.243 25.352 247.459 24.456 247.459 23.4C247.459 22.344 247.251 21.448 246.835 20.712C246.419 19.976 245.875 19.432 245.203 19.08C244.531 18.712 243.803 18.528 243.019 18.528C242.219 18.528 241.483 18.712 240.811 19.08C240.155 19.432 239.627 19.976 239.227 20.712C238.827 21.448 238.627 22.344 238.627 23.4C238.627 24.472 238.819 25.376 239.203 26.112C239.603 26.848 240.131 27.4 240.787 27.768C241.443 28.12 242.163 28.296 242.947 28.296ZM254.747 18.984C255.131 18.232 255.675 17.648 256.379 17.232C257.099 16.816 257.971 16.608 258.995 16.608V18.864H258.419C255.971 18.864 254.747 20.192 254.747 22.848V30H252.563V16.848H254.747V18.984ZM273.516 22.92C273.516 23.336 273.492 23.776 273.444 24.24H262.932C263.012 25.536 263.452 26.552 264.252 27.288C265.068 28.008 266.052 28.368 267.204 28.368C268.148 28.368 268.932 28.152 269.556 27.72C270.196 27.272 270.644 26.68 270.9 25.944H273.252C272.9 27.208 272.196 28.24 271.14 29.04C270.084 29.824 268.772 30.216 267.204 30.216C265.956 30.216 264.836 29.936 263.844 29.376C262.868 28.816 262.1 28.024 261.54 27C260.98 25.96 260.7 24.76 260.7 23.4C260.7 22.04 260.972 20.848 261.516 19.824C262.06 18.8 262.82 18.016 263.796 17.472C264.788 16.912 265.924 16.632 267.204 16.632C268.452 16.632 269.556 16.904 270.516 17.448C271.476 17.992 272.212 18.744 272.724 19.704C273.252 20.648 273.516 21.72 273.516 22.92ZM271.26 22.464C271.26 21.632 271.076 20.92 270.708 20.328C270.34 19.72 269.836 19.264 269.196 18.96C268.572 18.64 267.876 18.48 267.108 18.48C266.004 18.48 265.06 18.832 264.276 19.536C263.508 20.24 263.068 21.216 262.956 22.464H271.26Z" fill="#100E34"/>
</svg>
