<svg width="464" height="43" viewBox="0 0 464 43" fill="none" xmlns="http://www.w3.org/2000/svg">
<line x1="3.44088e-08" y1="21.5" x2="464" y2="21.5" stroke="#D3D5E0"/>
<rect width="328" height="43" transform="translate(68)" fill="#F8F8F8"/>
<path d="M87.5062 30.168C85.9542 30.168 84.5382 29.808 83.2582 29.088C81.9782 28.352 80.9622 27.336 80.2102 26.04C79.4742 24.728 79.1062 23.256 79.1062 21.624C79.1062 19.992 79.4742 18.528 80.2102 17.232C80.9622 15.92 81.9782 14.904 83.2582 14.184C84.5382 13.448 85.9542 13.08 87.5062 13.08C89.0742 13.08 90.4982 13.448 91.7782 14.184C93.0582 14.904 94.0662 15.912 94.8022 17.208C95.5382 18.504 95.9062 19.976 95.9062 21.624C95.9062 23.272 95.5382 24.744 94.8022 26.04C94.0662 27.336 93.0582 28.352 91.7782 29.088C90.4982 29.808 89.0742 30.168 87.5062 30.168ZM87.5062 28.272C88.6742 28.272 89.7222 28 90.6502 27.456C91.5942 26.912 92.3302 26.136 92.8582 25.128C93.4022 24.12 93.6742 22.952 93.6742 21.624C93.6742 20.28 93.4022 19.112 92.8582 18.12C92.3302 17.112 91.6022 16.336 90.6742 15.792C89.7462 15.248 88.6902 14.976 87.5062 14.976C86.3222 14.976 85.2662 15.248 84.3382 15.792C83.4102 16.336 82.6742 17.112 82.1302 18.12C81.6022 19.112 81.3382 20.28 81.3382 21.624C81.3382 22.952 81.6022 24.12 82.1302 25.128C82.6742 26.136 83.4102 26.912 84.3382 27.456C85.2822 28 86.3382 28.272 87.5062 28.272ZM110.453 16.848V30H108.269V28.056C107.853 28.728 107.269 29.256 106.517 29.64C105.781 30.008 104.965 30.192 104.069 30.192C103.045 30.192 102.125 29.984 101.309 29.568C100.493 29.136 99.8454 28.496 99.3654 27.648C98.9014 26.8 98.6694 25.768 98.6694 24.552V16.848H100.829V24.264C100.829 25.56 101.157 26.56 101.813 27.264C102.469 27.952 103.365 28.296 104.501 28.296C105.669 28.296 106.589 27.936 107.261 27.216C107.933 26.496 108.269 25.448 108.269 24.072V16.848H110.453ZM116.325 18.984C116.709 18.232 117.253 17.648 117.957 17.232C118.677 16.816 119.549 16.608 120.573 16.608V18.864H119.997C117.549 18.864 116.325 20.192 116.325 22.848V30H114.141V16.848H116.325V18.984ZM128.677 21.624C128.677 19.992 129.045 18.528 129.781 17.232C130.517 15.92 131.517 14.896 132.781 14.16C134.061 13.424 135.477 13.056 137.029 13.056C138.853 13.056 140.445 13.496 141.805 14.376C143.165 15.256 144.157 16.504 144.781 18.12H142.165C141.701 17.112 141.029 16.336 140.149 15.792C139.285 15.248 138.245 14.976 137.029 14.976C135.861 14.976 134.813 15.248 133.885 15.792C132.957 16.336 132.229 17.112 131.701 18.12C131.173 19.112 130.909 20.28 130.909 21.624C130.909 22.952 131.173 24.12 131.701 25.128C132.229 26.12 132.957 26.888 133.885 27.432C134.813 27.976 135.861 28.248 137.029 28.248C138.245 28.248 139.285 27.984 140.149 27.456C141.029 26.912 141.701 26.136 142.165 25.128H144.781C144.157 26.728 143.165 27.968 141.805 28.848C140.445 29.712 138.853 30.144 137.029 30.144C135.477 30.144 134.061 29.784 132.781 29.064C131.517 28.328 130.517 27.312 129.781 26.016C129.045 24.72 128.677 23.256 128.677 21.624ZM153.768 30.216C152.536 30.216 151.416 29.936 150.408 29.376C149.416 28.816 148.632 28.024 148.056 27C147.496 25.96 147.216 24.76 147.216 23.4C147.216 22.056 147.504 20.872 148.08 19.848C148.672 18.808 149.472 18.016 150.48 17.472C151.488 16.912 152.616 16.632 153.864 16.632C155.112 16.632 156.24 16.912 157.248 17.472C158.256 18.016 159.048 18.8 159.624 19.824C160.216 20.848 160.512 22.04 160.512 23.4C160.512 24.76 160.208 25.96 159.6 27C159.008 28.024 158.2 28.816 157.176 29.376C156.152 29.936 155.016 30.216 153.768 30.216ZM153.768 28.296C154.552 28.296 155.288 28.112 155.976 27.744C156.664 27.376 157.216 26.824 157.632 26.088C158.064 25.352 158.28 24.456 158.28 23.4C158.28 22.344 158.072 21.448 157.656 20.712C157.24 19.976 156.696 19.432 156.024 19.08C155.352 18.712 154.624 18.528 153.84 18.528C153.04 18.528 152.304 18.712 151.632 19.08C150.976 19.432 150.448 19.976 150.048 20.712C149.648 21.448 149.448 22.344 149.448 23.4C149.448 24.472 149.64 25.376 150.024 26.112C150.424 26.848 150.952 27.4 151.608 27.768C152.264 28.12 152.984 28.296 153.768 28.296ZM175.047 16.848V30H172.863V28.056C172.447 28.728 171.863 29.256 171.111 29.64C170.375 30.008 169.559 30.192 168.663 30.192C167.639 30.192 166.719 29.984 165.903 29.568C165.087 29.136 164.439 28.496 163.959 27.648C163.495 26.8 163.263 25.768 163.263 24.552V16.848H165.423V24.264C165.423 25.56 165.751 26.56 166.407 27.264C167.063 27.952 167.959 28.296 169.095 28.296C170.263 28.296 171.183 27.936 171.855 27.216C172.527 26.496 172.863 25.448 172.863 24.072V16.848H175.047ZM183.391 30.216C182.383 30.216 181.479 30.048 180.679 29.712C179.879 29.36 179.247 28.88 178.783 28.272C178.319 27.648 178.063 26.936 178.015 26.136H180.271C180.335 26.792 180.639 27.328 181.183 27.744C181.743 28.16 182.471 28.368 183.367 28.368C184.199 28.368 184.855 28.184 185.335 27.816C185.815 27.448 186.055 26.984 186.055 26.424C186.055 25.848 185.799 25.424 185.287 25.152C184.775 24.864 183.983 24.584 182.911 24.312C181.935 24.056 181.135 23.8 180.511 23.544C179.903 23.272 179.375 22.88 178.927 22.368C178.495 21.84 178.279 21.152 178.279 20.304C178.279 19.632 178.479 19.016 178.879 18.456C179.279 17.896 179.847 17.456 180.583 17.136C181.319 16.8 182.159 16.632 183.103 16.632C184.559 16.632 185.735 17 186.631 17.736C187.527 18.472 188.007 19.48 188.071 20.76H185.887C185.839 20.072 185.559 19.52 185.047 19.104C184.551 18.688 183.879 18.48 183.031 18.48C182.247 18.48 181.623 18.648 181.159 18.984C180.695 19.32 180.463 19.76 180.463 20.304C180.463 20.736 180.599 21.096 180.871 21.384C181.159 21.656 181.511 21.88 181.927 22.056C182.359 22.216 182.951 22.4 183.703 22.608C184.647 22.864 185.415 23.12 186.007 23.376C186.599 23.616 187.103 23.984 187.519 24.48C187.951 24.976 188.175 25.624 188.191 26.424C188.191 27.144 187.991 27.792 187.591 28.368C187.191 28.944 186.623 29.4 185.887 29.736C185.167 30.056 184.335 30.216 183.391 30.216ZM193.938 18.648V26.4C193.938 27.04 194.074 27.496 194.346 27.768C194.618 28.024 195.09 28.152 195.762 28.152H197.37V30H195.402C194.186 30 193.274 29.72 192.666 29.16C192.058 28.6 191.754 27.68 191.754 26.4V18.648H190.05V16.848H191.754V13.536H193.938V16.848H197.37V18.648H193.938ZM205.752 30.216C204.52 30.216 203.4 29.936 202.392 29.376C201.4 28.816 200.616 28.024 200.04 27C199.48 25.96 199.2 24.76 199.2 23.4C199.2 22.056 199.488 20.872 200.064 19.848C200.656 18.808 201.456 18.016 202.464 17.472C203.472 16.912 204.6 16.632 205.848 16.632C207.096 16.632 208.224 16.912 209.232 17.472C210.24 18.016 211.032 18.8 211.608 19.824C212.2 20.848 212.496 22.04 212.496 23.4C212.496 24.76 212.192 25.96 211.584 27C210.992 28.024 210.184 28.816 209.16 29.376C208.136 29.936 207 30.216 205.752 30.216ZM205.752 28.296C206.536 28.296 207.272 28.112 207.96 27.744C208.648 27.376 209.2 26.824 209.616 26.088C210.048 25.352 210.264 24.456 210.264 23.4C210.264 22.344 210.056 21.448 209.64 20.712C209.224 19.976 208.68 19.432 208.008 19.08C207.336 18.712 206.608 18.528 205.824 18.528C205.024 18.528 204.288 18.712 203.616 19.08C202.96 19.432 202.432 19.976 202.032 20.712C201.632 21.448 201.432 22.344 201.432 23.4C201.432 24.472 201.624 25.376 202.008 26.112C202.408 26.848 202.936 27.4 203.592 27.768C204.248 28.12 204.968 28.296 205.752 28.296ZM231.184 16.608C232.208 16.608 233.12 16.824 233.92 17.256C234.72 17.672 235.352 18.304 235.816 19.152C236.28 20 236.512 21.032 236.512 22.248V30H234.352V22.56C234.352 21.248 234.024 20.248 233.368 19.56C232.728 18.856 231.856 18.504 230.752 18.504C229.616 18.504 228.712 18.872 228.04 19.608C227.368 20.328 227.032 21.376 227.032 22.752V30H224.872V22.56C224.872 21.248 224.544 20.248 223.888 19.56C223.248 18.856 222.376 18.504 221.272 18.504C220.136 18.504 219.232 18.872 218.56 19.608C217.888 20.328 217.552 21.376 217.552 22.752V30H215.368V16.848H217.552V18.744C217.984 18.056 218.56 17.528 219.28 17.16C220.016 16.792 220.824 16.608 221.704 16.608C222.808 16.608 223.784 16.856 224.632 17.352C225.48 17.848 226.112 18.576 226.528 19.536C226.896 18.608 227.504 17.888 228.352 17.376C229.2 16.864 230.144 16.608 231.184 16.608ZM252.094 22.92C252.094 23.336 252.07 23.776 252.022 24.24H241.51C241.59 25.536 242.03 26.552 242.83 27.288C243.646 28.008 244.63 28.368 245.782 28.368C246.726 28.368 247.51 28.152 248.134 27.72C248.774 27.272 249.222 26.68 249.478 25.944H251.83C251.478 27.208 250.774 28.24 249.718 29.04C248.662 29.824 247.35 30.216 245.782 30.216C244.534 30.216 243.414 29.936 242.422 29.376C241.446 28.816 240.678 28.024 240.118 27C239.558 25.96 239.278 24.76 239.278 23.4C239.278 22.04 239.55 20.848 240.094 19.824C240.638 18.8 241.398 18.016 242.374 17.472C243.366 16.912 244.502 16.632 245.782 16.632C247.03 16.632 248.134 16.904 249.094 17.448C250.054 17.992 250.79 18.744 251.302 19.704C251.83 20.648 252.094 21.72 252.094 22.92ZM249.838 22.464C249.838 21.632 249.654 20.92 249.286 20.328C248.918 19.72 248.414 19.264 247.774 18.96C247.15 18.64 246.454 18.48 245.686 18.48C244.582 18.48 243.638 18.832 242.854 19.536C242.086 20.24 241.646 21.216 241.534 22.464H249.838ZM257.161 18.984C257.545 18.232 258.089 17.648 258.793 17.232C259.513 16.816 260.385 16.608 261.409 16.608V18.864H260.833C258.385 18.864 257.161 20.192 257.161 22.848V30H254.977V16.848H257.161V18.984ZM279.784 13.272V15.048H272.512V20.688H278.416V22.464H272.512V30H270.328V13.272H279.784ZM294.422 22.92C294.422 23.336 294.398 23.776 294.35 24.24H283.838C283.918 25.536 284.358 26.552 285.158 27.288C285.974 28.008 286.958 28.368 288.11 28.368C289.054 28.368 289.838 28.152 290.462 27.72C291.102 27.272 291.55 26.68 291.806 25.944H294.158C293.806 27.208 293.102 28.24 292.046 29.04C290.99 29.824 289.678 30.216 288.11 30.216C286.862 30.216 285.742 29.936 284.75 29.376C283.774 28.816 283.006 28.024 282.446 27C281.886 25.96 281.606 24.76 281.606 23.4C281.606 22.04 281.878 20.848 282.422 19.824C282.966 18.8 283.726 18.016 284.702 17.472C285.694 16.912 286.83 16.632 288.11 16.632C289.358 16.632 290.462 16.904 291.422 17.448C292.382 17.992 293.118 18.744 293.63 19.704C294.158 20.648 294.422 21.72 294.422 22.92ZM292.166 22.464C292.166 21.632 291.982 20.92 291.614 20.328C291.246 19.72 290.742 19.264 290.102 18.96C289.478 18.64 288.782 18.48 288.014 18.48C286.91 18.48 285.966 18.832 285.182 19.536C284.414 20.24 283.974 21.216 283.862 22.464H292.166ZM309.305 22.92C309.305 23.336 309.281 23.776 309.233 24.24H298.721C298.801 25.536 299.241 26.552 300.041 27.288C300.857 28.008 301.841 28.368 302.993 28.368C303.937 28.368 304.721 28.152 305.345 27.72C305.985 27.272 306.433 26.68 306.689 25.944H309.041C308.689 27.208 307.985 28.24 306.929 29.04C305.873 29.824 304.561 30.216 302.993 30.216C301.745 30.216 300.625 29.936 299.633 29.376C298.657 28.816 297.889 28.024 297.329 27C296.769 25.96 296.489 24.76 296.489 23.4C296.489 22.04 296.761 20.848 297.305 19.824C297.849 18.8 298.609 18.016 299.585 17.472C300.577 16.912 301.713 16.632 302.993 16.632C304.241 16.632 305.345 16.904 306.305 17.448C307.265 17.992 308.001 18.744 308.513 19.704C309.041 20.648 309.305 21.72 309.305 22.92ZM307.049 22.464C307.049 21.632 306.865 20.92 306.497 20.328C306.129 19.72 305.625 19.264 304.985 18.96C304.361 18.64 303.665 18.48 302.897 18.48C301.793 18.48 300.849 18.832 300.065 19.536C299.297 20.24 298.857 21.216 298.745 22.464H307.049ZM311.372 23.376C311.372 22.032 311.644 20.856 312.188 19.848C312.732 18.824 313.476 18.032 314.42 17.472C315.38 16.912 316.452 16.632 317.636 16.632C318.66 16.632 319.612 16.872 320.492 17.352C321.372 17.816 322.044 18.432 322.508 19.2V12.24H324.716V30H322.508V27.528C322.076 28.312 321.436 28.96 320.588 29.472C319.74 29.968 318.748 30.216 317.612 30.216C316.444 30.216 315.38 29.928 314.42 29.352C313.476 28.776 312.732 27.968 312.188 26.928C311.644 25.888 311.372 24.704 311.372 23.376ZM322.508 23.4C322.508 22.408 322.308 21.544 321.908 20.808C321.508 20.072 320.964 19.512 320.276 19.128C319.604 18.728 318.86 18.528 318.044 18.528C317.228 18.528 316.484 18.72 315.812 19.104C315.14 19.488 314.604 20.048 314.204 20.784C313.804 21.52 313.604 22.384 313.604 23.376C313.604 24.384 313.804 25.264 314.204 26.016C314.604 26.752 315.14 27.32 315.812 27.72C316.484 28.104 317.228 28.296 318.044 28.296C318.86 28.296 319.604 28.104 320.276 27.72C320.964 27.32 321.508 26.752 321.908 26.016C322.308 25.264 322.508 24.392 322.508 23.4ZM330.591 19.296C331.039 18.512 331.695 17.872 332.559 17.376C333.423 16.88 334.407 16.632 335.511 16.632C336.695 16.632 337.759 16.912 338.703 17.472C339.647 18.032 340.391 18.824 340.935 19.848C341.479 20.856 341.751 22.032 341.751 23.376C341.751 24.704 341.479 25.888 340.935 26.928C340.391 27.968 339.639 28.776 338.679 29.352C337.735 29.928 336.679 30.216 335.511 30.216C334.375 30.216 333.375 29.968 332.511 29.472C331.663 28.976 331.023 28.344 330.591 27.576V30H328.407V12.24H330.591V19.296ZM339.519 23.376C339.519 22.384 339.319 21.52 338.919 20.784C338.519 20.048 337.975 19.488 337.287 19.104C336.615 18.72 335.871 18.528 335.055 18.528C334.255 18.528 333.511 18.728 332.823 19.128C332.151 19.512 331.607 20.08 331.191 20.832C330.791 21.568 330.591 22.424 330.591 23.4C330.591 24.392 330.791 25.264 331.191 26.016C331.607 26.752 332.151 27.32 332.823 27.72C333.511 28.104 334.255 28.296 335.055 28.296C335.871 28.296 336.615 28.104 337.287 27.72C337.975 27.32 338.519 26.752 338.919 26.016C339.319 25.264 339.519 24.384 339.519 23.376ZM343.809 23.376C343.809 22.032 344.081 20.856 344.625 19.848C345.169 18.824 345.913 18.032 346.857 17.472C347.817 16.912 348.881 16.632 350.049 16.632C351.201 16.632 352.201 16.88 353.049 17.376C353.897 17.872 354.529 18.496 354.945 19.248V16.848H357.153V30H354.945V27.552C354.513 28.32 353.865 28.96 353.001 29.472C352.153 29.968 351.161 30.216 350.025 30.216C348.857 30.216 347.801 29.928 346.857 29.352C345.913 28.776 345.169 27.968 344.625 26.928C344.081 25.888 343.809 24.704 343.809 23.376ZM354.945 23.4C354.945 22.408 354.745 21.544 354.345 20.808C353.945 20.072 353.401 19.512 352.713 19.128C352.041 18.728 351.297 18.528 350.481 18.528C349.665 18.528 348.921 18.72 348.249 19.104C347.577 19.488 347.041 20.048 346.641 20.784C346.241 21.52 346.041 22.384 346.041 23.376C346.041 24.384 346.241 25.264 346.641 26.016C347.041 26.752 347.577 27.32 348.249 27.72C348.921 28.104 349.665 28.296 350.481 28.296C351.297 28.296 352.041 28.104 352.713 27.72C353.401 27.32 353.945 26.752 354.345 26.016C354.745 25.264 354.945 24.392 354.945 23.4ZM360.028 23.4C360.028 22.04 360.3 20.856 360.844 19.848C361.388 18.824 362.14 18.032 363.1 17.472C364.076 16.912 365.188 16.632 366.436 16.632C368.052 16.632 369.38 17.024 370.42 17.808C371.476 18.592 372.172 19.68 372.508 21.072H370.156C369.932 20.272 369.492 19.64 368.836 19.176C368.196 18.712 367.396 18.48 366.436 18.48C365.188 18.48 364.18 18.912 363.412 19.776C362.644 20.624 362.26 21.832 362.26 23.4C362.26 24.984 362.644 26.208 363.412 27.072C364.18 27.936 365.188 28.368 366.436 28.368C367.396 28.368 368.196 28.144 368.836 27.696C369.476 27.248 369.916 26.608 370.156 25.776H372.508C372.156 27.12 371.452 28.2 370.396 29.016C369.34 29.816 368.02 30.216 366.436 30.216C365.188 30.216 364.076 29.936 363.1 29.376C362.14 28.816 361.388 28.024 360.844 27C360.3 25.976 360.028 24.776 360.028 23.4ZM382.766 30L377.606 24.192V30H375.422V12.24H377.606V22.68L382.67 16.848H385.718L379.526 23.4L385.742 30H382.766Z" fill="#100E34"/>
</svg>
