<svg width="204" height="52" viewBox="0 0 204 52" fill="none" xmlns="http://www.w3.org/2000/svg">
<path d="M4.39963 11.3787V13.6507H8.06363V15.7627H4.39963V18.2267H8.54363V20.4187H1.66363V9.1867H8.54363V11.3787H4.39963ZM14.3359 17.8587L16.2719 11.4907H19.1839L16.0159 20.4187H12.6399L9.47188 11.4907H12.3999L14.3359 17.8587ZM28.7515 15.8107C28.7515 16.0667 28.7355 16.3334 28.7035 16.6107H22.5115C22.5542 17.1654 22.7302 17.592 23.0395 17.8907C23.3595 18.1787 23.7488 18.3227 24.2075 18.3227C24.8902 18.3227 25.3648 18.0347 25.6315 17.4587H28.5435C28.3942 18.0454 28.1222 18.5734 27.7275 19.0427C27.3435 19.512 26.8582 19.88 26.2715 20.1467C25.6848 20.4134 25.0288 20.5467 24.3035 20.5467C23.4288 20.5467 22.6502 20.36 21.9675 19.9867C21.2848 19.6134 20.7515 19.08 20.3675 18.3867C19.9835 17.6934 19.7915 16.8827 19.7915 15.9547C19.7915 15.0267 19.9782 14.216 20.3515 13.5227C20.7355 12.8294 21.2688 12.296 21.9515 11.9227C22.6342 11.5494 23.4182 11.3627 24.3035 11.3627C25.1675 11.3627 25.9355 11.544 26.6075 11.9067C27.2795 12.2694 27.8022 12.7867 28.1755 13.4587C28.5595 14.1307 28.7515 14.9147 28.7515 15.8107ZM25.9515 15.0907C25.9515 14.6214 25.7915 14.248 25.4715 13.9707C25.1515 13.6934 24.7515 13.5547 24.2715 13.5547C23.8128 13.5547 23.4235 13.688 23.1035 13.9547C22.7942 14.2214 22.6022 14.6 22.5275 15.0907H25.9515ZM40.5775 18.4347H36.3855L35.7135 20.4187H32.8495L36.9135 9.1867H40.0815L44.1455 20.4187H41.2495L40.5775 18.4347ZM39.8735 16.3227L38.4815 12.2107L37.1055 16.3227H39.8735ZM48.1184 12.9787C48.4384 12.488 48.8384 12.104 49.3184 11.8267C49.7984 11.5387 50.3317 11.3947 50.9184 11.3947V14.2907H50.1664C49.4837 14.2907 48.9717 14.44 48.6304 14.7387C48.289 15.0267 48.1184 15.5387 48.1184 16.2747V20.4187H45.3824V11.4907H48.1184V12.9787ZM57.2021 18.0987V20.4187H55.8101C54.8181 20.4187 54.0448 20.1787 53.4901 19.6987C52.9355 19.208 52.6581 18.4134 52.6581 17.3147V13.7627H51.5701V11.4907H52.6581V9.3147H55.3941V11.4907H57.1861V13.7627H55.3941V17.3467C55.3941 17.6134 55.4581 17.8054 55.5861 17.9227C55.7141 18.04 55.9275 18.0987 56.2261 18.0987H57.2021ZM60.1021 10.5627C59.6221 10.5627 59.2275 10.424 58.9181 10.1467C58.6195 9.8587 58.4701 9.5067 58.4701 9.0907C58.4701 8.66403 58.6195 8.31203 58.9181 8.0347C59.2275 7.7467 59.6221 7.6027 60.1021 7.6027C60.5715 7.6027 60.9555 7.7467 61.2541 8.0347C61.5635 8.31203 61.7181 8.66403 61.7181 9.0907C61.7181 9.5067 61.5635 9.8587 61.2541 10.1467C60.9555 10.424 60.5715 10.5627 60.1021 10.5627ZM61.4621 11.4907V20.4187H58.7261V11.4907H61.4621ZM71.8609 15.8107C71.8609 16.0667 71.8449 16.3334 71.8129 16.6107H65.6209C65.6635 17.1654 65.8395 17.592 66.1489 17.8907C66.4689 18.1787 66.8582 18.3227 67.3169 18.3227C67.9995 18.3227 68.4742 18.0347 68.7409 17.4587H71.6529C71.5035 18.0454 71.2315 18.5734 70.8369 19.0427C70.4529 19.512 69.9675 19.88 69.3809 20.1467C68.7942 20.4134 68.1382 20.5467 67.4129 20.5467C66.5382 20.5467 65.7595 20.36 65.0769 19.9867C64.3942 19.6134 63.8609 19.08 63.4769 18.3867C63.0929 17.6934 62.9009 16.8827 62.9009 15.9547C62.9009 15.0267 63.0875 14.216 63.4609 13.5227C63.8449 12.8294 64.3782 12.296 65.0609 11.9227C65.7435 11.5494 66.5275 11.3627 67.4129 11.3627C68.2769 11.3627 69.0449 11.544 69.7169 11.9067C70.3889 12.2694 70.9115 12.7867 71.2849 13.4587C71.6689 14.1307 71.8609 14.9147 71.8609 15.8107ZM69.0609 15.0907C69.0609 14.6214 68.9009 14.248 68.5809 13.9707C68.2609 13.6934 67.8609 13.5547 67.3809 13.5547C66.9222 13.5547 66.5329 13.688 66.2129 13.9547C65.9035 14.2214 65.7115 14.6 65.6369 15.0907H69.0609Z" fill="#100E34"/>
<path d="M5.78363 40.1107C6.08763 40.1587 6.36363 40.2827 6.61163 40.4827C6.86763 40.6827 7.06763 40.9307 7.21163 41.2267C7.36363 41.5227 7.43963 41.8387 7.43963 42.1747C7.43963 42.5987 7.33163 42.9827 7.11563 43.3267C6.89963 43.6627 6.58363 43.9307 6.16763 44.1307C5.75963 44.3227 5.27563 44.4187 4.71563 44.4187H1.59563V36.0547H4.59563C5.16363 36.0547 5.64763 36.1507 6.04763 36.3427C6.44763 36.5267 6.74763 36.7787 6.94763 37.0987C7.14763 37.4187 7.24763 37.7787 7.24763 38.1787C7.24763 38.6747 7.11163 39.0867 6.83963 39.4147C6.57563 39.7347 6.22363 39.9667 5.78363 40.1107ZM2.68763 39.6667H4.52363C5.03563 39.6667 5.43163 39.5467 5.71163 39.3067C5.99163 39.0667 6.13163 38.7347 6.13163 38.3107C6.13163 37.8867 5.99163 37.5547 5.71163 37.3147C5.43163 37.0747 5.02763 36.9547 4.49963 36.9547H2.68763V39.6667ZM4.61963 43.5187C5.16363 43.5187 5.58763 43.3907 5.89163 43.1347C6.19563 42.8787 6.34763 42.5227 6.34763 42.0667C6.34763 41.6027 6.18763 41.2387 5.86763 40.9747C5.54763 40.7027 5.11963 40.5667 4.58363 40.5667H2.68763V43.5187H4.61963ZM11.823 44.5267C11.207 44.5267 10.647 44.3867 10.143 44.1067C9.64701 43.8267 9.25501 43.4307 8.96701 42.9187C8.68701 42.3987 8.54701 41.7987 8.54701 41.1187C8.54701 40.4467 8.69101 39.8547 8.97901 39.3427C9.27501 38.8227 9.67501 38.4267 10.179 38.1547C10.683 37.8747 11.247 37.7347 11.871 37.7347C12.495 37.7347 13.059 37.8747 13.563 38.1547C14.067 38.4267 14.463 38.8187 14.751 39.3307C15.047 39.8427 15.195 40.4387 15.195 41.1187C15.195 41.7987 15.043 42.3987 14.739 42.9187C14.443 43.4307 14.039 43.8267 13.527 44.1067C13.015 44.3867 12.447 44.5267 11.823 44.5267ZM11.823 43.5667C12.215 43.5667 12.583 43.4747 12.927 43.2907C13.271 43.1067 13.547 42.8307 13.755 42.4627C13.971 42.0947 14.079 41.6467 14.079 41.1187C14.079 40.5907 13.975 40.1427 13.767 39.7747C13.559 39.4067 13.287 39.1347 12.951 38.9587C12.615 38.7747 12.251 38.6827 11.859 38.6827C11.459 38.6827 11.091 38.7747 10.755 38.9587C10.427 39.1347 10.163 39.4067 9.96301 39.7747C9.76301 40.1427 9.66301 40.5907 9.66301 41.1187C9.66301 41.6547 9.75901 42.1067 9.95101 42.4747C10.151 42.8427 10.415 43.1187 10.743 43.3027C11.071 43.4787 11.431 43.5667 11.823 43.5667ZM22.4628 37.8427V44.4187H21.3708V43.4467C21.1628 43.7827 20.8708 44.0467 20.4948 44.2387C20.1268 44.4227 19.7188 44.5147 19.2708 44.5147C18.7588 44.5147 18.2988 44.4107 17.8908 44.2027C17.4828 43.9867 17.1588 43.6667 16.9188 43.2427C16.6868 42.8187 16.5708 42.3027 16.5708 41.6947V37.8427H17.6508V41.5507C17.6508 42.1987 17.8148 42.6987 18.1428 43.0507C18.4708 43.3947 18.9188 43.5667 19.4868 43.5667C20.0708 43.5667 20.5308 43.3867 20.8668 43.0267C21.2028 42.6667 21.3708 42.1427 21.3708 41.4547V37.8427H22.4628ZM27.0186 37.7347C27.5866 37.7347 28.0826 37.8587 28.5066 38.1067C28.9386 38.3547 29.2586 38.6667 29.4666 39.0427V37.8427H30.5706V44.5627C30.5706 45.1627 30.4426 45.6947 30.1866 46.1587C29.9306 46.6307 29.5626 46.9987 29.0826 47.2627C28.6106 47.5267 28.0586 47.6587 27.4266 47.6587C26.5626 47.6587 25.8426 47.4547 25.2666 47.0467C24.6906 46.6387 24.3506 46.0827 24.2466 45.3787H25.3266C25.4466 45.7787 25.6946 46.0987 26.0706 46.3387C26.4466 46.5867 26.8986 46.7107 27.4266 46.7107C28.0266 46.7107 28.5146 46.5227 28.8906 46.1467C29.2746 45.7707 29.4666 45.2427 29.4666 44.5627V43.1827C29.2506 43.5667 28.9306 43.8867 28.5066 44.1427C28.0826 44.3987 27.5866 44.5267 27.0186 44.5267C26.4346 44.5267 25.9026 44.3827 25.4226 44.0947C24.9506 43.8067 24.5786 43.4027 24.3066 42.8827C24.0346 42.3627 23.8986 41.7707 23.8986 41.1067C23.8986 40.4347 24.0346 39.8467 24.3066 39.3427C24.5786 38.8307 24.9506 38.4347 25.4226 38.1547C25.9026 37.8747 26.4346 37.7347 27.0186 37.7347ZM29.4666 41.1187C29.4666 40.6227 29.3666 40.1907 29.1666 39.8227C28.9666 39.4547 28.6946 39.1747 28.3506 38.9827C28.0146 38.7827 27.6426 38.6827 27.2346 38.6827C26.8266 38.6827 26.4546 38.7787 26.1186 38.9707C25.7826 39.1627 25.5146 39.4427 25.3146 39.8107C25.1146 40.1787 25.0146 40.6107 25.0146 41.1067C25.0146 41.6107 25.1146 42.0507 25.3146 42.4267C25.5146 42.7947 25.7826 43.0787 26.1186 43.2787C26.4546 43.4707 26.8266 43.5667 27.2346 43.5667C27.6426 43.5667 28.0146 43.4707 28.3506 43.2787C28.6946 43.0787 28.9666 42.7947 29.1666 42.4267C29.3666 42.0507 29.4666 41.6147 29.4666 41.1187ZM35.6799 37.7227C36.1759 37.7227 36.6239 37.8307 37.0239 38.0467C37.4239 38.2547 37.7359 38.5707 37.9599 38.9947C38.1919 39.4187 38.3079 39.9347 38.3079 40.5427V44.4187H37.2279V40.6987C37.2279 40.0427 37.0639 39.5427 36.7359 39.1987C36.4079 38.8467 35.9599 38.6707 35.3919 38.6707C34.8159 38.6707 34.3559 38.8507 34.0119 39.2107C33.6759 39.5707 33.5079 40.0947 33.5079 40.7827V44.4187H32.4159V35.5387H33.5079V38.7787C33.7239 38.4427 34.0199 38.1827 34.3959 37.9987C34.7799 37.8147 35.2079 37.7227 35.6799 37.7227ZM41.4237 38.7427V42.6187C41.4237 42.9387 41.4917 43.1667 41.6277 43.3027C41.7637 43.4307 41.9997 43.4947 42.3357 43.4947H43.1397V44.4187H42.1557C41.5477 44.4187 41.0917 44.2787 40.7877 43.9987C40.4837 43.7187 40.3317 43.2587 40.3317 42.6187V38.7427H39.4797V37.8427H40.3317V36.1867H41.4237V37.8427H43.1397V38.7427H41.4237ZM52.81 36.0547V36.9427H50.53V44.4187H49.438V36.9427H47.146V36.0547H52.81ZM60.1542 40.8787C60.1542 41.0867 60.1422 41.3067 60.1182 41.5387H54.8622C54.9022 42.1867 55.1222 42.6947 55.5222 43.0627C55.9302 43.4227 56.4222 43.6027 56.9982 43.6027C57.4702 43.6027 57.8622 43.4947 58.1742 43.2787C58.4942 43.0547 58.7182 42.7587 58.8462 42.3907H60.0222C59.8462 43.0227 59.4942 43.5387 58.9662 43.9387C58.4382 44.3307 57.7822 44.5267 56.9982 44.5267C56.3742 44.5267 55.8142 44.3867 55.3182 44.1067C54.8302 43.8267 54.4462 43.4307 54.1662 42.9187C53.8862 42.3987 53.7462 41.7987 53.7462 41.1187C53.7462 40.4387 53.8822 39.8427 54.1542 39.3307C54.4262 38.8187 54.8062 38.4267 55.2942 38.1547C55.7902 37.8747 56.3582 37.7347 56.9982 37.7347C57.6222 37.7347 58.1742 37.8707 58.6542 38.1427C59.1342 38.4147 59.5022 38.7907 59.7582 39.2707C60.0222 39.7427 60.1542 40.2787 60.1542 40.8787ZM59.0262 40.6507C59.0262 40.2347 58.9342 39.8787 58.7502 39.5827C58.5662 39.2787 58.3142 39.0507 57.9942 38.8987C57.6822 38.7387 57.3342 38.6587 56.9502 38.6587C56.3982 38.6587 55.9262 38.8347 55.5342 39.1867C55.1502 39.5387 54.9302 40.0267 54.8742 40.6507H59.0262ZM63.9236 44.5267C63.4196 44.5267 62.9676 44.4427 62.5676 44.2747C62.1676 44.0987 61.8516 43.8587 61.6196 43.5547C61.3876 43.2427 61.2596 42.8867 61.2356 42.4867H62.3636C62.3956 42.8147 62.5476 43.0827 62.8196 43.2907C63.0996 43.4987 63.4636 43.6027 63.9116 43.6027C64.3276 43.6027 64.6556 43.5107 64.8956 43.3267C65.1356 43.1427 65.2556 42.9107 65.2556 42.6307C65.2556 42.3427 65.1276 42.1307 64.8716 41.9947C64.6156 41.8507 64.2196 41.7107 63.6836 41.5747C63.1956 41.4467 62.7956 41.3187 62.4836 41.1907C62.1796 41.0547 61.9156 40.8587 61.6916 40.6027C61.4756 40.3387 61.3676 39.9947 61.3676 39.5707C61.3676 39.2347 61.4676 38.9267 61.6676 38.6467C61.8676 38.3667 62.1516 38.1467 62.5196 37.9867C62.8876 37.8187 63.3076 37.7347 63.7796 37.7347C64.5076 37.7347 65.0956 37.9187 65.5436 38.2867C65.9916 38.6547 66.2316 39.1587 66.2636 39.7987H65.1716C65.1476 39.4547 65.0076 39.1787 64.7516 38.9707C64.5036 38.7627 64.1676 38.6587 63.7436 38.6587C63.3516 38.6587 63.0396 38.7427 62.8076 38.9107C62.5756 39.0787 62.4596 39.2987 62.4596 39.5707C62.4596 39.7867 62.5276 39.9667 62.6636 40.1107C62.8076 40.2467 62.9836 40.3587 63.1916 40.4467C63.4076 40.5267 63.7036 40.6187 64.0796 40.7227C64.5516 40.8507 64.9356 40.9787 65.2316 41.1067C65.5276 41.2267 65.7796 41.4107 65.9876 41.6587C66.2036 41.9067 66.3156 42.2307 66.3236 42.6307C66.3236 42.9907 66.2236 43.3147 66.0236 43.6027C65.8236 43.8907 65.5396 44.1187 65.1716 44.2867C64.8116 44.4467 64.3956 44.5267 63.9236 44.5267ZM68.9572 35.5387V44.4187H67.8652V35.5387H68.9572ZM70.4103 41.1067C70.4103 40.4347 70.5463 39.8467 70.8183 39.3427C71.0903 38.8307 71.4623 38.4347 71.9343 38.1547C72.4143 37.8747 72.9463 37.7347 73.5303 37.7347C74.1063 37.7347 74.6063 37.8587 75.0303 38.1067C75.4543 38.3547 75.7703 38.6667 75.9783 39.0427V37.8427H77.0823V44.4187H75.9783V43.1947C75.7623 43.5787 75.4383 43.8987 75.0063 44.1547C74.5823 44.4027 74.0863 44.5267 73.5183 44.5267C72.9343 44.5267 72.4063 44.3827 71.9343 44.0947C71.4623 43.8067 71.0903 43.4027 70.8183 42.8827C70.5463 42.3627 70.4103 41.7707 70.4103 41.1067ZM75.9783 41.1187C75.9783 40.6227 75.8783 40.1907 75.6783 39.8227C75.4783 39.4547 75.2063 39.1747 74.8623 38.9827C74.5263 38.7827 74.1543 38.6827 73.7463 38.6827C73.3383 38.6827 72.9663 38.7787 72.6303 38.9707C72.2943 39.1627 72.0263 39.4427 71.8263 39.8107C71.6263 40.1787 71.5263 40.6107 71.5263 41.1067C71.5263 41.6107 71.6263 42.0507 71.8263 42.4267C72.0263 42.7947 72.2943 43.0787 72.6303 43.2787C72.9663 43.4707 73.3383 43.5667 73.7463 43.5667C74.1543 43.5667 74.5263 43.4707 74.8623 43.2787C75.2063 43.0787 75.4783 42.7947 75.6783 42.4267C75.8783 42.0507 75.9783 41.6147 75.9783 41.1187ZM90.6109 36.1147V44.4187H89.5189V38.2267L86.7589 44.4187H85.9909L83.2189 38.2147V44.4187H82.1269V36.1147H83.3029L86.3749 42.9787L89.4469 36.1147H90.6109ZM95.3308 44.5267C94.7148 44.5267 94.1548 44.3867 93.6508 44.1067C93.1548 43.8267 92.7628 43.4307 92.4748 42.9187C92.1948 42.3987 92.0548 41.7987 92.0548 41.1187C92.0548 40.4467 92.1988 39.8547 92.4868 39.3427C92.7828 38.8227 93.1828 38.4267 93.6868 38.1547C94.1908 37.8747 94.7548 37.7347 95.3788 37.7347C96.0028 37.7347 96.5668 37.8747 97.0708 38.1547C97.5748 38.4267 97.9708 38.8187 98.2588 39.3307C98.5548 39.8427 98.7028 40.4387 98.7028 41.1187C98.7028 41.7987 98.5508 42.3987 98.2468 42.9187C97.9508 43.4307 97.5468 43.8267 97.0348 44.1067C96.5228 44.3867 95.9548 44.5267 95.3308 44.5267ZM95.3308 43.5667C95.7228 43.5667 96.0908 43.4747 96.4348 43.2907C96.7788 43.1067 97.0548 42.8307 97.2628 42.4627C97.4788 42.0947 97.5868 41.6467 97.5868 41.1187C97.5868 40.5907 97.4828 40.1427 97.2748 39.7747C97.0668 39.4067 96.7948 39.1347 96.4588 38.9587C96.1228 38.7747 95.7588 38.6827 95.3668 38.6827C94.9668 38.6827 94.5988 38.7747 94.2628 38.9587C93.9348 39.1347 93.6708 39.4067 93.4708 39.7747C93.2708 40.1427 93.1708 40.5907 93.1708 41.1187C93.1708 41.6547 93.2668 42.1067 93.4588 42.4747C93.6588 42.8427 93.9228 43.1187 94.2508 43.3027C94.5788 43.4787 94.9388 43.5667 95.3308 43.5667ZM99.7306 41.1067C99.7306 40.4347 99.8666 39.8467 100.139 39.3427C100.411 38.8307 100.783 38.4347 101.255 38.1547C101.735 37.8747 102.271 37.7347 102.863 37.7347C103.375 37.7347 103.851 37.8547 104.291 38.0947C104.731 38.3267 105.067 38.6347 105.299 39.0187V35.5387H106.403V44.4187H105.299V43.1827C105.083 43.5747 104.763 43.8987 104.339 44.1547C103.915 44.4027 103.419 44.5267 102.851 44.5267C102.267 44.5267 101.735 44.3827 101.255 44.0947C100.783 43.8067 100.411 43.4027 100.139 42.8827C99.8666 42.3627 99.7306 41.7707 99.7306 41.1067ZM105.299 41.1187C105.299 40.6227 105.199 40.1907 104.999 39.8227C104.799 39.4547 104.527 39.1747 104.183 38.9827C103.847 38.7827 103.475 38.6827 103.067 38.6827C102.659 38.6827 102.287 38.7787 101.951 38.9707C101.615 39.1627 101.347 39.4427 101.147 39.8107C100.947 40.1787 100.847 40.6107 100.847 41.1067C100.847 41.6107 100.947 42.0507 101.147 42.4267C101.347 42.7947 101.615 43.0787 101.951 43.2787C102.287 43.4707 102.659 43.5667 103.067 43.5667C103.475 43.5667 103.847 43.4707 104.183 43.2787C104.527 43.0787 104.799 42.7947 104.999 42.4267C105.199 42.0507 105.299 41.6147 105.299 41.1187ZM114.248 40.8787C114.248 41.0867 114.236 41.3067 114.212 41.5387H108.956C108.996 42.1867 109.216 42.6947 109.616 43.0627C110.024 43.4227 110.516 43.6027 111.092 43.6027C111.564 43.6027 111.956 43.4947 112.268 43.2787C112.588 43.0547 112.812 42.7587 112.94 42.3907H114.116C113.94 43.0227 113.588 43.5387 113.06 43.9387C112.532 44.3307 111.876 44.5267 111.092 44.5267C110.468 44.5267 109.908 44.3867 109.412 44.1067C108.924 43.8267 108.54 43.4307 108.26 42.9187C107.98 42.3987 107.84 41.7987 107.84 41.1187C107.84 40.4387 107.976 39.8427 108.248 39.3307C108.52 38.8187 108.9 38.4267 109.388 38.1547C109.884 37.8747 110.452 37.7347 111.092 37.7347C111.716 37.7347 112.268 37.8707 112.748 38.1427C113.228 38.4147 113.596 38.7907 113.852 39.2707C114.116 39.7427 114.248 40.2787 114.248 40.8787ZM113.12 40.6507C113.12 40.2347 113.028 39.8787 112.844 39.5827C112.66 39.2787 112.408 39.0507 112.088 38.8987C111.776 38.7387 111.428 38.6587 111.044 38.6587C110.492 38.6587 110.02 38.8347 109.628 39.1867C109.244 39.5387 109.024 40.0267 108.968 40.6507H113.12ZM116.781 35.5387V44.4187H115.689V35.5387H116.781ZM121.638 37.9267C121.694 37.1907 121.978 36.6147 122.49 36.1987C123.002 35.7827 123.666 35.5747 124.482 35.5747C125.026 35.5747 125.494 35.6747 125.886 35.8747C126.286 36.0667 126.586 36.3307 126.786 36.6667C126.994 37.0027 127.098 37.3827 127.098 37.8067C127.098 38.3027 126.954 38.7307 126.666 39.0907C126.386 39.4507 126.018 39.6827 125.562 39.7867V39.8467C126.082 39.9747 126.494 40.2267 126.798 40.6027C127.102 40.9787 127.254 41.4707 127.254 42.0787C127.254 42.5347 127.15 42.9467 126.942 43.3147C126.734 43.6747 126.422 43.9587 126.006 44.1667C125.59 44.3747 125.09 44.4787 124.506 44.4787C123.658 44.4787 122.962 44.2587 122.418 43.8187C121.874 43.3707 121.57 42.7387 121.506 41.9227H122.562C122.618 42.4027 122.814 42.7947 123.15 43.0987C123.486 43.4027 123.934 43.5547 124.494 43.5547C125.054 43.5547 125.478 43.4107 125.766 43.1227C126.062 42.8267 126.21 42.4467 126.21 41.9827C126.21 41.3827 126.01 40.9507 125.61 40.6867C125.21 40.4227 124.606 40.2907 123.798 40.2907H123.522V39.3787H123.81C124.546 39.3707 125.102 39.2507 125.478 39.0187C125.854 38.7787 126.042 38.4107 126.042 37.9147C126.042 37.4907 125.902 37.1507 125.622 36.8947C125.35 36.6387 124.958 36.5107 124.446 36.5107C123.95 36.5107 123.55 36.6387 123.246 36.8947C122.942 37.1507 122.762 37.4947 122.706 37.9267H121.638ZM140.035 36.0547V36.9427H136.399V39.7627H139.351V40.6507H136.399V44.4187H135.307V36.0547H140.035ZM144.221 44.5267C143.605 44.5267 143.045 44.3867 142.541 44.1067C142.045 43.8267 141.653 43.4307 141.365 42.9187C141.085 42.3987 140.945 41.7987 140.945 41.1187C140.945 40.4467 141.089 39.8547 141.377 39.3427C141.673 38.8227 142.073 38.4267 142.577 38.1547C143.081 37.8747 143.645 37.7347 144.269 37.7347C144.893 37.7347 145.457 37.8747 145.961 38.1547C146.465 38.4267 146.861 38.8187 147.149 39.3307C147.445 39.8427 147.593 40.4387 147.593 41.1187C147.593 41.7987 147.441 42.3987 147.137 42.9187C146.841 43.4307 146.437 43.8267 145.925 44.1067C145.413 44.3867 144.845 44.5267 144.221 44.5267ZM144.221 43.5667C144.613 43.5667 144.981 43.4747 145.325 43.2907C145.669 43.1067 145.945 42.8307 146.153 42.4627C146.369 42.0947 146.477 41.6467 146.477 41.1187C146.477 40.5907 146.373 40.1427 146.165 39.7747C145.957 39.4067 145.685 39.1347 145.349 38.9587C145.013 38.7747 144.649 38.6827 144.257 38.6827C143.857 38.6827 143.489 38.7747 143.153 38.9587C142.825 39.1347 142.561 39.4067 142.361 39.7747C142.161 40.1427 142.061 40.5907 142.061 41.1187C142.061 41.6547 142.157 42.1067 142.349 42.4747C142.549 42.8427 142.813 43.1187 143.141 43.3027C143.469 43.4787 143.829 43.5667 144.221 43.5667ZM150.121 38.9107C150.313 38.5347 150.585 38.2427 150.937 38.0347C151.297 37.8267 151.733 37.7227 152.245 37.7227V38.8507H151.957C150.733 38.8507 150.121 39.5147 150.121 40.8427V44.4187H149.029V37.8427H150.121V38.9107ZM162.105 42.1267C162.105 42.5107 162.009 42.8787 161.817 43.2307C161.625 43.5747 161.341 43.8627 160.965 44.0947C160.597 44.3267 160.153 44.4587 159.633 44.4907V45.4627H158.985V44.4907C158.257 44.4267 157.665 44.1947 157.209 43.7947C156.753 43.3867 156.521 42.8707 156.513 42.2467H157.677C157.709 42.5827 157.833 42.8747 158.049 43.1227C158.273 43.3707 158.585 43.5267 158.985 43.5907V40.5907C158.449 40.4547 158.017 40.3147 157.689 40.1707C157.361 40.0267 157.081 39.8027 156.849 39.4987C156.617 39.1947 156.501 38.7867 156.501 38.2747C156.501 37.6267 156.725 37.0907 157.173 36.6667C157.629 36.2427 158.233 36.0067 158.985 35.9587V34.9627H159.633V35.9587C160.313 36.0147 160.861 36.2347 161.277 36.6187C161.693 36.9947 161.933 37.4867 161.997 38.0947H160.833C160.793 37.8147 160.669 37.5627 160.461 37.3387C160.253 37.1067 159.977 36.9547 159.633 36.8827V39.8107C160.161 39.9467 160.589 40.0867 160.917 40.2307C161.253 40.3667 161.533 40.5867 161.757 40.8907C161.989 41.1947 162.105 41.6067 162.105 42.1267ZM157.617 38.2147C157.617 38.6067 157.733 38.9067 157.965 39.1147C158.197 39.3227 158.537 39.4947 158.985 39.6307V36.8587C158.569 36.8987 158.237 37.0347 157.989 37.2667C157.741 37.4907 157.617 37.8067 157.617 38.2147ZM159.633 43.6027C160.065 43.5547 160.401 43.3987 160.641 43.1347C160.889 42.8707 161.013 42.5547 161.013 42.1867C161.013 41.7947 160.893 41.4947 160.653 41.2867C160.413 41.0707 160.073 40.8987 159.633 40.7707V43.6027ZM165.574 39.9067C165.126 39.7307 164.782 39.4747 164.542 39.1387C164.302 38.8027 164.182 38.3947 164.182 37.9147C164.182 37.4827 164.29 37.0947 164.506 36.7507C164.722 36.3987 165.042 36.1227 165.466 35.9227C165.898 35.7147 166.418 35.6107 167.026 35.6107C167.634 35.6107 168.15 35.7147 168.574 35.9227C169.006 36.1227 169.33 36.3987 169.546 36.7507C169.77 37.0947 169.882 37.4827 169.882 37.9147C169.882 38.3787 169.758 38.7867 169.51 39.1387C169.262 39.4827 168.922 39.7387 168.49 39.9067C168.986 40.0587 169.378 40.3267 169.666 40.7107C169.962 41.0867 170.11 41.5427 170.11 42.0787C170.11 42.5987 169.982 43.0547 169.726 43.4467C169.47 43.8307 169.106 44.1307 168.634 44.3467C168.17 44.5547 167.634 44.6587 167.026 44.6587C166.418 44.6587 165.882 44.5547 165.418 44.3467C164.962 44.1307 164.606 43.8307 164.35 43.4467C164.094 43.0547 163.966 42.5987 163.966 42.0787C163.966 41.5427 164.11 41.0827 164.398 40.6987C164.686 40.3147 165.078 40.0507 165.574 39.9067ZM168.826 38.0467C168.826 37.5587 168.666 37.1827 168.346 36.9187C168.026 36.6547 167.586 36.5227 167.026 36.5227C166.474 36.5227 166.038 36.6547 165.718 36.9187C165.398 37.1827 165.238 37.5627 165.238 38.0587C165.238 38.5067 165.402 38.8667 165.73 39.1387C166.066 39.4107 166.498 39.5467 167.026 39.5467C167.562 39.5467 167.994 39.4107 168.322 39.1387C168.658 38.8587 168.826 38.4947 168.826 38.0467ZM167.026 40.3867C166.434 40.3867 165.95 40.5267 165.574 40.8067C165.198 41.0787 165.01 41.4907 165.01 42.0427C165.01 42.5547 165.19 42.9667 165.55 43.2787C165.918 43.5907 166.41 43.7467 167.026 43.7467C167.642 43.7467 168.13 43.5907 168.49 43.2787C168.85 42.9667 169.03 42.5547 169.03 42.0427C169.03 41.5067 168.846 41.0987 168.478 40.8187C168.11 40.5307 167.626 40.3867 167.026 40.3867ZM177.092 36.6907H172.88V39.4267C173.064 39.1707 173.336 38.9627 173.696 38.8027C174.056 38.6347 174.444 38.5507 174.86 38.5507C175.524 38.5507 176.064 38.6907 176.48 38.9707C176.896 39.2427 177.192 39.5987 177.368 40.0387C177.552 40.4707 177.644 40.9307 177.644 41.4187C177.644 41.9947 177.536 42.5107 177.32 42.9667C177.104 43.4227 176.772 43.7827 176.324 44.0467C175.884 44.3107 175.336 44.4427 174.68 44.4427C173.84 44.4427 173.16 44.2267 172.64 43.7947C172.12 43.3627 171.804 42.7867 171.692 42.0667H172.76C172.864 42.5227 173.084 42.8787 173.42 43.1347C173.756 43.3907 174.18 43.5187 174.692 43.5187C175.324 43.5187 175.8 43.3307 176.12 42.9547C176.44 42.5707 176.6 42.0667 176.6 41.4427C176.6 40.8187 176.44 40.3387 176.12 40.0027C175.8 39.6587 175.328 39.4867 174.704 39.4867C174.28 39.4867 173.908 39.5907 173.588 39.7987C173.276 39.9987 173.048 40.2747 172.904 40.6267H171.872V35.7307H177.092V36.6907ZM180.403 42.9067L179.059 46.1347H178.327L179.203 42.9067H180.403ZM181.474 39.9907C181.474 38.6147 181.698 37.5427 182.146 36.7747C182.594 35.9987 183.378 35.6107 184.498 35.6107C185.61 35.6107 186.39 35.9987 186.838 36.7747C187.286 37.5427 187.51 38.6147 187.51 39.9907C187.51 41.3907 187.286 42.4787 186.838 43.2547C186.39 44.0307 185.61 44.4187 184.498 44.4187C183.378 44.4187 182.594 44.0307 182.146 43.2547C181.698 42.4787 181.474 41.3907 181.474 39.9907ZM186.43 39.9907C186.43 39.2947 186.382 38.7067 186.286 38.2267C186.198 37.7387 186.01 37.3467 185.722 37.0507C185.442 36.7547 185.034 36.6067 184.498 36.6067C183.954 36.6067 183.538 36.7547 183.25 37.0507C182.97 37.3467 182.782 37.7387 182.686 38.2267C182.598 38.7067 182.554 39.2947 182.554 39.9907C182.554 40.7107 182.598 41.3147 182.686 41.8027C182.782 42.2907 182.97 42.6827 183.25 42.9787C183.538 43.2747 183.954 43.4227 184.498 43.4227C185.034 43.4227 185.442 43.2747 185.722 42.9787C186.01 42.6827 186.198 42.2907 186.286 41.8027C186.382 41.3147 186.43 40.7107 186.43 39.9907ZM189.009 39.9907C189.009 38.6147 189.233 37.5427 189.681 36.7747C190.129 35.9987 190.913 35.6107 192.033 35.6107C193.145 35.6107 193.925 35.9987 194.373 36.7747C194.821 37.5427 195.045 38.6147 195.045 39.9907C195.045 41.3907 194.821 42.4787 194.373 43.2547C193.925 44.0307 193.145 44.4187 192.033 44.4187C190.913 44.4187 190.129 44.0307 189.681 43.2547C189.233 42.4787 189.009 41.3907 189.009 39.9907ZM193.965 39.9907C193.965 39.2947 193.917 38.7067 193.821 38.2267C193.733 37.7387 193.545 37.3467 193.257 37.0507C192.977 36.7547 192.569 36.6067 192.033 36.6067C191.489 36.6067 191.073 36.7547 190.785 37.0507C190.505 37.3467 190.317 37.7387 190.221 38.2267C190.133 38.7067 190.089 39.2947 190.089 39.9907C190.089 40.7107 190.133 41.3147 190.221 41.8027C190.317 42.2907 190.505 42.6827 190.785 42.9787C191.073 43.2747 191.489 43.4227 192.033 43.4227C192.569 43.4227 192.977 43.2747 193.257 42.9787C193.545 42.6827 193.733 42.2907 193.821 41.8027C193.917 41.3147 193.965 40.7107 193.965 39.9907ZM196.545 39.9907C196.545 38.6147 196.769 37.5427 197.217 36.7747C197.665 35.9987 198.449 35.6107 199.569 35.6107C200.681 35.6107 201.461 35.9987 201.909 36.7747C202.357 37.5427 202.581 38.6147 202.581 39.9907C202.581 41.3907 202.357 42.4787 201.909 43.2547C201.461 44.0307 200.681 44.4187 199.569 44.4187C198.449 44.4187 197.665 44.0307 197.217 43.2547C196.769 42.4787 196.545 41.3907 196.545 39.9907ZM201.501 39.9907C201.501 39.2947 201.453 38.7067 201.357 38.2267C201.269 37.7387 201.081 37.3467 200.793 37.0507C200.513 36.7547 200.105 36.6067 199.569 36.6067C199.025 36.6067 198.609 36.7547 198.321 37.0507C198.041 37.3467 197.853 37.7387 197.757 38.2267C197.669 38.7067 197.625 39.2947 197.625 39.9907C197.625 40.7107 197.669 41.3147 197.757 41.8027C197.853 42.2907 198.041 42.6827 198.321 42.9787C198.609 43.2747 199.025 43.4227 199.569 43.4227C200.105 43.4227 200.513 43.2747 200.793 42.9787C201.081 42.6827 201.269 42.2907 201.357 41.8027C201.453 41.3147 201.501 40.7107 201.501 39.9907Z" fill="#100E34"/>
</svg>
