<svg width="129" height="52" viewBox="0 0 129 52" fill="none" xmlns="http://www.w3.org/2000/svg">
<path d="M6.97575 20.5307C5.91975 20.5307 4.94909 20.2854 4.06375 19.7947C3.18909 19.304 2.49042 18.6214 1.96775 17.7467C1.45575 16.8614 1.19975 15.8694 1.19975 14.7707C1.19975 13.672 1.45575 12.6854 1.96775 11.8107C2.49042 10.936 3.18909 10.2534 4.06375 9.7627C4.94909 9.27203 5.91975 9.0267 6.97575 9.0267C8.03175 9.0267 8.99709 9.27203 9.87175 9.7627C10.7571 10.2534 11.4504 10.936 11.9518 11.8107C12.4638 12.6854 12.7198 13.672 12.7198 14.7707C12.7198 15.8694 12.4638 16.8614 11.9518 17.7467C11.4398 18.6214 10.7464 19.304 9.87175 19.7947C8.99709 20.2854 8.03175 20.5307 6.97575 20.5307ZM6.97575 18.0347C7.87175 18.0347 8.58642 17.736 9.11975 17.1387C9.66375 16.5414 9.93575 15.752 9.93575 14.7707C9.93575 13.7787 9.66375 12.9894 9.11975 12.4027C8.58642 11.8054 7.87175 11.5067 6.97575 11.5067C6.06909 11.5067 5.34375 11.8 4.79975 12.3867C4.26642 12.9734 3.99975 13.768 3.99975 14.7707C3.99975 15.7627 4.26642 16.5574 4.79975 17.1547C5.34375 17.7414 6.06909 18.0347 6.97575 18.0347ZM8.83175 6.9307L4.97575 8.5467V6.6587L8.83175 4.8027V6.9307ZM16.9779 12.9787C17.2979 12.488 17.6979 12.104 18.1779 11.8267C18.6579 11.5387 19.1912 11.3947 19.7779 11.3947V14.2907H19.0259C18.3432 14.2907 17.8312 14.44 17.4899 14.7387C17.1485 15.0267 16.9779 15.5387 16.9779 16.2747V20.4187H14.2419V11.4907H16.9779V12.9787ZM23.8216 8.5787V20.4187H21.0856V8.5787H23.8216ZM25.2604 15.9387C25.2604 15.0214 25.431 14.216 25.7724 13.5227C26.1244 12.8294 26.599 12.296 27.1964 11.9227C27.7937 11.5494 28.4604 11.3627 29.1964 11.3627C29.8257 11.3627 30.375 11.4907 30.8444 11.7467C31.3244 12.0027 31.6924 12.3387 31.9484 12.7547V11.4907H34.6844V20.4187H31.9484V19.1547C31.6817 19.5707 31.3084 19.9067 30.8284 20.1627C30.359 20.4187 29.8097 20.5467 29.1804 20.5467C28.455 20.5467 27.7937 20.36 27.1964 19.9867C26.599 19.6027 26.1244 19.064 25.7724 18.3707C25.431 17.6667 25.2604 16.856 25.2604 15.9387ZM31.9484 15.9547C31.9484 15.272 31.7564 14.7334 31.3724 14.3387C30.999 13.944 30.5404 13.7467 29.9964 13.7467C29.4524 13.7467 28.9884 13.944 28.6044 14.3387C28.231 14.7227 28.0444 15.256 28.0444 15.9387C28.0444 16.6214 28.231 17.1654 28.6044 17.5707C28.9884 17.9654 29.4524 18.1627 29.9964 18.1627C30.5404 18.1627 30.999 17.9654 31.3724 17.5707C31.7564 17.176 31.9484 16.6374 31.9484 15.9547ZM38.0398 10.5627C37.5598 10.5627 37.1651 10.424 36.8558 10.1467C36.5571 9.8587 36.4078 9.5067 36.4078 9.0907C36.4078 8.66403 36.5571 8.31203 36.8558 8.0347C37.1651 7.7467 37.5598 7.6027 38.0398 7.6027C38.5091 7.6027 38.8931 7.7467 39.1918 8.0347C39.5011 8.31203 39.6558 8.66403 39.6558 9.0907C39.6558 9.5067 39.5011 9.8587 39.1918 10.1467C38.8931 10.424 38.5091 10.5627 38.0398 10.5627ZM39.3998 11.4907V20.4187H36.6638V11.4907H39.3998ZM46.3585 18.0987V20.4187H44.9665C43.9745 20.4187 43.2012 20.1787 42.6465 19.6987C42.0918 19.208 41.8145 18.4134 41.8145 17.3147V13.7627H40.7265V11.4907H41.8145V9.3147H44.5505V11.4907H46.3425V13.7627H44.5505V17.3467C44.5505 17.6134 44.6145 17.8054 44.7425 17.9227C44.8705 18.04 45.0838 18.0987 45.3825 18.0987H46.3585ZM53.3705 11.3947C54.3945 11.3947 55.2158 11.736 55.8345 12.4187C56.4532 13.0907 56.7625 14.0187 56.7625 15.2027V20.4187H54.0425V15.5707C54.0425 14.9734 53.8878 14.5094 53.5785 14.1787C53.2692 13.848 52.8532 13.6827 52.3305 13.6827C51.8078 13.6827 51.3918 13.848 51.0825 14.1787C50.7732 14.5094 50.6185 14.9734 50.6185 15.5707V20.4187H47.8825V8.5787H50.6185V12.6907C50.8958 12.296 51.2745 11.9814 51.7545 11.7467C52.2345 11.512 52.7732 11.3947 53.3705 11.3947ZM70.6144 12.8027C70.6144 13.4534 70.465 14.0507 70.1664 14.5947C69.8677 15.128 69.409 15.56 68.7904 15.8907C68.1717 16.2214 67.4037 16.3867 66.4864 16.3867H64.7904V20.4187H62.0544V9.1867H66.4864C67.3824 9.1867 68.1397 9.34137 68.7584 9.6507C69.377 9.96003 69.841 10.3867 70.1504 10.9307C70.4597 11.4747 70.6144 12.0987 70.6144 12.8027ZM66.2784 14.2107C66.801 14.2107 67.1904 14.088 67.4464 13.8427C67.7024 13.5974 67.8304 13.2507 67.8304 12.8027C67.8304 12.3547 67.7024 12.008 67.4464 11.7627C67.1904 11.5174 66.801 11.3947 66.2784 11.3947H64.7904V14.2107H66.2784ZM71.4948 15.9387C71.4948 15.0214 71.6654 14.216 72.0068 13.5227C72.3588 12.8294 72.8334 12.296 73.4308 11.9227C74.0281 11.5494 74.6948 11.3627 75.4308 11.3627C76.0601 11.3627 76.6094 11.4907 77.0788 11.7467C77.5588 12.0027 77.9268 12.3387 78.1828 12.7547V11.4907H80.9188V20.4187H78.1828V19.1547C77.9161 19.5707 77.5428 19.9067 77.0628 20.1627C76.5934 20.4187 76.0441 20.5467 75.4148 20.5467C74.6894 20.5467 74.0281 20.36 73.4308 19.9867C72.8334 19.6027 72.3588 19.064 72.0068 18.3707C71.6654 17.6667 71.4948 16.856 71.4948 15.9387ZM78.1828 15.9547C78.1828 15.272 77.9908 14.7334 77.6068 14.3387C77.2334 13.944 76.7748 13.7467 76.2308 13.7467C75.6868 13.7467 75.2228 13.944 74.8388 14.3387C74.4654 14.7227 74.2788 15.256 74.2788 15.9387C74.2788 16.6214 74.4654 17.1654 74.8388 17.5707C75.2228 17.9654 75.6868 18.1627 76.2308 18.1627C76.7748 18.1627 77.2334 17.9654 77.6068 17.5707C77.9908 17.176 78.1828 16.6374 78.1828 15.9547ZM85.6341 12.9787C85.9541 12.488 86.3541 12.104 86.8341 11.8267C87.3141 11.5387 87.8475 11.3947 88.4341 11.3947V14.2907H87.6821C86.9995 14.2907 86.4875 14.44 86.1461 14.7387C85.8048 15.0267 85.6341 15.5387 85.6341 16.2747V20.4187H82.8981V11.4907H85.6341V12.9787ZM89.1979 15.9387C89.1979 15.0214 89.3685 14.216 89.7099 13.5227C90.0619 12.8294 90.5365 12.296 91.1339 11.9227C91.7312 11.5494 92.3979 11.3627 93.1339 11.3627C93.7632 11.3627 94.3125 11.4907 94.7819 11.7467C95.2619 12.0027 95.6299 12.3387 95.8859 12.7547V11.4907H98.6219V20.4187H95.8859V19.1547C95.6192 19.5707 95.2459 19.9067 94.7659 20.1627C94.2965 20.4187 93.7472 20.5467 93.1179 20.5467C92.3925 20.5467 91.7312 20.36 91.1339 19.9867C90.5365 19.6027 90.0619 19.064 89.7099 18.3707C89.3685 17.6667 89.1979 16.856 89.1979 15.9387ZM95.8859 15.9547C95.8859 15.272 95.6939 14.7334 95.3099 14.3387C94.9365 13.944 94.4779 13.7467 93.9339 13.7467C93.3899 13.7467 92.9259 13.944 92.5419 14.3387C92.1685 14.7227 91.9819 15.256 91.9819 15.9387C91.9819 16.6214 92.1685 17.1654 92.5419 17.5707C92.9259 17.9654 93.3899 18.1627 93.9339 18.1627C94.4779 18.1627 94.9365 17.9654 95.3099 17.5707C95.6939 17.176 95.8859 16.6374 95.8859 15.9547ZM104.233 20.5467C103.455 20.5467 102.761 20.4134 102.153 20.1467C101.545 19.88 101.065 19.5174 100.713 19.0587C100.361 18.5894 100.164 18.0667 100.121 17.4907H102.825C102.857 17.8 103.001 18.0507 103.257 18.2427C103.513 18.4347 103.828 18.5307 104.201 18.5307C104.543 18.5307 104.804 18.4667 104.985 18.3387C105.177 18.2 105.273 18.024 105.273 17.8107C105.273 17.5547 105.14 17.368 104.873 17.2507C104.607 17.1227 104.175 16.984 103.577 16.8347C102.937 16.6854 102.404 16.5307 101.977 16.3707C101.551 16.2 101.183 15.9387 100.873 15.5867C100.564 15.224 100.409 14.7387 100.409 14.1307C100.409 13.6187 100.548 13.1547 100.825 12.7387C101.113 12.312 101.529 11.976 102.073 11.7307C102.628 11.4854 103.284 11.3627 104.041 11.3627C105.161 11.3627 106.041 11.64 106.681 12.1947C107.332 12.7494 107.705 13.4854 107.801 14.4027H105.273C105.231 14.0934 105.092 13.848 104.857 13.6667C104.633 13.4854 104.335 13.3947 103.961 13.3947C103.641 13.3947 103.396 13.4587 103.225 13.5867C103.055 13.704 102.969 13.8694 102.969 14.0827C102.969 14.3387 103.103 14.5307 103.369 14.6587C103.647 14.7867 104.073 14.9147 104.649 15.0427C105.311 15.2134 105.849 15.384 106.265 15.5547C106.681 15.7147 107.044 15.9814 107.353 16.3547C107.673 16.7174 107.839 17.208 107.849 17.8267C107.849 18.3494 107.7 18.8187 107.401 19.2347C107.113 19.64 106.692 19.96 106.137 20.1947C105.593 20.4294 104.959 20.5467 104.233 20.5467ZM114.499 18.0987V20.4187H113.107C112.115 20.4187 111.342 20.1787 110.787 19.6987C110.232 19.208 109.955 18.4134 109.955 17.3147V13.7627H108.867V11.4907H109.955V9.3147H112.691V11.4907H114.483V13.7627H112.691V17.3467C112.691 17.6134 112.755 17.8054 112.883 17.9227C113.011 18.04 113.224 18.0987 113.523 18.0987H114.499ZM124.839 11.4907V20.4187H122.103V19.2027C121.826 19.5974 121.447 19.9174 120.967 20.1627C120.498 20.3974 119.975 20.5147 119.399 20.5147C118.716 20.5147 118.114 20.3654 117.591 20.0667C117.068 19.7574 116.663 19.3147 116.375 18.7387C116.087 18.1627 115.943 17.4854 115.943 16.7067V11.4907H118.663V16.3387C118.663 16.936 118.818 17.4 119.127 17.7307C119.436 18.0614 119.852 18.2267 120.375 18.2267C120.908 18.2267 121.33 18.0614 121.639 17.7307C121.948 17.4 122.103 16.936 122.103 16.3387V11.4907H124.839Z" fill="#100E34"/>
<path d="M5.78375 40.1107C6.08775 40.1587 6.36375 40.2827 6.61175 40.4827C6.86775 40.6827 7.06775 40.9307 7.21175 41.2267C7.36375 41.5227 7.43975 41.8387 7.43975 42.1747C7.43975 42.5987 7.33175 42.9827 7.11575 43.3267C6.89975 43.6627 6.58375 43.9307 6.16775 44.1307C5.75975 44.3227 5.27575 44.4187 4.71575 44.4187H1.59575V36.0547H4.59575C5.16375 36.0547 5.64775 36.1507 6.04775 36.3427C6.44775 36.5267 6.74775 36.7787 6.94775 37.0987C7.14775 37.4187 7.24775 37.7787 7.24775 38.1787C7.24775 38.6747 7.11175 39.0867 6.83975 39.4147C6.57575 39.7347 6.22375 39.9667 5.78375 40.1107ZM2.68775 39.6667H4.52375C5.03575 39.6667 5.43175 39.5467 5.71175 39.3067C5.99175 39.0667 6.13175 38.7347 6.13175 38.3107C6.13175 37.8867 5.99175 37.5547 5.71175 37.3147C5.43175 37.0747 5.02775 36.9547 4.49975 36.9547H2.68775V39.6667ZM4.61975 43.5187C5.16375 43.5187 5.58775 43.3907 5.89175 43.1347C6.19575 42.8787 6.34775 42.5227 6.34775 42.0667C6.34775 41.6027 6.18775 41.2387 5.86775 40.9747C5.54775 40.7027 5.11975 40.5667 4.58375 40.5667H2.68775V43.5187H4.61975ZM11.8231 44.5267C11.2071 44.5267 10.6471 44.3867 10.1431 44.1067C9.64713 43.8267 9.25513 43.4307 8.96713 42.9187C8.68713 42.3987 8.54713 41.7987 8.54713 41.1187C8.54713 40.4467 8.69113 39.8547 8.97913 39.3427C9.27513 38.8227 9.67513 38.4267 10.1791 38.1547C10.6831 37.8747 11.2471 37.7347 11.8711 37.7347C12.4951 37.7347 13.0591 37.8747 13.5631 38.1547C14.0671 38.4267 14.4631 38.8187 14.7511 39.3307C15.0471 39.8427 15.1951 40.4387 15.1951 41.1187C15.1951 41.7987 15.0431 42.3987 14.7391 42.9187C14.4431 43.4307 14.0391 43.8267 13.5271 44.1067C13.0151 44.3867 12.4471 44.5267 11.8231 44.5267ZM11.8231 43.5667C12.2151 43.5667 12.5831 43.4747 12.9271 43.2907C13.2711 43.1067 13.5471 42.8307 13.7551 42.4627C13.9711 42.0947 14.0791 41.6467 14.0791 41.1187C14.0791 40.5907 13.9751 40.1427 13.7671 39.7747C13.5591 39.4067 13.2871 39.1347 12.9511 38.9587C12.6151 38.7747 12.2511 38.6827 11.8591 38.6827C11.4591 38.6827 11.0911 38.7747 10.7551 38.9587C10.4271 39.1347 10.1631 39.4067 9.96313 39.7747C9.76313 40.1427 9.66313 40.5907 9.66313 41.1187C9.66313 41.6547 9.75913 42.1067 9.95113 42.4747C10.1511 42.8427 10.4151 43.1187 10.7431 43.3027C11.0711 43.4787 11.4311 43.5667 11.8231 43.5667ZM22.4629 37.8427V44.4187H21.3709V43.4467C21.1629 43.7827 20.8709 44.0467 20.4949 44.2387C20.1269 44.4227 19.7189 44.5147 19.2709 44.5147C18.7589 44.5147 18.2989 44.4107 17.8909 44.2027C17.4829 43.9867 17.1589 43.6667 16.9189 43.2427C16.6869 42.8187 16.5709 42.3027 16.5709 41.6947V37.8427H17.6509V41.5507C17.6509 42.1987 17.8149 42.6987 18.1429 43.0507C18.4709 43.3947 18.9189 43.5667 19.4869 43.5667C20.0709 43.5667 20.5309 43.3867 20.8669 43.0267C21.2029 42.6667 21.3709 42.1427 21.3709 41.4547V37.8427H22.4629ZM27.0187 37.7347C27.5867 37.7347 28.0827 37.8587 28.5067 38.1067C28.9387 38.3547 29.2587 38.6667 29.4667 39.0427V37.8427H30.5707V44.5627C30.5707 45.1627 30.4427 45.6947 30.1867 46.1587C29.9307 46.6307 29.5627 46.9987 29.0827 47.2627C28.6107 47.5267 28.0587 47.6587 27.4267 47.6587C26.5627 47.6587 25.8427 47.4547 25.2667 47.0467C24.6907 46.6387 24.3507 46.0827 24.2467 45.3787H25.3267C25.4467 45.7787 25.6947 46.0987 26.0707 46.3387C26.4467 46.5867 26.8987 46.7107 27.4267 46.7107C28.0267 46.7107 28.5147 46.5227 28.8907 46.1467C29.2747 45.7707 29.4667 45.2427 29.4667 44.5627V43.1827C29.2507 43.5667 28.9307 43.8867 28.5067 44.1427C28.0827 44.3987 27.5867 44.5267 27.0187 44.5267C26.4347 44.5267 25.9027 44.3827 25.4227 44.0947C24.9507 43.8067 24.5787 43.4027 24.3067 42.8827C24.0347 42.3627 23.8987 41.7707 23.8987 41.1067C23.8987 40.4347 24.0347 39.8467 24.3067 39.3427C24.5787 38.8307 24.9507 38.4347 25.4227 38.1547C25.9027 37.8747 26.4347 37.7347 27.0187 37.7347ZM29.4667 41.1187C29.4667 40.6227 29.3667 40.1907 29.1667 39.8227C28.9667 39.4547 28.6947 39.1747 28.3507 38.9827C28.0147 38.7827 27.6427 38.6827 27.2347 38.6827C26.8267 38.6827 26.4547 38.7787 26.1187 38.9707C25.7827 39.1627 25.5147 39.4427 25.3147 39.8107C25.1147 40.1787 25.0147 40.6107 25.0147 41.1067C25.0147 41.6107 25.1147 42.0507 25.3147 42.4267C25.5147 42.7947 25.7827 43.0787 26.1187 43.2787C26.4547 43.4707 26.8267 43.5667 27.2347 43.5667C27.6427 43.5667 28.0147 43.4707 28.3507 43.2787C28.6947 43.0787 28.9667 42.7947 29.1667 42.4267C29.3667 42.0507 29.4667 41.6147 29.4667 41.1187ZM35.6801 37.7227C36.1761 37.7227 36.6241 37.8307 37.0241 38.0467C37.4241 38.2547 37.7361 38.5707 37.9601 38.9947C38.1921 39.4187 38.3081 39.9347 38.3081 40.5427V44.4187H37.2281V40.6987C37.2281 40.0427 37.0641 39.5427 36.7361 39.1987C36.4081 38.8467 35.9601 38.6707 35.3921 38.6707C34.8161 38.6707 34.3561 38.8507 34.0121 39.2107C33.6761 39.5707 33.5081 40.0947 33.5081 40.7827V44.4187H32.4161V35.5387H33.5081V38.7787C33.7241 38.4427 34.0201 38.1827 34.3961 37.9987C34.7801 37.8147 35.2081 37.7227 35.6801 37.7227ZM41.4238 38.7427V42.6187C41.4238 42.9387 41.4918 43.1667 41.6278 43.3027C41.7638 43.4307 41.9998 43.4947 42.3358 43.4947H43.1398V44.4187H42.1558C41.5478 44.4187 41.0918 44.2787 40.7878 43.9987C40.4838 43.7187 40.3318 43.2587 40.3318 42.6187V38.7427H39.4798V37.8427H40.3318V36.1867H41.4238V37.8427H43.1398V38.7427H41.4238ZM52.8102 36.0547V36.9427H50.5302V44.4187H49.4382V36.9427H47.1462V36.0547H52.8102ZM60.1543 40.8787C60.1543 41.0867 60.1423 41.3067 60.1183 41.5387H54.8623C54.9023 42.1867 55.1223 42.6947 55.5223 43.0627C55.9303 43.4227 56.4223 43.6027 56.9983 43.6027C57.4703 43.6027 57.8623 43.4947 58.1743 43.2787C58.4943 43.0547 58.7183 42.7587 58.8463 42.3907H60.0223C59.8463 43.0227 59.4943 43.5387 58.9663 43.9387C58.4383 44.3307 57.7823 44.5267 56.9983 44.5267C56.3743 44.5267 55.8143 44.3867 55.3183 44.1067C54.8303 43.8267 54.4463 43.4307 54.1663 42.9187C53.8863 42.3987 53.7463 41.7987 53.7463 41.1187C53.7463 40.4387 53.8823 39.8427 54.1543 39.3307C54.4263 38.8187 54.8063 38.4267 55.2943 38.1547C55.7903 37.8747 56.3583 37.7347 56.9983 37.7347C57.6223 37.7347 58.1743 37.8707 58.6543 38.1427C59.1343 38.4147 59.5023 38.7907 59.7583 39.2707C60.0223 39.7427 60.1543 40.2787 60.1543 40.8787ZM59.0263 40.6507C59.0263 40.2347 58.9343 39.8787 58.7503 39.5827C58.5663 39.2787 58.3143 39.0507 57.9943 38.8987C57.6823 38.7387 57.3343 38.6587 56.9503 38.6587C56.3983 38.6587 55.9263 38.8347 55.5343 39.1867C55.1503 39.5387 54.9303 40.0267 54.8743 40.6507H59.0263ZM63.9238 44.5267C63.4198 44.5267 62.9678 44.4427 62.5678 44.2747C62.1678 44.0987 61.8518 43.8587 61.6198 43.5547C61.3878 43.2427 61.2598 42.8867 61.2358 42.4867H62.3638C62.3958 42.8147 62.5478 43.0827 62.8198 43.2907C63.0998 43.4987 63.4638 43.6027 63.9118 43.6027C64.3278 43.6027 64.6558 43.5107 64.8958 43.3267C65.1358 43.1427 65.2558 42.9107 65.2558 42.6307C65.2558 42.3427 65.1278 42.1307 64.8718 41.9947C64.6158 41.8507 64.2198 41.7107 63.6838 41.5747C63.1958 41.4467 62.7958 41.3187 62.4838 41.1907C62.1798 41.0547 61.9158 40.8587 61.6918 40.6027C61.4758 40.3387 61.3678 39.9947 61.3678 39.5707C61.3678 39.2347 61.4678 38.9267 61.6678 38.6467C61.8678 38.3667 62.1518 38.1467 62.5198 37.9867C62.8878 37.8187 63.3078 37.7347 63.7798 37.7347C64.5078 37.7347 65.0958 37.9187 65.5438 38.2867C65.9918 38.6547 66.2318 39.1587 66.2638 39.7987H65.1718C65.1478 39.4547 65.0078 39.1787 64.7518 38.9707C64.5038 38.7627 64.1678 38.6587 63.7438 38.6587C63.3518 38.6587 63.0398 38.7427 62.8078 38.9107C62.5758 39.0787 62.4598 39.2987 62.4598 39.5707C62.4598 39.7867 62.5278 39.9667 62.6638 40.1107C62.8078 40.2467 62.9838 40.3587 63.1918 40.4467C63.4078 40.5267 63.7038 40.6187 64.0798 40.7227C64.5518 40.8507 64.9358 40.9787 65.2318 41.1067C65.5278 41.2267 65.7798 41.4107 65.9878 41.6587C66.2038 41.9067 66.3158 42.2307 66.3238 42.6307C66.3238 42.9907 66.2238 43.3147 66.0238 43.6027C65.8238 43.8907 65.5398 44.1187 65.1718 44.2867C64.8118 44.4467 64.3958 44.5267 63.9238 44.5267ZM68.9573 35.5387V44.4187H67.8653V35.5387H68.9573ZM70.4104 41.1067C70.4104 40.4347 70.5464 39.8467 70.8184 39.3427C71.0904 38.8307 71.4624 38.4347 71.9344 38.1547C72.4144 37.8747 72.9464 37.7347 73.5304 37.7347C74.1064 37.7347 74.6064 37.8587 75.0304 38.1067C75.4544 38.3547 75.7704 38.6667 75.9784 39.0427V37.8427H77.0824V44.4187H75.9784V43.1947C75.7624 43.5787 75.4384 43.8987 75.0064 44.1547C74.5824 44.4027 74.0864 44.5267 73.5184 44.5267C72.9344 44.5267 72.4064 44.3827 71.9344 44.0947C71.4624 43.8067 71.0904 43.4027 70.8184 42.8827C70.5464 42.3627 70.4104 41.7707 70.4104 41.1067ZM75.9784 41.1187C75.9784 40.6227 75.8784 40.1907 75.6784 39.8227C75.4784 39.4547 75.2064 39.1747 74.8624 38.9827C74.5264 38.7827 74.1544 38.6827 73.7464 38.6827C73.3384 38.6827 72.9664 38.7787 72.6304 38.9707C72.2944 39.1627 72.0264 39.4427 71.8264 39.8107C71.6264 40.1787 71.5264 40.6107 71.5264 41.1067C71.5264 41.6107 71.6264 42.0507 71.8264 42.4267C72.0264 42.7947 72.2944 43.0787 72.6304 43.2787C72.9664 43.4707 73.3384 43.5667 73.7464 43.5667C74.1544 43.5667 74.5264 43.4707 74.8624 43.2787C75.2064 43.0787 75.4784 42.7947 75.6784 42.4267C75.8784 42.0507 75.9784 41.6147 75.9784 41.1187ZM90.611 36.1147V44.4187H89.519V38.2267L86.759 44.4187H85.991L83.219 38.2147V44.4187H82.127V36.1147H83.303L86.375 42.9787L89.447 36.1147H90.611ZM95.3309 44.5267C94.7149 44.5267 94.1549 44.3867 93.6509 44.1067C93.1549 43.8267 92.7629 43.4307 92.4749 42.9187C92.1949 42.3987 92.0549 41.7987 92.0549 41.1187C92.0549 40.4467 92.1989 39.8547 92.4869 39.3427C92.7829 38.8227 93.1829 38.4267 93.6869 38.1547C94.1909 37.8747 94.7549 37.7347 95.3789 37.7347C96.0029 37.7347 96.5669 37.8747 97.0709 38.1547C97.5749 38.4267 97.9709 38.8187 98.2589 39.3307C98.5549 39.8427 98.7029 40.4387 98.7029 41.1187C98.7029 41.7987 98.5509 42.3987 98.2469 42.9187C97.9509 43.4307 97.5469 43.8267 97.0349 44.1067C96.5229 44.3867 95.9549 44.5267 95.3309 44.5267ZM95.3309 43.5667C95.7229 43.5667 96.0909 43.4747 96.4349 43.2907C96.7789 43.1067 97.0549 42.8307 97.2629 42.4627C97.4789 42.0947 97.5869 41.6467 97.5869 41.1187C97.5869 40.5907 97.4829 40.1427 97.2749 39.7747C97.0669 39.4067 96.7949 39.1347 96.4589 38.9587C96.1229 38.7747 95.7589 38.6827 95.3669 38.6827C94.9669 38.6827 94.5989 38.7747 94.2629 38.9587C93.9349 39.1347 93.6709 39.4067 93.4709 39.7747C93.2709 40.1427 93.1709 40.5907 93.1709 41.1187C93.1709 41.6547 93.2669 42.1067 93.4589 42.4747C93.6589 42.8427 93.9229 43.1187 94.2509 43.3027C94.5789 43.4787 94.9389 43.5667 95.3309 43.5667ZM99.7307 41.1067C99.7307 40.4347 99.8667 39.8467 100.139 39.3427C100.411 38.8307 100.783 38.4347 101.255 38.1547C101.735 37.8747 102.271 37.7347 102.863 37.7347C103.375 37.7347 103.851 37.8547 104.291 38.0947C104.731 38.3267 105.067 38.6347 105.299 39.0187V35.5387H106.403V44.4187H105.299V43.1827C105.083 43.5747 104.763 43.8987 104.339 44.1547C103.915 44.4027 103.419 44.5267 102.851 44.5267C102.267 44.5267 101.735 44.3827 101.255 44.0947C100.783 43.8067 100.411 43.4027 100.139 42.8827C99.8667 42.3627 99.7307 41.7707 99.7307 41.1067ZM105.299 41.1187C105.299 40.6227 105.199 40.1907 104.999 39.8227C104.799 39.4547 104.527 39.1747 104.183 38.9827C103.847 38.7827 103.475 38.6827 103.067 38.6827C102.659 38.6827 102.287 38.7787 101.951 38.9707C101.615 39.1627 101.347 39.4427 101.147 39.8107C100.947 40.1787 100.847 40.6107 100.847 41.1067C100.847 41.6107 100.947 42.0507 101.147 42.4267C101.347 42.7947 101.615 43.0787 101.951 43.2787C102.287 43.4707 102.659 43.5667 103.067 43.5667C103.475 43.5667 103.847 43.4707 104.183 43.2787C104.527 43.0787 104.799 42.7947 104.999 42.4267C105.199 42.0507 105.299 41.6147 105.299 41.1187ZM114.248 40.8787C114.248 41.0867 114.236 41.3067 114.212 41.5387H108.956C108.996 42.1867 109.216 42.6947 109.616 43.0627C110.024 43.4227 110.516 43.6027 111.092 43.6027C111.564 43.6027 111.956 43.4947 112.268 43.2787C112.588 43.0547 112.812 42.7587 112.94 42.3907H114.116C113.94 43.0227 113.588 43.5387 113.06 43.9387C112.532 44.3307 111.876 44.5267 111.092 44.5267C110.468 44.5267 109.908 44.3867 109.412 44.1067C108.924 43.8267 108.54 43.4307 108.26 42.9187C107.98 42.3987 107.84 41.7987 107.84 41.1187C107.84 40.4387 107.976 39.8427 108.248 39.3307C108.52 38.8187 108.9 38.4267 109.388 38.1547C109.884 37.8747 110.452 37.7347 111.092 37.7347C111.716 37.7347 112.268 37.8707 112.748 38.1427C113.228 38.4147 113.596 38.7907 113.852 39.2707C114.116 39.7427 114.248 40.2787 114.248 40.8787ZM113.12 40.6507C113.12 40.2347 113.028 39.8787 112.844 39.5827C112.66 39.2787 112.408 39.0507 112.088 38.8987C111.776 38.7387 111.428 38.6587 111.044 38.6587C110.492 38.6587 110.02 38.8347 109.628 39.1867C109.244 39.5387 109.024 40.0267 108.968 40.6507H113.12ZM116.782 35.5387V44.4187H115.69V35.5387H116.782ZM121.638 37.9267C121.694 37.1907 121.978 36.6147 122.49 36.1987C123.002 35.7827 123.666 35.5747 124.482 35.5747C125.026 35.5747 125.494 35.6747 125.886 35.8747C126.286 36.0667 126.586 36.3307 126.786 36.6667C126.994 37.0027 127.098 37.3827 127.098 37.8067C127.098 38.3027 126.954 38.7307 126.666 39.0907C126.386 39.4507 126.018 39.6827 125.562 39.7867V39.8467C126.082 39.9747 126.494 40.2267 126.798 40.6027C127.102 40.9787 127.254 41.4707 127.254 42.0787C127.254 42.5347 127.15 42.9467 126.942 43.3147C126.734 43.6747 126.422 43.9587 126.006 44.1667C125.59 44.3747 125.09 44.4787 124.506 44.4787C123.658 44.4787 122.962 44.2587 122.418 43.8187C121.874 43.3707 121.57 42.7387 121.506 41.9227H122.562C122.618 42.4027 122.814 42.7947 123.15 43.0987C123.486 43.4027 123.934 43.5547 124.494 43.5547C125.054 43.5547 125.478 43.4107 125.766 43.1227C126.062 42.8267 126.21 42.4467 126.21 41.9827C126.21 41.3827 126.01 40.9507 125.61 40.6867C125.21 40.4227 124.606 40.2907 123.798 40.2907H123.522V39.3787H123.81C124.546 39.3707 125.102 39.2507 125.478 39.0187C125.854 38.7787 126.042 38.4107 126.042 37.9147C126.042 37.4907 125.902 37.1507 125.622 36.8947C125.35 36.6387 124.958 36.5107 124.446 36.5107C123.95 36.5107 123.55 36.6387 123.246 36.8947C122.942 37.1507 122.762 37.4947 122.706 37.9267H121.638Z" fill="#100E34"/>
</svg>
