<svg width="131" height="130" viewBox="0 0 131 130" fill="none" xmlns="http://www.w3.org/2000/svg">
<path fill-rule="evenodd" clip-rule="evenodd" d="M96.0083 13.4466C96.0184 12.8851 96.03 12.3252 96.0401 11.7637L65.3797 5.97955L34.8362 11.6767C34.8429 12.1939 34.8512 12.7488 34.8596 13.3382C34.9898 13.3152 64.4545 7.89392 65.3797 7.83318C65.5918 7.82004 94.6656 13.197 96.0083 13.4466Z" fill="#D3D5E0"/>
<path fill-rule="evenodd" clip-rule="evenodd" d="M65.625 88.5224L67.2133 87.4749C67.8412 87.0611 68.4658 86.6425 69.0854 86.2189C71.6389 84.4736 73.9719 82.6873 76.2499 80.6055C77.4423 79.5169 78.5829 78.3759 79.6718 77.1872C82.713 73.8658 85.3049 70.2045 87.506 66.297C88.316 64.8604 89.0742 63.3975 89.7789 61.9083C90.0578 61.3189 90.3267 60.7262 90.5856 60.1286C91.4941 57.9745 92.2924 55.7564 92.9787 53.5088C93.1875 52.8077 93.3829 52.1034 93.5666 51.3974C93.929 50.0067 94.2463 48.6063 94.5219 47.1976C94.754 46.0056 94.9578 44.812 95.1314 43.6184C95.9481 38.6355 95.9481 31.8678 95.903 22.5636C95.903 21.7936 95.908 21.0236 95.9147 20.2519C95.9147 20.2388 95.9147 20.2256 95.9147 20.2125L94.3081 19.5098C75.2061 11.1529 55.3576 11.1808 36.2389 19.5935L34.9563 20.1583C35.0097 23.8311 35.0682 27.6385 35.12 30.5741L35.1567 32.6231C35.1717 33.4932 35.1918 34.3618 35.2135 35.2319C35.2302 35.8575 35.2519 36.4847 35.2786 37.1102C35.2953 37.5272 35.3154 37.9426 35.3371 38.3596C35.3671 38.949 35.4055 39.5385 35.4523 40.1279C35.4723 40.3873 35.4957 40.6467 35.5241 40.9061C35.621 42.0931 35.7629 43.2769 35.95 44.4541C36.1537 45.7429 36.4026 47.0252 36.6948 48.2992C37.59 52.2117 38.8592 56.1045 40.4007 59.815C42.1091 63.9278 44.3503 68.254 46.9856 71.8595C47.5 72.5638 48.0278 73.2599 48.5655 73.9462C50.4794 76.3893 52.5419 78.6911 54.8365 80.7976C55.5647 81.4658 56.3129 82.1127 57.0811 82.7349C57.9395 83.4311 58.8196 84.1009 59.7198 84.7445C60.6233 85.3881 61.5384 86.0153 62.467 86.6228C62.9546 86.9429 63.4423 87.2598 63.9333 87.575C64.4577 87.9133 64.9837 88.2498 65.5098 88.5864C65.5415 88.5683 65.5816 88.5453 65.6267 88.5191L65.625 88.5224Z" fill="#D3D5E0"/>
<path fill-rule="evenodd" clip-rule="evenodd" d="M75.8256 72.1255H76.3617C76.3918 72.1255 76.3984 72.1255 76.4268 72.1173C76.704 72.0483 76.7475 72.0549 76.9262 71.8956C77.175 71.6756 77.5407 71.3358 77.4606 71.1847C77.3286 70.9352 77.2067 71.2405 76.8911 71.3949C76.8493 71.4162 76.8093 71.4211 76.7458 71.4228C76.5254 71.431 76.001 71.4047 76.001 71.4047C76.001 71.4047 76.1513 70.9417 76.2782 70.6051C76.5437 69.9008 76.8544 69.5018 77.3136 68.8467C77.3303 68.8221 77.3353 68.8205 77.3654 68.8172C79.134 68.6415 79.7185 68.6514 81.2683 67.9667C81.5772 67.8305 81.948 67.6548 81.948 67.6548L81.9012 67.4299C81.9012 67.4299 81.1681 67.6187 80.6253 67.7385C79.5916 67.9651 78.4008 68.0423 77.4155 67.9536C75.0457 67.7402 74.8486 67.3133 73.2287 67.7237C72.5373 67.8994 71.8091 68.2541 71.4785 68.8944C71.2664 69.3065 71.248 69.7957 71.5519 70.198C71.7624 70.4771 72.22 70.5362 72.5289 70.4639C72.9531 70.3638 73.3857 70.1454 73.551 69.8187C73.6011 69.7186 73.7063 69.4214 73.6679 69.359C73.6078 69.2638 73.4942 69.4197 73.3907 69.5166C73.0216 69.863 72.4772 69.8712 72.2233 69.5396C71.8843 69.0979 72.3486 68.6826 72.8062 68.4987C73.3456 68.282 73.8032 68.3164 74.4261 68.4264C75.1309 68.5529 76.2966 68.8188 76.2966 68.8188C76.2966 68.8188 75.6887 69.4772 75.4331 69.8745C75.0925 70.4048 74.7217 71.3374 74.6382 71.3801C74.5514 71.4244 74.4445 71.4211 74.2808 71.4655C73.8717 71.5788 73.6228 71.8086 73.4341 72.1189C73.4057 72.1649 73.3907 72.2158 73.4191 72.2535C73.4541 72.2995 73.5426 72.357 73.5426 72.357C73.5426 72.357 73.6495 72.27 73.7314 72.2109C73.8984 72.091 74.1255 72.0352 74.3008 72.0959C74.3643 72.1173 74.3593 72.1567 74.3543 72.265C74.3543 72.2946 74.3509 72.2995 74.3393 72.3258C73.8065 73.4061 73.5076 74.2369 72.6692 74.9921C71.9645 75.6291 70.7353 75.6964 69.9955 75.107C69.5562 74.7557 69.2122 74.0678 69.3191 73.5145C69.3458 73.3782 69.4043 73.1894 69.4744 73.1697C69.5562 73.1467 69.7082 73.2797 69.8435 73.3273C70.0623 73.4028 70.4163 73.2304 70.5432 73.035C70.752 72.7149 70.6768 72.3274 70.3913 72.1091C70.1358 71.912 69.6999 71.9301 69.4193 72.0812C68.5325 72.5589 68.6093 74.0087 68.9818 74.7196C69.4828 75.6735 70.5332 76.2235 71.5353 76.1972C72.5991 76.1677 73.5126 75.6439 74.3075 74.7852C74.3827 74.7048 74.4495 74.6243 74.518 74.5406C75.0707 73.851 75.373 73.0055 75.7805 72.2486C75.8072 72.1977 75.8256 72.1583 75.8256 72.1386C75.8256 72.132 75.8256 72.1238 75.8256 72.1238V72.1255ZM55.7784 72.0352V72.0253C55.7784 72.0253 55.6264 72.0073 55.5162 72.0106C55.1454 72.022 54.7195 72.4112 54.5676 72.7133C54.277 73.2945 54.3655 74.1942 54.6694 74.7064C55.102 75.4354 55.8001 75.8705 56.61 76.0839C57.6872 76.3663 59.0817 76.0232 59.8499 75.3238C60.5681 74.6687 60.857 73.8576 60.725 72.8856C60.6499 72.3241 60.4294 71.8743 60.0336 71.5082C59.9134 71.3982 59.0349 70.858 58.7694 70.7332C58.3051 70.5148 56.2994 69.7924 56.0406 69.07C55.9203 68.7351 56.0422 68.3805 56.3762 68.2245C57.0058 67.929 57.6889 68.1408 58.3319 68.4248C58.7243 68.5988 59.2404 68.9485 59.5059 69.3015C59.723 69.5905 60.0052 70.0748 60.1038 70.1175C60.1739 70.1471 60.2324 70.1307 60.2725 70.065C60.3109 70.0042 60.0771 69.4345 59.9518 68.9994C59.8499 68.6465 59.8766 68.0406 59.7915 67.8091C59.7564 67.7122 59.6996 67.6581 59.5877 67.6942C59.4658 67.7336 59.3656 67.8879 59.237 67.952C58.8763 68.1342 58.0814 67.6843 57.7774 67.5793C57.0793 67.3396 55.9821 67.4709 55.4577 68.0718C55.1354 68.4429 55.0168 68.7285 54.9901 69.1554C54.9817 69.2966 54.9784 69.4083 54.9851 69.5084C55.0402 70.2341 55.8669 70.8547 56.423 71.1847C56.5917 71.2849 56.7487 71.3735 56.8288 71.408C57.6338 71.761 59.04 72.3094 59.2604 72.4637C59.9151 72.9201 60.1138 73.7213 59.718 74.4766C58.9832 75.8754 56.5115 75.8656 55.4276 74.7721C55.1204 74.4618 54.8448 73.8658 55.0335 73.4012C55.1237 73.1795 55.2222 73.3322 55.5295 73.3864C55.8435 73.4422 56.1992 73.0942 56.2593 72.8561C56.3311 72.5704 56.2326 72.2897 55.9804 72.1403C55.927 72.1091 55.8669 72.0795 55.8084 72.0516C55.7817 72.0385 55.7784 72.0368 55.7784 72.0335V72.0352ZM65.3594 87.1301L63.9248 86.1647C63.0297 85.5622 61.388 84.5344 60.3309 83.8284C60.0219 83.6232 56.2577 80.6121 55.8301 80.2295C55.1153 79.5892 53.0612 77.6272 52.5552 77.0969C52.2178 76.7456 48.7875 72.664 48.4702 72.2355C48.0394 71.6559 45.89 68.4806 45.4792 67.8157C42.2794 62.6439 40.2319 57.6741 38.6353 51.8473C38.3497 50.8047 37.7318 48.2517 37.5548 47.3881C37.0705 45.014 36.6346 41.8879 36.4459 39.3694C36.3757 38.4319 36.3373 37.5305 36.3006 36.4584C36.1636 32.4622 35.9783 21.0663 35.9783 21.0663C35.9783 21.0663 36.025 21.04 36.1019 20.9957C55.5412 12.3236 75.5851 12.3761 94.9777 21.15C94.981 21.1533 94.9844 21.1582 94.9861 21.1615C95.0161 21.2141 95.0228 21.2699 95.0295 21.3273C95.0562 21.5539 94.7489 36.1104 94.6938 37.2038C94.4834 41.3658 94.1694 44.111 93.2208 48.5341C93.0555 49.3057 92.2572 52.4071 92.0251 53.1804C91.8063 53.911 90.5304 57.5904 90.2448 58.3144C87.4391 65.4465 83.5596 71.651 78.1921 77.2234C77.6994 77.7356 75.3346 79.98 74.7701 80.4709C74.3576 80.8304 70.2944 83.9778 69.8802 84.2569C69.1955 84.7199 67.9012 85.531 66.6804 86.2977L65.3594 87.1285V87.1301ZM46.062 43.1571H46.047C46.047 43.1571 46.052 43.3574 46.0754 43.4575C46.1338 43.6923 46.6582 43.5084 46.9037 43.4198C47.5617 43.1801 48.5971 42.6268 48.7024 41.9372C48.7525 41.6105 48.5521 41.622 48.3383 41.0769C48.2815 40.934 48.3032 40.8208 48.3967 40.6664C48.4686 40.5482 48.5688 40.4399 48.6306 40.3167C48.6773 40.2231 48.7007 40.1213 48.7174 40.0163C48.851 39.2315 48.8543 39.0082 49.4038 38.3449C49.8831 37.767 50.6914 36.9378 50.9653 36.5389C51.1907 36.2089 51.3794 35.851 51.5348 35.5751C51.5832 35.4881 51.6366 35.4044 51.7084 35.3666C51.7652 35.3371 52.0842 35.3469 52.1911 35.383C52.3464 35.4339 52.4366 35.5111 52.5702 35.6753C52.9075 36.089 53.2917 36.7966 53.5188 37.0265C54.1033 37.6192 55.0753 38.4483 55.0502 38.4992C54.9634 38.688 54.3622 38.3301 54.1601 38.2218C54.0382 38.1577 52.5368 37.7604 52.2045 37.7062C51.1857 37.5371 50.7883 37.3811 50.0384 38.0214C49.5558 38.4335 49.2685 38.9704 49.2134 39.4843C49.1984 39.6239 49.8196 44.5461 49.8697 44.6905C49.9649 44.9647 50.0718 45.344 50.0735 45.4786C50.0802 45.9367 49.9866 46.0582 50.2772 46.5195C50.4392 46.7773 50.6764 46.9891 50.8467 47.2485C51.0187 47.5096 51.2091 48.1269 51.4162 48.5685C51.5465 48.8444 52.1811 49.882 52.5602 50.1972C52.9042 50.4829 53.1363 50.3696 53.4152 49.9904C53.8394 49.4124 53.8528 47.9857 53.609 47.4472C53.5154 47.2403 53.3568 47.0663 53.138 46.9694C52.8491 46.843 52.2729 46.7149 52.2729 46.7149C52.2729 46.7149 52.1878 45.7709 52.0875 45.4639C52.0241 45.2668 51.9172 45.1141 51.8254 44.9483C51.3577 44.1028 51.4145 43.2622 51.3728 42.2524C51.3627 42.0259 51.346 41.796 51.2859 41.5776C51.2008 41.2723 51.0638 40.783 51.0822 40.7173C51.1289 40.5433 51.3293 40.4021 51.5197 40.4169C51.9673 40.4497 52.2946 40.7961 52.6487 41.0621C52.8508 41.2132 53.9146 41.7944 54.5342 42.1375C54.7546 42.259 55.0185 42.4429 55.117 42.5529C55.2105 42.6563 55.2807 42.7745 55.3709 42.8895C55.5963 43.1784 55.9704 43.4854 56.276 43.5987C57.0626 43.8926 57.2062 43.7317 57.5169 44.0634C57.6705 44.2276 57.9745 44.6774 58.1882 45.0255C58.4154 45.3982 58.6124 45.7364 58.8295 46.0582C58.9899 46.2946 60.0353 47.5194 60.2791 47.7575C60.8035 48.2681 64.7599 51.4417 65.4312 52.0738C65.5799 52.2134 66.2863 52.8751 66.3731 53.1919C66.3948 53.2707 66.3915 53.3676 66.3197 53.3922C66.2896 53.4037 66.2546 53.3922 66.2178 53.3775C66.1443 53.3479 65.1791 52.3743 65.0371 52.1871C64.9636 52.0886 63.5858 51.0149 63.5123 50.9968C63.4322 50.9787 63.347 50.9623 63.347 50.9623C63.347 50.9623 63.2852 51.1741 63.2485 51.3416C63.1332 51.8785 63.2368 53.0901 63.3069 53.4924C63.5658 54.9667 64.1954 56.4953 64.9853 57.881C65.3945 58.6001 66.0191 59.5901 66.0191 59.5901C66.0191 59.5901 65.8721 59.9743 65.7435 60.1894C65.5381 60.5342 65.3577 60.5818 64.9118 60.5916C64.0985 60.6097 62.9378 60.6228 62.4903 60.5916C61.3814 60.5128 59.5794 60.2961 59.207 60.3191C59.0066 60.3306 58.8112 60.3552 58.6241 60.4045C58.5072 60.4357 58.3936 60.4751 58.2734 60.5046C57.9611 60.5818 56.742 60.5703 56.2309 60.6622C55.6949 60.7591 54.7613 61.0908 54.4223 61.5144C54.1684 61.8312 54.3237 62.0233 54.6561 62.2548C54.7914 62.3484 55.6965 62.7474 55.9253 62.8147C56.4096 62.9542 57.1511 63.148 57.4568 62.7227C57.5386 62.6111 57.5987 62.4666 57.6906 62.3484C57.8693 62.1169 58.1031 61.9675 58.3469 62.0118C58.5373 62.0463 58.721 62.1694 58.9164 62.2121C59.0283 62.2368 59.3155 62.2203 59.5026 62.1776C60.5981 61.9281 60.7367 61.9002 62.1847 62.025C62.6489 62.0644 64.0568 62.2844 64.4025 62.3697C65.1941 62.5651 66.4834 62.9165 66.7222 62.9427C67.0796 62.9821 67.3702 62.9821 67.5689 62.7506C67.6457 62.6603 67.9196 62.0742 67.933 61.9675C67.948 61.8542 67.8895 61.4782 67.8311 61.3075C67.4453 60.1861 67.1497 59.7724 66.9994 58.9121C66.9593 58.6773 66.9042 57.2226 66.9259 56.9468C66.9777 56.295 67.1781 55.52 67.4653 54.8814C67.9046 53.911 68.5525 53.2034 68.793 52.3283C68.8982 51.9458 69.0118 51.3383 69.0118 51.3383C69.0118 51.3383 69.0719 51.3383 69.1137 51.3531C69.2439 51.3991 69.1955 51.9212 69.1872 51.9983C69.1671 52.1855 69.0886 52.435 68.9968 52.6583C68.7379 53.297 67.9897 54.5497 67.6691 55.3115C67.1848 56.4625 67.1614 57.7349 67.4503 59.0976C67.6106 59.8594 68.0799 61.2697 68.4273 61.8657C68.8264 62.5487 69.5362 63.6093 69.5796 63.7866C69.6448 64.0493 69.5095 64.3038 69.3174 64.5977C69.2239 64.7405 68.4356 65.5565 68.2453 65.7076C67.1363 66.5892 65.1373 68.1703 65.0855 68.2524C64.9386 68.4872 64.8501 68.7335 64.6764 68.9584C64.5361 69.1406 63.6743 69.7498 63.1633 70.1766C63.0147 70.2998 62.5838 70.8022 62.517 70.9286C62.3817 71.1847 62.2498 71.5032 62.4886 71.6313C62.7157 71.7528 63.5023 71.8234 63.6409 71.8316C64.5027 71.8858 65.0889 71.8398 65.8003 71.559C66.1043 71.4392 66.318 71.252 66.2228 70.9286C66.1494 70.6757 66.0258 70.5116 66.121 70.2686C66.1711 70.1422 66.2846 70.0502 66.4182 69.9763C66.8708 69.7251 67.0712 69.7251 67.2449 69.2654C67.28 69.1718 67.2967 69.0799 67.3317 68.9929C67.3852 68.8632 67.5154 68.7072 67.6374 68.5676C68.5743 67.5005 68.7914 67.2263 69.8468 66.4251C70.1274 66.2116 71.0109 65.6583 71.1979 65.5795C71.5536 65.4285 72.0212 65.2692 72.088 64.9047C72.1515 64.5649 72.1148 63.7735 71.9862 63.4714C71.886 63.2366 71.6722 62.9904 71.5336 62.7408C71.1779 62.0939 71.1996 61.3403 71.5052 60.7181C71.6271 60.4685 71.7457 60.2797 71.8993 60.1007C72.058 59.9152 73.9284 58.6625 74.6649 58.0501C75.2544 57.5592 76.4836 56.1045 76.7157 55.2393C76.8527 54.7303 76.9996 53.806 77.0798 53.6976C77.185 53.5581 77.3971 53.5778 77.5174 53.7534C77.681 53.9915 77.6677 54.3675 77.6343 54.6515C77.5708 55.19 77.3921 56.0241 77.2986 56.5445C77.2702 56.6989 77.2785 56.9665 77.3136 57.0896C77.3737 57.2981 77.504 57.5772 77.504 57.5772C77.504 57.5772 77.5458 57.1701 77.6209 56.8745C77.7261 56.4559 77.8931 56.2605 77.9716 55.9715C78.0367 55.7302 78.0234 55.0078 78.3657 54.9536C78.5545 54.9224 78.6046 55.2656 78.6279 55.4839C78.6931 56.0668 78.5996 56.5232 78.339 57.1537C78.0785 57.7792 77.1332 58.9334 77.2568 59.6427C77.2819 59.7806 77.3604 60.0301 77.4472 60.1385C77.524 60.2354 77.666 60.37 77.666 60.37V59.7757C77.666 59.7461 77.666 59.7395 77.676 59.7133C77.7963 59.3734 77.9365 59.1239 78.1904 58.7889C78.9152 57.8317 79.0922 57.8317 79.4747 56.9337C79.7168 56.3656 79.7986 55.9781 79.8688 55.3706C79.8888 55.1999 79.8354 54.4627 79.7953 54.3675C79.7652 54.2936 79.2592 53.5663 79.4596 53.4201C79.6333 53.2937 80.0274 53.9406 80.0725 54.0375C80.3765 54.6794 80.2846 55.0078 80.3063 55.7729C80.3197 56.2211 80.4533 56.6857 80.7873 57.1159C80.8324 57.175 80.8909 57.2341 80.9326 57.2078C80.9476 57.198 80.956 57.175 80.961 57.1504C80.9977 56.9928 80.789 56.1357 80.8007 55.7729C80.809 55.5463 81.0345 55.0045 81.1063 54.6827C81.138 54.5448 81.138 54.3921 81.1063 54.2378C81.0111 53.783 80.6804 52.9358 80.7122 52.8521C80.7556 52.7404 81.0896 52.6879 81.5004 52.5303C82.8365 52.0197 83.8502 50.652 84.1859 49.5323C84.4263 48.7245 84.5082 47.8823 84.4197 46.994C84.2193 44.9828 83.8769 44.7907 84.2376 42.9354C84.2744 42.7483 84.3111 42.589 84.3896 42.4199C84.5466 42.08 85.2079 41.2591 85.4017 40.8602C85.5987 40.4579 85.6355 40.2051 85.5703 39.7092C85.5386 39.4646 85.4634 39.3349 85.3365 39.4367C85.2413 39.5122 84.9674 40.2625 84.7236 40.7699C84.6602 40.9029 83.8986 41.8715 83.755 42.0029C83.4778 42.2557 83.2506 42.4363 83.1037 42.1178C82.9266 41.732 82.9717 41.1261 83.0753 40.7846C83.1437 40.5548 83.2356 40.3266 83.3675 40.0967C83.6398 39.6206 84.3512 38.803 84.6084 38.3465C84.7837 38.0346 85.1862 37.1332 85.076 36.7983C85.0075 36.5914 84.8906 36.6177 84.7553 36.7753C84.6101 36.9444 84.2794 37.501 84.069 37.854C83.9437 38.0641 83.7867 38.2792 83.6464 38.4122C83.4059 38.6388 83.0252 38.9047 82.9467 39.0476C82.9317 39.0771 82.9233 39.1034 82.9016 39.1362C82.8114 39.2824 81.9597 39.9292 81.9597 39.9292C81.9597 39.9292 81.9163 39.4071 81.9229 39.064C81.938 38.2792 82.5141 36.9772 83.0168 36.4042C83.4494 35.9117 84.3011 35.1285 84.3295 35.0202C84.3579 34.9118 84.3178 34.8445 84.1842 34.8773C84.0623 34.9069 83.937 34.9923 83.8101 35.0777C83.1688 35.5144 82.7964 35.759 82.3455 36.2302C81.8328 36.7654 81.4036 37.3779 81.1497 37.9886C80.7439 38.9622 80.6738 40.0984 80.8291 41.0999C80.9376 41.7993 81.2633 42.8468 81.442 43.7104C81.6875 44.8974 81.8111 46.9448 81.5004 48.1564C81.2616 49.089 80.7539 49.8804 80.0057 50.5223C79.468 50.9837 78.9486 51.2152 78.187 51.4828C78.0852 51.5189 77.995 51.5501 77.8514 51.5682C77.5892 51.6043 77.1516 51.5994 77.1516 51.5994C77.1516 51.5994 76.7625 50.3237 76.4953 49.7244C76.0277 48.6753 74.6749 47.1451 73.9134 46.4095C73.6111 46.1173 72.711 45.3719 72.4187 45.17C72.0095 44.8876 71.4885 44.5658 71.228 44.3474C70.3211 43.5856 69.0903 41.8124 68.616 40.6681C68.2486 39.7815 68.1066 38.9671 68.3237 38.0723C68.3889 37.8031 68.4707 37.7325 68.7329 37.8425C68.9149 37.9197 69.0686 38.0806 69.259 38.1873C69.456 38.2973 70.1207 38.3941 70.4998 38.5321C70.6351 38.5813 70.7537 38.647 70.8789 38.7324C71.3165 39.0361 72.0847 39.6781 72.2367 39.7224C72.3135 39.7454 72.4154 39.7536 72.4705 39.6945C72.5857 39.568 72.3586 39.4777 72.23 39.394C72.1281 39.3267 71.9995 39.1789 71.916 39.0427C71.6087 38.537 71.597 38.427 71.1361 38.0888C71.0827 38.0494 71.0309 38.0132 70.9674 37.9886C70.8188 37.9295 70.5499 37.9262 70.4714 37.8113C70.4414 37.7686 70.4564 37.7391 70.5098 37.7161C70.6935 37.6389 71.2731 37.8376 71.3916 37.9032C71.7056 38.0789 72.1732 38.5288 72.3102 38.5632C72.3736 38.578 72.4187 38.5583 72.4421 38.4631C72.4772 38.3153 72.3953 38.1971 72.3102 38.1052C71.9745 37.7358 71.2096 37.1069 70.7203 36.9723C70.3913 36.882 70.3195 36.9231 69.9621 36.7293C69.8134 36.6489 69.7433 36.5553 69.8402 36.4995C69.8802 36.4765 70.9541 36.7178 71.1144 36.7868C71.5536 36.974 72.7377 37.5798 73.4341 37.5749C73.8232 37.5732 74.4712 37.4238 74.7551 37.1726C74.8085 37.125 74.9171 37.0265 74.9221 36.9575C74.9271 36.9001 74.9071 36.8147 74.9071 36.8147C74.9071 36.8147 74.8353 36.818 74.7751 36.8295C74.6933 36.8443 74.5079 37.0019 74.381 37.0872C74.3109 37.1349 73.8716 37.2301 73.7247 37.2301C73.4274 37.2301 73.1285 37.1611 72.9147 36.9871C72.6225 36.749 72.2383 36.245 71.9528 36.0398C71.6789 35.8427 71.3215 35.8001 70.8355 35.6375C70.5382 35.539 70.1157 35.3486 69.8802 35.2074C69.8552 35.1926 69.7333 35.1088 69.7984 35.0727C69.8084 35.0662 69.8268 35.0645 69.8285 35.0481C69.8285 35.0415 69.8285 35.0333 69.8285 35.0333C69.8285 35.0333 70.4364 35.2385 70.9107 35.3009C71.2547 35.3469 72.4805 35.2123 72.6442 35.2632C72.9481 35.3551 73.2921 35.603 73.5343 35.6506C73.6562 35.6736 73.7113 35.6326 73.6863 35.516C73.6796 35.4881 73.6763 35.4815 73.6545 35.4635C73.065 34.9923 72.5774 34.4882 71.886 34.4029C71.749 34.3864 71.263 34.4078 71.263 34.2896C71.263 34.2436 71.4501 34.1861 71.5803 34.1599C71.8843 34.0975 72.1999 34.1615 72.5139 34.3323C72.9381 34.5621 72.9364 34.6376 73.2871 34.7197C73.5928 34.792 74.1355 34.8839 74.3743 34.7345C74.4545 34.6836 74.4328 34.526 74.3677 34.4767C74.2875 34.416 74.047 34.3996 73.8867 34.347C73.8165 34.3241 73.7598 34.2961 73.7046 34.2617C73.4141 34.0811 73.0383 33.7133 72.7928 33.6016C72.1882 33.3275 71.7808 33.5196 71.3783 33.0369C71.2948 32.9384 71.2948 32.8595 71.3733 32.8267C71.425 32.8054 71.7223 32.871 71.8308 32.9269C72.0613 33.0467 72.5456 33.4522 72.736 33.2421C72.888 33.073 72.3185 32.8431 72.0496 32.5771C71.9812 32.5098 71.9194 32.3867 71.9761 32.3391C71.9945 32.3243 72.0262 32.3292 72.063 32.3391C72.3185 32.4113 72.8362 32.7528 73.1869 32.8694C73.3456 32.9219 73.4692 32.9285 73.5961 32.9991C73.7648 33.0927 74.2858 33.8167 74.5964 33.6739C74.7685 33.5934 74.5163 33.4178 74.4127 33.3242C74.2691 33.1945 74.0704 32.7594 73.9017 32.4901C73.6462 32.0813 73.379 31.8991 73.0032 31.7513C72.8195 31.6791 72.6074 31.5641 72.4939 31.464C72.2434 31.2423 72.053 30.868 71.8526 30.7186C71.7407 30.6349 71.6121 30.5938 71.4417 30.5183C71.1712 30.3968 71.1094 30.3558 71.1595 30.254C71.2163 30.1407 71.2864 30.1374 71.4768 30.144C71.5069 30.144 71.5135 30.1456 71.5403 30.1538C72.0296 30.3016 72.9214 30.5446 73.0049 30.6037C73.1802 30.7268 73.3005 30.8992 73.4725 31.0486C73.9034 31.4246 74.4211 31.6085 74.9388 31.5641C75.1426 31.5477 75.4131 31.5165 75.3764 31.3638C75.3613 31.2982 75.2995 31.2391 75.2244 31.1914C75.019 31.0601 74.5079 30.9862 74.2457 30.8335C73.905 30.6349 73.895 30.4099 73.7447 30.034C73.6261 29.7351 73.374 29.4577 73.1235 29.2689C72.7861 29.016 72.3252 28.8075 72.0279 28.5514C71.921 28.4594 71.4968 28.0293 71.6405 27.9209C71.6672 27.9012 71.719 27.9078 71.7724 27.9209C72.0596 27.9899 72.6358 28.356 73.1001 28.5087C73.4458 28.622 73.8449 28.668 74.0487 28.7812C74.3242 28.9356 74.6198 29.2721 74.8219 29.3542C74.8971 29.3854 75.4716 29.5283 75.6469 29.4117C75.7538 29.3411 75.6436 29.2114 75.5317 29.1392C75.3647 29.0324 75.1275 28.9996 74.9755 28.8962C74.9271 28.8633 74.887 28.8223 74.852 28.7763C74.7701 28.6712 74.71 28.5383 74.6182 28.4299C74.4595 28.246 74.0036 28.0424 73.8449 27.8569C73.713 27.7026 73.6612 27.4941 73.5393 27.3233C73.3439 27.0524 72.8112 26.7257 72.5039 26.6009C72.0914 26.4334 71.4467 26.2528 71.4467 26.2528C71.4467 26.2528 71.4518 26.1806 71.4668 26.133C71.5052 26.0197 71.739 25.9951 71.8459 25.9983C72.1465 26.0066 72.3953 26.2118 72.706 26.3858C72.903 26.4958 73.1886 26.6058 73.3773 26.6436C73.556 26.6797 73.728 26.6863 73.9167 26.729C74.6933 26.9063 74.9939 27.2527 75.4849 26.9719C75.6035 26.9046 75.6335 26.7979 75.5267 26.7421C75.4348 26.6945 75.2645 26.7076 75.1125 26.6699C74.9388 26.6272 74.6432 26.3825 74.4261 26.2545C74.1789 26.1083 73.7982 26.0788 73.4391 25.8966C73.3439 25.8473 72.5306 25.0543 72.5139 24.9935C72.4972 24.9344 72.5406 24.8835 72.6158 24.9082C72.7561 24.9525 72.9732 25.1709 73.1702 25.2956C73.4842 25.4927 74.0203 25.5403 74.4244 25.468C74.7367 25.4122 74.8386 25.3482 75.0373 25.3531C75.1342 25.3564 75.4916 25.4894 75.5718 25.5534C75.5868 25.5649 76.0561 26.1592 76.1797 26.0263C76.1897 26.0164 76.198 26.0016 76.2047 25.9983C76.2097 25.9951 76.2147 25.9983 76.2197 25.9983C76.2448 25.9967 76.2298 25.8752 76.2047 25.798C76.1496 25.6322 75.7204 25.2743 75.5718 25.1807C74.7935 24.6931 74.5948 24.7965 73.6829 24.634C73.2788 24.5617 73.2437 24.3697 72.8763 23.9493C72.7444 23.7983 72.6024 23.6768 72.4488 23.5881C72.1264 23.4026 71.3883 23.2089 71.5069 22.9429C71.5419 22.8625 71.5837 22.8805 71.7223 22.8838C71.7524 22.8838 71.759 22.8854 71.7858 22.8953C72.4872 23.112 73.2754 23.4355 73.8115 23.4453C74.4178 23.4568 74.7969 23.3008 75.1693 23.4601C75.3847 23.552 75.6369 23.7507 75.869 23.8328C76.0511 23.8968 76.3734 23.9608 76.3366 23.8049C76.2982 23.6423 75.9676 23.4995 75.8039 23.3895C75.6135 23.2614 75.4532 23.0595 75.2795 22.9298C75.0841 22.7853 74.6298 22.6178 74.366 22.585C74.1706 22.5604 74.0169 22.5965 73.8399 22.5571C73.6712 22.5177 72.9915 22.0399 72.6291 21.8265C72.5223 21.7641 72.4254 21.7197 72.2651 21.6688C71.9444 21.5671 71.3699 21.439 71.3699 21.439C71.3699 21.439 71.5236 21.3339 71.6672 21.2535C71.901 21.1221 72.8529 20.8512 73.0817 20.8955C73.3122 20.9382 73.5159 21.1254 73.6796 21.0679C73.8633 21.0023 73.8416 20.8923 73.738 20.7593C73.531 20.4949 73.207 20.3209 72.9798 20.293C72.5506 20.2405 71.096 20.3455 70.9808 20.293C70.9591 20.2831 70.939 20.2717 70.9173 20.2634C70.8572 20.2405 70.7871 20.2421 70.7186 20.2208C70.6518 20.2011 70.2894 19.8202 70.0539 19.5903C69.7784 19.3194 69.4243 19.1683 69.112 19.1306C68.8982 19.1043 68.6177 19.1092 68.3722 19.1027C68.3421 19.1027 68.3371 19.0994 68.3171 19.078C68.0616 18.8071 67.7943 18.4886 67.5455 18.2703C67.3067 18.0601 67.0862 17.9435 66.7422 17.625C66.5435 17.4428 66.3047 17.1932 66.3047 17.1932C66.3047 17.1932 66.0575 17.8976 65.9907 18.1997C65.9707 18.29 65.9673 18.3458 65.9907 18.4147C66.1109 18.7628 66.2963 18.8219 66.0725 19.0025C65.8938 19.147 65.7185 19.1355 65.4546 19.0846C65.1189 19.0189 64.4576 18.6676 64.0802 18.5871C63.9098 18.551 63.676 18.5412 63.4673 18.5592C63.0965 18.5904 62.4869 18.7054 62.4869 18.7054C62.4869 18.7054 62.5738 18.7924 62.664 18.8465C62.8193 18.9401 63.1366 18.9237 63.2919 19.0042C63.362 19.0403 63.3737 19.078 63.3153 19.1191C63.1249 19.2521 62.5855 19.124 62.4018 19.1339C62.2982 19.1388 61.7772 19.2718 61.672 19.3916C61.6469 19.4195 61.6436 19.4507 61.6786 19.4803C61.6903 19.4901 61.6953 19.4918 61.7254 19.4885C61.9893 19.4688 62.35 19.413 62.5187 19.4343C62.8694 19.4754 63.4823 19.7561 63.7144 19.7643C63.8313 19.7693 64.005 19.7528 64.0067 19.83C64.0067 19.8497 63.99 19.8727 63.9633 19.8957C63.8998 19.9515 63.7829 20.0172 63.8163 20.0648C63.823 20.0746 63.8397 20.0779 63.8597 20.0796C64.0618 20.096 64.2722 20.0172 64.3123 20.1419C64.319 20.1666 64.3273 20.1994 64.3273 20.1994C64.3273 20.1994 63.7011 20.4326 63.2769 20.6378C62.7892 20.8742 62.5688 21.0745 62.2414 21.2682C62.0076 21.4078 60.4845 22.0875 59.9368 22.2008C59.1769 22.3568 58.7878 22.2977 58.3903 22.6802C58.093 22.9659 57.6054 23.8147 57.5586 24.2514C57.5369 24.4567 57.597 24.9541 57.6906 25.1068C57.7524 25.207 57.8275 25.2267 57.9528 25.2267C58.1231 25.2267 58.8646 25.0937 59.0617 25.0264C59.3372 24.9312 59.7197 24.7276 59.8349 24.9344C59.9435 25.1298 59.4224 25.2858 59.222 25.3268C58.898 25.3958 58.407 25.4352 58.4488 25.6848C58.4838 25.8966 58.8546 26.0131 59.0466 26.0295C59.1869 26.041 59.3339 26.0427 59.4842 26.0148C59.8299 25.954 60.2725 25.711 60.6215 25.6273C60.7701 25.5928 61.0307 25.5862 61.2194 25.6125C61.9124 25.711 63.3236 26.11 63.671 26.1281C64.01 26.1461 64.3741 26.1018 64.7265 26.087C64.7565 26.087 64.7615 26.087 64.7832 26.1067C65.1573 26.4466 64.9352 26.8242 64.7215 27.3758C64.5645 27.7814 63.8363 29.3116 63.671 29.5841C63.524 29.8271 63.3737 30.0471 63.2034 30.2819C62.9946 30.5708 62.1663 31.5231 62.001 31.6643C61.7187 31.9056 61.5283 32.0222 61.2628 32.3588C60.7852 32.9663 60.6382 33.4408 60.0219 33.802C59.738 33.9678 59.3255 34.0745 59.0149 34.2042C58.8128 34.2896 58.5941 34.4193 58.3202 34.6196C57.921 34.9118 57.3215 35.388 57.3215 35.388C57.3215 35.388 54.6043 33.6854 54.4841 33.5425C54.4039 33.4473 54.3488 33.3587 54.272 33.2634C53.7993 32.6691 53.1263 32.2898 52.3898 32.1815C51.2876 32.0173 50.7281 33.0385 50.157 34.0105C49.7428 34.7164 49.1917 35.603 48.9312 36.112C48.7508 36.4634 48.5955 36.8163 48.4051 37.1726C48.006 37.9213 47.4498 38.6847 47.0624 39.3661C46.9705 39.527 46.8887 39.6846 46.8436 39.8537C46.7634 40.1525 46.8018 40.4891 46.7117 40.8011C46.6248 41.1064 46.4027 41.4036 46.2891 41.6762C46.2207 41.8403 46.1839 42.0324 46.1472 42.3247C46.1054 42.6613 46.0553 43.1538 46.0553 43.1538L46.062 43.1571ZM64.4175 18.1455C64.4058 18.1832 64.4325 18.2473 64.4609 18.2982C64.5745 18.4985 65.1173 18.7891 65.4095 18.8351C65.6049 18.8662 65.7001 18.8318 65.6867 18.62C65.6817 18.5297 65.6433 18.4558 65.5999 18.377C65.4245 18.0568 64.8818 17.2441 64.825 17.2146C64.7766 17.1899 64.7432 17.6053 64.6079 17.8253C64.5394 17.9353 64.4459 18.0585 64.4175 18.1488V18.1455Z" fill="#EAEBF0"/>
<path fill-rule="evenodd" clip-rule="evenodd" d="M69.4261 20.1665C69.4595 20.2765 69.2658 20.2503 69.2374 20.2453C69.1171 20.2256 68.5811 20.0992 68.6963 19.9006C68.7998 19.7216 69.1021 19.7906 69.214 19.8809C69.2875 19.94 69.3944 20.0631 69.4261 20.1682V20.1665Z" fill="white"/>
<path fill-rule="evenodd" clip-rule="evenodd" d="M70.0074 21.4062C70.0107 21.4275 69.9757 21.4554 69.9456 21.4702C69.817 21.5359 69.3227 21.3389 69.2659 21.2321C69.1991 21.1074 69.311 21.0318 69.4563 21.0105C69.6483 20.9826 69.7719 21.063 69.9089 21.2321C69.9523 21.2863 70.0007 21.3553 70.0091 21.4045L70.0074 21.4062Z" fill="white"/>
<path fill-rule="evenodd" clip-rule="evenodd" d="M65.8807 21.4997C65.8857 21.5178 65.869 21.5523 65.8523 21.572C65.7688 21.6623 65.6686 21.4472 65.5985 21.3848C65.5283 21.3224 65.4348 21.2978 65.3363 21.2732C65.2327 21.2485 65.0357 21.2075 65.064 21.1057C65.0824 21.0433 65.196 21.0236 65.2678 21.0252C65.5601 21.0334 65.8022 21.1796 65.8807 21.4981V21.4997Z" fill="white"/>
<path fill-rule="evenodd" clip-rule="evenodd" d="M61.0125 22.5637C60.9958 22.5637 60.9791 22.5735 60.9641 22.562C60.9407 22.544 60.9207 22.4816 60.9207 22.4816C60.9207 22.4816 61.3699 22.319 61.6939 22.2041C62.0079 22.0925 62.4821 21.8708 62.6124 21.7739C62.716 21.6984 63.1702 21.2896 63.2771 21.3668C63.3973 21.4521 63.1819 21.6968 63.0583 21.8314C62.5423 22.3945 62.068 22.4257 61.0693 22.5587C61.0392 22.562 61.0342 22.5637 61.0125 22.5653V22.5637Z" fill="white"/>
<path fill-rule="evenodd" clip-rule="evenodd" d="M64.5095 22.0875V22.1023L64.3592 22.0908C64.3292 22.0891 64.3242 22.0875 64.3091 22.0727C64.1538 21.9463 64.3542 21.6885 64.4878 21.5999C64.6214 21.5112 65.0072 21.4373 65.1391 21.4702C65.4331 21.5441 65.7788 22.0317 65.7086 22.3305C65.6719 22.4914 65.555 22.5883 65.4314 22.5456C65.2995 22.5012 65.0974 22.2468 64.9588 22.1302C64.8986 22.0793 64.8218 22.0547 64.7316 22.0579C64.6415 22.0629 64.5129 22.0859 64.5129 22.0859L64.5095 22.0875Z" fill="white"/>
<path fill-rule="evenodd" clip-rule="evenodd" d="M69.5047 22.4471L70.7355 22.5587C70.7656 22.562 70.7706 22.5637 70.7956 22.5801C70.8875 22.6441 70.951 22.6786 70.9142 22.7196C70.8324 22.8099 70.3948 22.7656 70.3314 22.7771C70.131 22.8132 69.4546 23.3304 69.3677 22.9495C69.346 22.851 69.3761 22.6474 69.4262 22.562C69.4563 22.5111 69.5047 22.4471 69.5047 22.4471Z" fill="white"/>
<path fill-rule="evenodd" clip-rule="evenodd" d="M58.9348 23.795C58.9916 23.9115 58.9114 23.9854 58.8313 24.0232C58.7411 24.0675 58.6275 24.1184 58.534 24.1956C58.3102 24.3811 58.1349 24.7013 58.0313 24.3959C57.9628 24.1956 58.1683 23.5832 58.4538 23.5208C58.6425 23.4797 58.8346 23.5848 58.9348 23.7933V23.795Z" fill="white"/>
<path fill-rule="evenodd" clip-rule="evenodd" d="M70.7256 24.1529C70.744 24.1923 70.6905 24.2334 70.6721 24.2383C70.6037 24.2597 70.273 24.1874 70.2313 24.1743C70.1411 24.1447 69.8972 24.0495 69.9524 23.9461C70.0192 23.8196 70.2864 23.7967 70.3749 23.8213C70.5218 23.864 70.6504 23.9888 70.7256 24.1513V24.1529Z" fill="white"/>
<path fill-rule="evenodd" clip-rule="evenodd" d="M65.8739 24.2071L65.0923 25.161C65.0739 25.184 65.0689 25.1873 65.0422 25.2004C64.9871 25.2267 64.9353 25.253 64.8735 25.2727C64.6865 25.3318 64.3174 25.3236 64.1804 25.2448C64.1103 25.2037 64.1454 25.1446 64.2222 25.0871C64.4226 24.9377 64.7883 24.8491 65.099 24.6422C65.4063 24.4386 65.6852 24.1152 65.8305 24.0692C65.8956 24.0479 65.9006 24.0741 65.8956 24.1513C65.8939 24.1809 65.8922 24.1858 65.8722 24.2088L65.8739 24.2071Z" fill="white"/>
<path fill-rule="evenodd" clip-rule="evenodd" d="M60.9491 24.5354C61.0126 24.6602 60.8139 24.8277 60.7304 24.8556C60.6268 24.8901 60.5066 24.7965 60.5266 24.6684C60.5467 24.5322 60.7237 24.4057 60.8473 24.4534C60.8907 24.4698 60.9341 24.5059 60.9491 24.5338V24.5354Z" fill="white"/>
<path fill-rule="evenodd" clip-rule="evenodd" d="M66.9897 24.8852C67.0231 25.0855 66.8628 25.3137 66.7275 25.3876C66.639 25.4352 66.1497 25.6125 66.0411 25.5599C66.0228 25.5501 66.0211 25.5337 66.0261 25.5107C66.0395 25.4614 66.9363 24.8063 66.9597 24.8277C66.9764 24.8441 66.9864 24.8687 66.9881 24.8852H66.9897Z" fill="white"/>
<path fill-rule="evenodd" clip-rule="evenodd" d="M70.8123 25.2004C70.8473 25.3285 70.7405 25.3383 70.6369 25.3153C70.4616 25.2759 69.8954 25.1512 69.9806 24.9706C70.0691 24.785 70.4148 24.8014 70.5417 24.8983C70.6035 24.9443 70.6703 25.0132 70.7388 25.092C70.7705 25.1282 70.8023 25.1692 70.8123 25.2004Z" fill="white"/>
<path fill-rule="evenodd" clip-rule="evenodd" d="M67.2954 25.4434C67.3689 25.5928 67.1585 25.8308 67.0699 25.9031C67.0382 25.9293 67.0098 25.9458 66.9731 25.9605C66.8896 25.995 66.0495 26.018 65.9377 25.9884C65.8692 25.972 65.8508 25.9458 65.9093 25.8883C65.9861 25.8111 66.5272 25.7487 66.8144 25.6338C66.9581 25.5763 67.0566 25.4893 67.2236 25.4434C67.2537 25.4352 67.287 25.4286 67.2937 25.4434H67.2954Z" fill="white"/>
<path fill-rule="evenodd" clip-rule="evenodd" d="M70.9443 26.3185H70.9293V26.3333C70.9293 26.3333 70.8525 26.3333 70.784 26.3333C70.5936 26.33 69.9123 26.1756 70.0542 25.9261C70.1511 25.757 70.4868 25.7586 70.6437 25.8637C70.7272 25.9195 70.8174 26.0345 70.8859 26.1083C70.9143 26.1395 70.9377 26.1625 70.9443 26.2167C70.9494 26.2577 70.9443 26.3168 70.9443 26.3168V26.3185Z" fill="white"/>
<path fill-rule="evenodd" clip-rule="evenodd" d="M70.9292 27.4514C70.9626 27.5663 70.8023 27.5564 70.7405 27.5433C70.6319 27.5203 69.8838 27.3791 70.024 27.1411C70.1443 26.9375 70.4866 26.9736 70.6303 27.0787C70.7672 27.1788 70.8858 27.2987 70.9292 27.4514Z" fill="white"/>
<path fill-rule="evenodd" clip-rule="evenodd" d="M70.9878 28.6844C71.0162 28.7353 70.9494 28.7944 70.9344 28.7993C70.7791 28.8518 70.0743 28.5629 70.0459 28.5465C69.9056 28.4627 69.8572 28.3774 70.0008 28.2542C70.1478 28.1278 70.4484 28.1426 70.607 28.2263C70.754 28.3018 70.8776 28.489 70.9861 28.686L70.9878 28.6844Z" fill="white"/>
<path fill-rule="evenodd" clip-rule="evenodd" d="M66.8728 28.5563C66.8812 28.6269 66.8795 28.7369 66.8728 28.8436C66.8628 28.9963 66.6156 29.8698 66.5371 30.029C66.2833 30.5429 65.7739 31.2653 65.3263 31.7776C64.974 32.1815 64.6266 32.5115 64.5681 32.3867C64.5514 32.3522 65.3013 31.1717 65.7205 30.5216C65.8825 30.272 65.991 30.0586 66.0712 29.8336C66.3234 29.1129 66.3518 28.6253 66.6256 28.2493C66.6757 28.1803 66.7643 28.1491 66.8043 28.223C66.8377 28.2838 66.8645 28.4726 66.8728 28.5579V28.5563Z" fill="white"/>
<path fill-rule="evenodd" clip-rule="evenodd" d="M70.7689 29.7893C70.7923 29.8386 70.7305 29.8862 70.7155 29.8895C70.6036 29.9174 70.136 29.7713 70.0825 29.7466C69.8704 29.6432 69.7585 29.5299 69.9422 29.4019C70.1627 29.2492 70.4867 29.3641 70.637 29.566C70.6904 29.6383 70.7405 29.7319 70.7689 29.7893Z" fill="white"/>
<path fill-rule="evenodd" clip-rule="evenodd" d="M70.5786 30.7793C70.6304 30.909 70.4333 30.8877 70.3749 30.8795C70.2112 30.8565 69.757 30.7268 69.8355 30.5445C69.9023 30.3886 70.1878 30.3951 70.3164 30.4641C70.3749 30.4953 70.5352 30.6693 70.5786 30.7793Z" fill="white"/>
<path fill-rule="evenodd" clip-rule="evenodd" d="M70.2729 31.8252C70.1009 31.8071 69.8738 31.771 69.7619 31.6462C69.6967 31.5723 69.7401 31.4886 69.8788 31.4525C69.9673 31.4295 70.0725 31.4607 70.151 31.5099C70.2311 31.5608 70.328 31.684 70.3313 31.7398C70.3313 31.7595 70.328 31.7792 70.3063 31.7874C70.2929 31.7923 70.2712 31.7972 70.2729 31.8104C70.2729 31.8169 70.2762 31.8252 70.2729 31.8252Z" fill="white"/>
<path fill-rule="evenodd" clip-rule="evenodd" d="M70.0675 32.6428C70.0825 32.674 70.0508 32.7052 70.0324 32.7151C69.9088 32.7725 69.6032 32.6346 69.5414 32.5378C69.508 32.4852 69.5264 32.4343 69.5932 32.3998C69.7669 32.3145 69.984 32.4639 70.0658 32.6428H70.0675Z" fill="white"/>
<path fill-rule="evenodd" clip-rule="evenodd" d="M52.6472 33.0155C52.6472 33.0155 52.6422 33.0746 52.6322 33.1107C52.6188 33.1616 52.5971 33.1665 52.5637 33.1731C52.2715 33.2388 52.0777 33.2683 51.9274 33.1764C51.8423 33.1239 51.8974 33.0467 52.0109 32.9728C52.193 32.853 52.4552 32.7807 52.6038 32.9662C52.6121 32.9761 52.6188 32.9859 52.6238 32.9974C52.6305 33.0122 52.6322 33.0155 52.6355 33.0155H52.6456H52.6472Z" fill="white"/>
<path fill-rule="evenodd" clip-rule="evenodd" d="M69.8352 33.3882C69.8452 33.4079 69.8385 33.4506 69.8201 33.4736C69.7667 33.5474 69.4711 33.4177 69.4026 33.3734C69.3375 33.3307 69.2991 33.2815 69.3241 33.2256C69.3876 33.0812 69.593 33.1238 69.6815 33.201C69.7383 33.2503 69.8068 33.334 69.8352 33.3882Z" fill="white"/>
<path fill-rule="evenodd" clip-rule="evenodd" d="M69.4695 34.1401C69.523 34.2107 69.5363 34.2731 69.4595 34.2928C69.3977 34.3076 69.1572 34.237 69.1188 34.168C69.0704 34.0794 69.1873 34.0301 69.2641 34.0334C69.3376 34.0367 69.4161 34.0712 69.4679 34.1401H69.4695Z" fill="white"/>
<path fill-rule="evenodd" clip-rule="evenodd" d="M63.9251 34.966C63.9568 35.012 63.8984 35.0629 63.89 35.0661C63.7731 35.122 63.6696 35.0136 63.4441 34.8938C63.1435 34.7345 62.3837 34.6623 62.1599 34.6508C61.9862 34.6409 61.2464 34.7345 61.1378 34.7805C60.9324 34.8675 60.6101 35.053 60.6702 34.7526C60.742 34.3979 61.8275 34.2731 62.0714 34.2649C62.6525 34.2469 63.2621 34.3733 63.7581 34.7952C63.8249 34.8511 63.89 34.9184 63.9251 34.9676V34.966Z" fill="white"/>
<path fill-rule="evenodd" clip-rule="evenodd" d="M50.618 34.6803C50.6214 34.7082 50.623 34.7509 50.618 34.7952C50.6113 34.8642 49.9066 35.956 49.7429 36.1498C49.631 36.2827 49.4557 36.4781 49.3788 36.3517C49.2837 36.1957 49.5509 35.7262 49.641 35.5686C49.7329 35.4077 50.1571 34.5605 50.4293 34.5358C50.5429 34.526 50.6013 34.5473 50.6197 34.6787L50.618 34.6803Z" fill="white"/>
<path fill-rule="evenodd" clip-rule="evenodd" d="M69.1489 34.961C69.1706 35.0021 69.1322 35.0431 69.1104 35.0514C69.0436 35.076 68.8566 35.0152 68.8282 34.9512C68.8132 34.9167 68.8349 34.8707 68.8816 34.851C68.9484 34.8215 69.1004 34.8707 69.1489 34.961Z" fill="white"/>
<path fill-rule="evenodd" clip-rule="evenodd" d="M54.0702 36.644C53.7963 36.3911 53.4272 35.9725 53.3905 35.6835C53.3721 35.5374 53.4156 35.4848 53.5425 35.5259C53.7479 35.5932 54.4009 36.3599 54.2806 36.5964C54.274 36.6111 54.152 36.7211 54.0702 36.6456V36.644Z" fill="white"/>
<path fill-rule="evenodd" clip-rule="evenodd" d="M68.813 35.7409C68.8364 35.7803 68.7896 35.8214 68.7746 35.8263C68.7045 35.8526 68.5358 35.8 68.5074 35.7163C68.4857 35.6523 68.5692 35.6014 68.6393 35.6112C68.6995 35.6194 68.7763 35.6769 68.8147 35.7409H68.813Z" fill="white"/>
<path fill-rule="evenodd" clip-rule="evenodd" d="M57.4718 36.6997L56.1424 38.5681C56.1257 38.5911 56.1224 38.5944 56.1074 38.596C55.907 38.619 56.2176 38.0493 56.3078 37.8769C56.575 37.3663 56.7888 36.8836 57.1745 36.6144C57.2797 36.5421 57.4935 36.4338 57.5035 36.552C57.5052 36.5766 57.5002 36.6111 57.4952 36.639C57.4902 36.6669 57.4868 36.6735 57.4701 36.6981L57.4718 36.6997Z" fill="white"/>
<path fill-rule="evenodd" clip-rule="evenodd" d="M50.5897 38.3941C50.5964 38.4106 50.5947 38.4385 50.5897 38.4664C50.5747 38.5567 50.3576 38.931 50.2306 38.9688C50.1304 38.9983 50.1154 38.8883 50.1388 38.7816C50.1738 38.6158 50.2724 38.3925 50.431 38.3219C50.5028 38.2907 50.5613 38.3137 50.5914 38.3941H50.5897Z" fill="white"/>
<path fill-rule="evenodd" clip-rule="evenodd" d="M47.5685 39.3693C47.5969 39.5384 47.3464 40.054 47.2412 40.1147C47.1777 40.1508 47.1126 40.1361 47.0859 40.077C46.9857 39.8488 47.2595 39.4153 47.4449 39.3119C47.4483 39.3119 47.5535 39.2872 47.5668 39.3693H47.5685Z" fill="white"/>
<path fill-rule="evenodd" clip-rule="evenodd" d="M70.2396 44.8974C70.2714 44.9352 70.0943 44.9007 69.9507 44.8482C69.6 44.7185 68.461 43.6726 68.3458 43.5511C67.7446 42.919 67.0732 41.5793 66.9313 40.632C66.8745 40.2543 66.8628 39.8669 67.1651 39.9293C67.2235 39.9408 67.2553 39.9736 67.282 40.0212C67.3722 40.1805 67.469 41.0194 67.6176 41.5497C67.7646 42.0751 68.279 42.9059 68.6397 43.3213C69.094 43.8434 69.8756 44.4738 70.2413 44.8991L70.2396 44.8974Z" fill="white"/>
<path fill-rule="evenodd" clip-rule="evenodd" d="M54.7181 41.3477C54.7315 41.4167 54.6714 41.4692 54.6547 41.4774C54.6163 41.4939 54.5712 41.4971 54.5144 41.4922C54.4309 41.484 52.5354 40.4956 52.5153 40.4497C52.497 40.4053 52.507 40.3397 52.5788 40.3019C52.7926 40.187 53.656 40.6286 53.8714 40.7468C53.8965 40.76 54.5561 41.1162 54.6747 41.2689C54.6948 41.2952 54.7148 41.3264 54.7181 41.3494V41.3477Z" fill="white"/>
<path fill-rule="evenodd" clip-rule="evenodd" d="M50.2741 41.8009C50.2774 41.8666 50.2674 41.9634 50.2674 42.0652C50.2691 42.3985 50.5981 43.6726 50.5597 43.7629C50.5396 43.8105 50.4845 43.845 50.4044 43.8006C50.2875 43.7366 50.0971 43.3508 50.0637 43.2555C49.9885 43.0503 49.8482 41.9585 49.9902 41.6498C50.0219 41.5792 50.0921 41.5431 50.1739 41.5924C50.2106 41.6137 50.2691 41.7106 50.2741 41.8009Z" fill="white"/>
<path fill-rule="evenodd" clip-rule="evenodd" d="M46.8104 42.2803C46.8472 42.4478 46.7486 42.7893 46.63 42.8681C46.5449 42.9256 46.458 42.8057 46.4313 42.6957C46.4029 42.5759 46.458 42.1129 46.6501 42.1227C46.7219 42.126 46.792 42.195 46.8104 42.2803Z" fill="white"/>
<path fill-rule="evenodd" clip-rule="evenodd" d="M64.2958 49.5668C64.3125 49.598 64.2156 49.5881 64.1288 49.5668C64.0302 49.5422 63.6361 49.2975 63.5075 49.1793C63.0416 48.7541 62.3151 48.2418 61.7807 47.7805C61.5218 47.5572 61.3081 47.3454 61.0809 47.1073C60.9924 47.0137 59.2105 45.0649 59.0385 44.4164C59.0051 44.2899 59.0184 44.1931 59.1403 44.2161C59.1938 44.2259 59.2439 44.262 59.294 44.3014C59.5178 44.4804 61.0258 46.4013 61.8174 47.242C62.26 47.7115 63.1334 48.3912 63.8833 49.0972C64.052 49.2565 64.234 49.4453 64.2975 49.5651L64.2958 49.5668Z" fill="white"/>
<path fill-rule="evenodd" clip-rule="evenodd" d="M82.573 45.5131C82.573 45.495 82.603 45.4753 82.6264 45.4638C82.8836 45.3325 82.9337 46.6033 82.937 46.8266C82.9571 48.1203 82.8368 49.2483 82.0319 50.1611C81.8164 50.4057 80.9797 51.2381 80.6608 51.358C80.619 51.3744 80.5806 51.3826 80.5539 51.3564C80.5439 51.3465 80.5372 51.3317 80.5288 51.3301C80.5238 51.3285 80.5171 51.3301 80.5138 51.3301C80.5021 51.3285 80.5138 51.2858 80.5288 51.2447C80.5789 51.1084 81.4323 50.2892 81.7981 49.8327C82.3258 49.1744 82.593 47.9693 82.6147 47.173C82.6314 46.6115 82.568 45.9301 82.5713 45.5147L82.573 45.5131Z" fill="white"/>
<path fill-rule="evenodd" clip-rule="evenodd" d="M70.1994 48.0465C70.2077 48.0694 70.191 48.1072 70.171 48.1417C70.0992 48.2599 69.4562 48.5997 69.3543 48.7409C69.1489 49.025 69.2725 49.6784 68.9452 49.5389C68.5276 49.3599 68.865 48.5751 69.2274 48.2632C69.4161 48.1006 69.9438 47.8658 70.1108 47.9627C70.1493 47.9841 70.1893 48.0202 70.1977 48.0481L70.1994 48.0465Z" fill="white"/>
<path fill-rule="evenodd" clip-rule="evenodd" d="M52.8208 49.4223C52.8208 49.4223 52.8108 49.4896 52.7924 49.5306C52.754 49.6127 52.6137 49.6258 52.5586 49.6078C52.43 49.5667 52.2379 49.2614 52.1945 49.1349C52.1745 49.0791 52.1644 49.0167 52.1945 48.9872C52.2045 48.9773 52.2196 48.9708 52.2229 48.9625C52.2246 48.9576 52.2229 48.9527 52.2229 48.9478C52.2262 48.9297 52.288 48.933 52.3398 48.9478C52.4567 48.9806 52.7807 49.2187 52.8041 49.3943C52.8074 49.419 52.8074 49.4223 52.8124 49.4223H52.8224H52.8208Z" fill="white"/>
<path fill-rule="evenodd" clip-rule="evenodd" d="M76.1665 52.8931C76.2166 53.4448 76.0195 54.0933 75.7723 54.4069C75.6705 54.5349 75.5268 54.6055 75.4517 54.4775C75.4216 54.4266 75.4233 54.3396 75.4367 54.2558C75.4734 54.0457 75.5936 53.8634 75.627 53.6385C75.6905 53.2018 75.4233 52.6419 75.7723 52.4761C75.8876 52.4219 76.0496 52.5401 76.123 52.7142C76.1464 52.7716 76.1631 52.8471 76.1665 52.8915V52.8931Z" fill="white"/>
<path fill-rule="evenodd" clip-rule="evenodd" d="M68.5946 55.6317C68.5394 55.8845 68.3474 56.3032 68.2889 56.6217C68.2622 56.7695 68.2639 56.8959 68.2739 57.0371C68.2923 57.2784 68.3474 57.6429 68.2305 57.725C68.1052 57.8137 68.0034 57.6019 67.9533 57.3802C67.8263 56.8138 67.8247 56.2802 68.0702 55.8812C68.152 55.7482 68.3925 55.4511 68.5278 55.5299C68.5628 55.5496 68.6029 55.6005 68.5962 55.63L68.5946 55.6317Z" fill="white"/>
<path fill-rule="evenodd" clip-rule="evenodd" d="M66.4502 60.6277V60.6376C66.4502 60.6376 66.38 60.6376 66.34 60.6228C66.2164 60.5818 66.3483 60.4356 66.4151 60.3798C66.5036 60.3026 66.714 60.2041 66.7575 60.3946C66.7608 60.4077 66.7608 60.4225 66.7591 60.4356C66.7575 60.4537 66.7541 60.4586 66.7307 60.4767C66.6205 60.5588 66.6038 60.5703 66.4819 60.6129C66.4535 60.6228 66.4502 60.6244 66.4502 60.6277Z" fill="white"/>
<path fill-rule="evenodd" clip-rule="evenodd" d="M60.2042 60.8954C60.2259 60.9298 60.1875 60.9709 60.1692 60.9807C60.0873 61.0251 59.9003 61.0251 59.8402 60.966C59.7466 60.8757 59.8552 60.8412 59.942 60.8231C60.069 60.7952 60.1458 60.7969 60.2042 60.8954Z" fill="white"/>
<path fill-rule="evenodd" clip-rule="evenodd" d="M64.4045 61.053C64.488 61.1203 64.4429 61.1843 64.3861 61.2254C64.2074 61.3518 63.3056 61.3469 63.1085 61.3551C62.5474 61.3748 62.0597 61.3863 61.5771 61.1548C61.5119 61.1236 61.3733 61.0054 61.4318 60.9068C61.4401 60.8937 61.4535 60.8806 61.4652 60.8707C61.4819 60.8559 61.4886 60.8543 61.517 60.8576C62.1499 60.9249 62.9949 61.0431 63.4158 61.0546C63.7331 61.0645 64.0421 61.048 64.3544 61.0415C64.3844 61.0415 64.3894 61.0415 64.4045 61.0563V61.053Z" fill="white"/>
<path fill-rule="evenodd" clip-rule="evenodd" d="M56.1627 61.1104C56.2212 61.2369 55.984 61.3994 55.9139 61.4257C55.7769 61.4782 55.7001 61.4454 55.5999 61.3682C55.468 61.2664 55.5014 61.1695 55.6517 61.0957C55.7402 61.053 56.0442 61.0119 56.0892 61.0382C56.1226 61.0579 56.151 61.0875 56.1627 61.1104Z" fill="white"/>
<path fill-rule="evenodd" clip-rule="evenodd" d="M71.512 64.5238C71.512 64.5238 71.517 64.5616 71.512 64.596C71.5037 64.6535 71.4085 64.7651 71.3517 64.7832C71.3316 64.7898 71.3116 64.7931 71.3083 64.8111C71.3083 64.8177 71.3083 64.8259 71.3083 64.8259H71.2381C71.2081 64.8259 71.2031 64.8259 71.1914 64.816C71.1112 64.7602 71.1296 64.6075 71.1479 64.5681C71.1997 64.4548 71.3901 64.3695 71.4736 64.4762C71.4803 64.486 71.4886 64.4959 71.492 64.5074C71.497 64.5222 71.4987 64.5238 71.5037 64.5238H71.5137H71.512Z" fill="white"/>
<path fill-rule="evenodd" clip-rule="evenodd" d="M69.6885 65.3135C69.4029 65.6633 67.8164 67.2936 67.4907 67.3642C67.4507 67.3724 67.3972 67.3724 67.3838 67.3264C67.3588 67.246 67.5124 67.0358 67.5575 66.9784C67.6661 66.8355 69.2677 65.3546 69.3595 65.3135C69.4213 65.2856 69.5566 65.2167 69.6167 65.2413C69.6518 65.2561 69.7052 65.2938 69.6902 65.3135H69.6885Z" fill="white"/>
<path fill-rule="evenodd" clip-rule="evenodd" d="M65.9975 68.0899V68.08C65.9975 68.08 66.0593 68.0718 66.0994 68.08C66.1745 68.0948 66.1946 68.2146 66.1729 68.2721C66.1328 68.3772 65.8722 68.5348 65.7787 68.5545C65.6685 68.5775 65.6284 68.5134 65.6618 68.3969C65.7002 68.2606 65.8205 68.2113 65.9708 68.1128C65.9958 68.0964 65.9975 68.0948 65.9975 68.0899Z" fill="white"/>
<path fill-rule="evenodd" clip-rule="evenodd" d="M63.3587 71.1798L63.17 71.1896C63.1399 71.1913 63.1349 71.1896 63.1149 71.1765C63.0915 71.1601 63.0664 71.1338 63.0564 71.1092C63.0497 71.0944 63.0498 71.0927 63.0447 71.0927H63.0347C63.0347 71.0927 63.0264 70.9992 63.0347 70.9351C63.0497 70.8136 63.3119 70.5214 63.3621 70.4754C63.5341 70.3178 63.813 70.2488 63.8664 70.5329C63.9048 70.7332 63.7512 70.6889 63.5524 70.8054C63.5274 70.8202 63.5107 70.835 63.5007 70.858C63.4773 70.9138 63.5007 71.0123 63.4723 71.078C63.4589 71.1075 63.4339 71.1305 63.4121 71.1535C63.3921 71.1748 63.3871 71.1781 63.357 71.1798H63.3587Z" fill="white"/>
<path fill-rule="evenodd" clip-rule="evenodd" d="M95.9165 20.2142C95.9315 18.505 95.9532 16.7959 95.98 15.0868L65.3797 9.6835L34.8997 15.1032V16.1244C34.918 17.4149 34.9381 18.7776 34.9581 20.1616L36.2407 19.5969C55.3594 11.1841 75.2079 11.1562 94.3099 19.5131L95.9165 20.2158V20.2142Z" fill="#D3D5E0"/>
<path fill-rule="evenodd" clip-rule="evenodd" d="M12.1531 120.689V118.489H13.3986C14.0185 118.489 15.264 118.364 15.264 116.897V103.676C15.264 102.881 15.2009 100.985 13.6454 100.985H12.2162L13.8348 98.1688H109.603V100.985H21.4917C20.6824 100.985 19.6263 101.171 19.6263 102.762V106.926C19.8157 107.417 20.5619 107.598 20.935 107.598C21.3081 107.598 22.6167 107.536 22.6167 105.516H24.4822V112.31H22.6167C22.6167 111.7 21.928 110.673 20.9981 110.594C20.2519 110.532 19.6263 110.781 19.6263 111.757V116.897C19.6263 117.45 20.3093 118.489 21.928 118.489H23.0472V120.689H12.1531Z" fill="#D3D5E0"/>
<path fill-rule="evenodd" clip-rule="evenodd" d="M67.4216 104.167C67.4216 104.658 68.0415 105.149 68.4203 105.268C68.8565 104.963 71.1582 103.676 72.9662 103.676C74.7743 103.676 75.7041 104.596 75.7041 106.001V112.733H71.3476V107.53C71.3476 106.859 71.1582 106.368 70.5383 106.306C69.9184 106.244 68.2998 107.53 67.8636 108.14V117.445C67.8636 118.302 68.736 118.912 69.4822 118.912V120.689H61.8884V118.855C62.6346 118.855 63.4439 118.613 63.5071 117.507V107.164C63.5071 106.859 63.0077 106.001 61.8884 106.001V104.167H67.4273H67.4216Z" fill="#D3D5E0"/>
<path fill-rule="evenodd" clip-rule="evenodd" d="M119.539 104.167H111.945V106.001C113.065 106.001 113.564 106.859 113.564 107.164V117.507C113.501 118.607 112.691 118.856 111.945 118.856V120.689H119.539V118.912C118.793 118.912 117.92 118.303 117.92 117.445V107.288C117.92 106.554 118.73 106.001 119.539 106.001V104.167Z" fill="#D3D5E0"/>
<path fill-rule="evenodd" clip-rule="evenodd" d="M50.6154 104.167C50.6154 104.658 51.2353 105.149 51.6142 105.268C52.0504 104.963 54.3521 103.676 56.1601 103.676C57.9681 103.676 58.898 104.596 58.898 106.001V112.733H54.5415V107.53C54.5415 106.859 54.3521 106.368 53.7322 106.306C53.1123 106.244 51.4936 107.53 51.0574 108.14V117.445C51.0574 118.302 51.9299 118.912 52.676 118.912V120.689H45.0823V118.855C45.8284 118.855 46.6378 118.613 46.7009 117.507V107.164C46.7009 106.859 46.2015 106.001 45.0823 106.001V104.167H50.6212H50.6154Z" fill="#D3D5E0"/>
<path fill-rule="evenodd" clip-rule="evenodd" d="M101.114 104.167C101.114 104.658 101.734 105.149 102.113 105.268C102.549 104.963 104.851 103.676 106.659 103.676C108.467 103.676 109.397 104.596 109.397 106.001V112.733H105.04V107.53C105.04 106.859 104.851 106.368 104.231 106.306C103.611 106.244 101.992 107.53 101.556 108.14V117.445C101.556 118.302 102.429 118.912 103.175 118.912V120.689H95.5811V118.855C96.3272 118.855 97.1365 118.613 97.1997 117.507V107.164C97.1997 106.859 96.7003 106.001 95.5811 106.001V104.167H101.12H101.114Z" fill="#D3D5E0"/>
<path fill-rule="evenodd" clip-rule="evenodd" d="M41.7875 115.549H37.431V117.202C37.431 117.873 37.3047 119.284 35.2499 119.284C33.195 119.284 32.5751 117.936 32.5751 116.959V113.472C32.5751 113.167 32.822 112.739 33.2582 112.739H41.7875V108.269C41.7875 106.249 41.3513 105.64 40.4788 104.782C39.6064 103.924 36.5586 103.682 35.1867 103.682C31.7027 103.682 30.5777 104.173 29.5847 104.968C28.586 105.764 28.2129 107.417 28.2129 108.642V115.56C28.2129 117.394 28.586 118.68 29.7684 119.843C30.9508 121.005 34.5611 121.005 35.3073 121.005C36.0535 121.005 38.5445 121.067 40.3468 119.781C42.1549 118.494 41.776 115.56 41.776 115.56L41.7875 115.549ZM32.5751 107.959C32.5751 106.977 32.8851 105.51 35.0662 105.51C37.2473 105.51 37.431 107.101 37.431 107.959V110.16C37.431 110.527 37.1211 110.893 36.6848 110.893H33.3213C32.9482 110.893 32.5751 110.589 32.5751 110.222V107.959Z" fill="#D3D5E0"/>
<path fill-rule="evenodd" clip-rule="evenodd" d="M91.7124 117.445V108.264C91.7124 106.859 91.6493 105.386 90.1569 104.348C88.6646 103.31 86.2366 103.366 85.301 103.366C84.3654 103.366 81.2545 103.366 79.8253 104.957C78.3961 106.549 78.6429 108.078 78.6429 108.693H82.7181C82.7181 108.693 82.9994 106.611 83.5561 106.063C84.1186 105.51 85.611 104.901 86.7647 105.877C87.1894 106.238 87.3559 106.701 87.3559 107.226V109.855C87.3559 110.098 87.1091 110.465 86.7934 110.465C86.7934 110.465 81.1282 110.589 80.1352 111.322C79.1365 112.056 78.2698 112.547 78.2698 115.238C78.2698 117.93 78.9528 118.974 79.7621 119.521C80.5714 120.074 80.9445 120.684 84.618 120.684H93.331V118.906C92.5848 118.906 91.7124 118.297 91.7124 117.439V117.445ZM87.3559 118.483C87.3559 118.635 87.1091 118.85 86.9197 118.85H84.773C83.2462 118.85 82.81 117.563 82.81 116.768V114.409C82.81 112.112 85.2379 112.174 86.2022 112.174C87.1665 112.174 87.3559 112.97 87.3559 113.489V118.477V118.483Z" fill="#D3D5E0"/>
<path fill-rule="evenodd" clip-rule="evenodd" d="M115.458 100.956C117.639 100.956 119.401 100.307 119.401 99.5005C119.401 98.6936 117.634 98.0447 115.458 98.0447C113.283 98.0447 111.515 98.6936 111.515 99.5005C111.515 100.307 113.283 100.956 115.458 100.956Z" fill="#D3D5E0"/>
</svg>
