<svg width="152" height="130" viewBox="0 0 152 130" fill="none" xmlns="http://www.w3.org/2000/svg">
<path fill-rule="evenodd" clip-rule="evenodd" d="M36.7903 25.729C36.7903 25.729 36.2145 32.8316 36.76 40.8221C37.9118 57.6458 40.8216 65.9673 44.3679 68.4653C51.7181 73.6267 65.4334 72.9646 76.2086 72.9646V74.8908C59.7957 74.334 47.4898 74.9209 41.9431 68.3298C38.5938 64.3421 36.6236 51.0848 36.2448 40.5663C35.9417 31.8986 36.6085 25.6838 36.6085 25.6838C36.6085 25.6838 36.6388 25.6838 36.7146 25.7139C36.7449 25.7139 36.7752 25.7139 36.8055 25.729H36.7903Z" fill="#D3D5E0"/>
<path fill-rule="evenodd" clip-rule="evenodd" d="M44.8074 18.4758C44.5497 18.7166 44.3224 18.9724 44.0951 19.2734C40.9883 23.3965 41.352 29.5813 41.2914 34.4568C41.2156 40.6716 41.5036 46.9918 42.3674 53.1615C42.8372 56.5021 43.1858 60.7156 44.8074 63.8907L43.2312 64.4926C43.2312 64.4926 39.2606 56.8181 39.2606 34.6374C39.2606 18.7467 44.7922 18.4758 44.7922 18.4758H44.8074Z" fill="#D3D5E0"/>
<path fill-rule="evenodd" clip-rule="evenodd" d="M44.7165 63.695C44.5801 63.3941 43.9436 61.4228 43.6102 60.0534C43.5344 59.7224 42.9282 56.487 42.8221 55.8851C42.4432 54.1546 41.9886 51.2353 41.6703 47.8946C41.0338 41.2585 40.6398 33.7495 40.6398 31.3719C40.5488 31.703 40.5034 35.3596 40.4731 35.8562C40.4427 36.1572 40.4427 38.1285 40.4427 38.5047C40.4427 48.0301 42.5038 62.7169 44.7316 63.695H44.7165Z" fill="#D3D5E0"/>
<path fill-rule="evenodd" clip-rule="evenodd" d="M42.4583 18.7166C39.6092 22.7193 39.2606 27.7905 39.2606 35.8863C39.2606 40.2503 39.8517 54.3803 42.1855 61.799C42.2765 62.1 43.0494 63.4994 43.3222 63.2286C43.595 62.9727 43.4283 62.431 43.2464 62.0097C43.0645 61.5733 40.5336 50.3926 40.5336 35.9164C40.5336 34.6223 40.4276 26.2255 41.3672 23.8479C42.4583 21.1092 43.2919 20.2515 44.5194 18.7617C46.1713 16.7302 50.9755 15.6317 50.9755 15.6317C50.9755 15.6317 51.2028 15.5866 51.2786 15.6167C51.4907 15.6769 51.5665 15.7973 51.5665 15.7973C51.5665 15.7973 52.0363 15.075 53.5518 14.5182C55.325 13.8711 56.9314 13.7357 56.9314 13.7357L58.7652 14.8041C58.7652 14.8041 58.7955 14.774 58.8561 14.7439C59.2956 14.5483 66.5397 13.7808 76.1935 13.9012V12.6372C57.9165 12.6372 46.4138 13.1488 42.4432 18.7166H42.4583Z" fill="#D3D5E0"/>
<path fill-rule="evenodd" clip-rule="evenodd" d="M40.5336 32.9069C40.5336 32.9069 40.3972 29.0395 40.6852 26.1503C40.7761 25.1571 40.9277 24.2844 41.1398 23.7276C41.7006 22.2679 42.3371 21.1845 42.913 20.402C43.2161 19.9957 43.504 19.6646 43.7465 19.4088C44.2618 18.8821 44.5952 18.6714 44.5952 18.6714C44.5952 18.6714 42.4735 20.8685 41.6703 24.0285C41.6248 24.2091 41.5793 24.4047 41.549 24.6004C41.1701 26.6318 40.7003 30.6045 40.5942 32.3049C40.5639 32.5307 40.5639 32.7564 40.5488 32.8467C40.5488 32.8918 40.5185 32.9069 40.5488 32.9069H40.5336Z" fill="#D3D5E0"/>
<path d="M76.2086 72.3477C56.3707 72.3477 46.626 72.5884 42.8372 63.6198C40.0335 56.9536 39.2606 40.6566 39.2606 35.9014C39.2606 15.1051 42.1249 12.6523 76.2086 12.6523" fill="#D3D5E0"/>
<path d="M76.2086 72.3477C56.3707 72.3477 46.626 72.5884 42.8372 63.6198C40.0335 56.9536 39.2606 40.6566 39.2606 35.9014C39.2606 15.1051 42.1249 12.6523 76.2086 12.6523" stroke="#939393" stroke-width="0.203489" stroke-miterlimit="22.93"/>
<path fill-rule="evenodd" clip-rule="evenodd" d="M115.627 25.729C115.627 25.729 114.687 16.6701 107.625 14.2624C98.1381 11.0271 86.9688 11.3882 76.1936 11.3882V10.2596C79.649 10.2596 100.139 10.3048 108.292 13.7056C115.566 16.7303 115.794 25.6838 115.794 25.6838C115.794 25.6838 115.794 25.6838 115.612 25.729H115.627Z" fill="#D3D5E0"/>
<path fill-rule="evenodd" clip-rule="evenodd" d="M115.627 25.729C115.627 25.729 116.203 32.8316 115.657 40.8221C114.506 57.6458 111.596 65.9673 108.05 68.4653C100.699 73.6267 86.984 72.9646 76.2087 72.9646V74.8908C92.6217 74.334 104.928 74.9209 110.474 68.3298C113.824 64.3421 115.794 51.0848 116.173 40.5663C116.491 31.8986 115.809 25.6838 115.809 25.6838C115.809 25.6838 115.779 25.6838 115.718 25.7139C115.688 25.7139 115.657 25.7139 115.627 25.729Z" fill="#D3D5E0"/>
<path fill-rule="evenodd" clip-rule="evenodd" d="M113.142 34.6374C113.142 56.8181 109.171 64.4926 109.171 64.4926L107.595 63.8907C109.232 60.7156 109.58 56.5021 110.035 53.1615C110.899 46.9918 111.187 40.6716 111.111 34.4568C111.05 29.5813 111.414 23.3965 108.307 19.2734C108.095 18.9875 107.852 18.7166 107.595 18.4758C107.595 18.4758 113.142 18.7467 113.142 34.6374Z" fill="#D3D5E0"/>
<path fill-rule="evenodd" clip-rule="evenodd" d="M109.959 18.7166C112.808 22.7193 113.157 27.7905 113.157 35.8863C113.157 40.2503 112.551 54.3803 110.232 61.799C110.141 62.1 109.368 63.4994 109.095 63.2286C108.838 62.9727 108.989 62.431 109.171 62.0097C109.353 61.5733 111.884 50.3926 111.884 35.9164C111.884 34.6223 111.99 26.2255 111.05 23.8479C109.959 21.1092 109.126 20.2515 107.898 18.7617C106.246 16.7302 101.442 15.6317 101.442 15.6317C101.442 15.6317 101.215 15.5866 101.124 15.6167C100.911 15.6769 100.836 15.7973 100.836 15.7973C100.836 15.7973 100.366 15.075 98.8504 14.5182C97.0773 13.8711 95.4557 13.7357 95.4557 13.7357L93.6219 14.8041C93.6219 14.8041 93.5916 14.774 93.531 14.7439C93.0915 14.5483 85.8474 13.7808 76.1936 13.9012V12.6372C94.4706 12.6372 105.973 13.1488 109.944 18.7166H109.959Z" fill="#D3D5E0"/>
<path fill-rule="evenodd" clip-rule="evenodd" d="M111.884 32.9069C111.884 32.9069 112.02 29.0395 111.732 26.1503C111.641 25.1571 111.49 24.2844 111.277 23.7276C110.717 22.2679 110.08 21.1845 109.504 20.402C109.201 19.9957 108.913 19.6646 108.671 19.4088C108.155 18.8821 107.822 18.6714 107.822 18.6714C107.822 18.6714 109.944 20.8685 110.747 24.0285C110.792 24.2091 110.838 24.4047 110.868 24.6004C111.262 26.6318 111.717 30.6045 111.823 32.3049C111.853 32.5307 111.853 32.7564 111.868 32.8467C111.868 32.8918 111.899 32.9069 111.868 32.9069H111.884Z" fill="#D3D5E0"/>
<path d="M76.2087 72.3477C96.0467 72.3477 105.791 72.5884 109.58 63.6198C112.384 56.9536 113.157 40.6566 113.157 35.9014C113.157 15.1051 110.292 12.6523 76.2087 12.6523" fill="#D3D5E0"/>
<path d="M76.2087 72.3477C96.0467 72.3477 105.791 72.5884 109.58 63.6198C112.384 56.9536 113.157 40.6566 113.157 35.9014C113.157 15.1051 110.292 12.6523 76.2087 12.6523" stroke="#939393" stroke-width="0.203489" stroke-miterlimit="22.93"/>
<path d="M76.2086 12.6372C42.1401 12.6372 39.2606 15.075 39.2606 35.8863C39.2606 40.6415 40.0335 56.9385 42.8372 63.6048C46.626 72.5884 56.3555 72.3326 76.2086 72.3326C96.0618 72.3326 105.791 72.5734 109.58 63.6048C112.384 56.9385 113.157 40.6415 113.157 35.8863C113.157 15.09 110.292 12.6372 76.2086 12.6372Z" fill="white"/>
<path d="M76.2086 12.6372C42.1401 12.6372 39.2606 15.075 39.2606 35.8863C39.2606 40.6415 40.0335 56.9385 42.8372 63.6048C46.626 72.5884 56.3555 72.3326 76.2086 72.3326C96.0618 72.3326 105.791 72.5734 109.58 63.6048C112.384 56.9385 113.157 40.6415 113.157 35.8863C113.157 15.09 110.292 12.6372 76.2086 12.6372Z" stroke="#D3D5E0" stroke-width="0.101744" stroke-miterlimit="22.93"/>
<path fill-rule="evenodd" clip-rule="evenodd" d="M110.141 19.6947C110.095 19.6045 107.761 17.0012 105.261 16.1735C104.427 15.9026 101.684 15.1803 100.866 15.3609C100.639 15.4061 100.669 15.5114 100.669 15.5866C99.9869 15.0901 99.6384 14.8493 99.4262 14.759C98.6381 14.443 98.4866 14.3076 95.8647 13.7959C95.986 13.7959 96.3497 13.826 96.5164 13.8411C98.0622 13.9163 101.639 14.3828 105.443 15.7823C108.353 16.8507 110.186 19.5593 110.232 19.6496C110.232 19.6496 110.201 19.6647 110.201 19.6797C110.186 19.6797 110.171 19.6947 110.156 19.7098L110.141 19.6947Z" fill="#D3D5E0"/>
<path fill-rule="evenodd" clip-rule="evenodd" d="M110.05 53.1464C109.459 57.405 109.05 62.9728 105.973 66.2683C104.897 67.427 96.5012 72.2875 96.8952 68.5405C98.441 56.8633 99.2897 45.1409 100.017 33.3884C100.229 28.4526 100.517 23.5169 100.578 18.5812C100.654 17.7535 100.123 15.6919 101.442 15.6468C103.927 16.3691 106.67 17.0914 108.322 19.2583C111.429 23.3815 111.065 29.5662 111.126 34.4418C111.202 40.6566 110.914 46.9767 110.05 53.1464ZM93.5914 15.5415C91.8789 21.7111 89.9087 29.8822 88.1659 36.082C86.7565 41.0328 85.1501 47.4282 79.0577 48.0602C78.1484 48.1505 77.1785 48.2257 76.2086 48.2408C75.2387 48.2408 74.2687 48.1505 73.3594 48.0602C67.2671 47.4282 65.6607 41.0478 64.2512 36.082C62.4933 29.8822 60.5231 21.7111 58.8257 15.5415C58.5378 14.4731 58.9773 14.7138 61.1748 14.4279C65.1454 13.9012 71.0559 13.8109 76.2086 13.8711C81.3765 13.826 87.2869 13.9012 91.2424 14.4279C93.455 14.7289 93.8945 14.4881 93.5914 15.5415ZM87.0899 70.8579C86.6049 70.9482 84.953 70.9332 83.1193 70.9783C80.8157 71.0385 78.5121 71.0385 76.1934 71.0385C73.8747 71.0385 71.5863 71.0385 69.2676 70.9783C67.449 70.9332 65.7971 70.9332 65.2969 70.8579C64.812 70.7676 64.2967 70.7375 64.4483 70.1958C64.5998 69.6541 66.8124 62.5514 66.8124 62.5514C68.2673 57.8414 68.3734 57.5254 72.1016 56.8031C73.3443 56.5623 74.7537 56.4118 76.1934 56.3968C77.618 56.3968 79.0426 56.5623 80.2853 56.8031C84.0134 57.5254 84.1195 57.8414 85.5744 62.5514C85.5744 62.5514 87.787 69.639 87.9386 70.1958C88.0901 70.7375 87.5749 70.7676 87.0899 70.8579ZM46.4441 66.2833C43.3524 62.9878 42.9584 57.4201 42.3673 53.1615C41.5035 46.9918 41.2156 40.6716 41.2913 34.4568C41.352 29.5812 40.9882 23.3965 44.095 19.2734C45.7318 17.0914 48.4748 16.3691 50.9754 15.6618C52.2939 15.722 51.7635 17.7686 51.8393 18.5962C51.915 23.532 52.1878 28.4677 52.4 33.4034C53.1274 45.1559 53.9761 56.8783 55.5219 68.5556C55.916 72.2875 47.5201 67.442 46.4441 66.2833ZM116.188 29.19C115.915 24.5853 115.233 19.5593 111.793 16.1584C108.656 13.0585 104.139 12.1858 99.9262 11.629C92.0153 10.5606 84.1953 10.2596 76.2086 10.2596C68.2067 10.2596 60.4019 10.5455 52.4758 11.5989C48.2627 12.1557 43.7465 13.0284 40.6094 16.1283C37.1692 19.5292 36.4872 24.5552 36.2144 29.1599C35.8961 34.5019 36.1689 39.8139 36.5023 45.1409C36.8358 50.3776 37.4268 55.6745 38.715 60.7758C39.306 63.1383 40.1244 65.5159 41.5035 67.5624C42.8372 69.5187 44.7467 70.9031 46.8987 71.8812C51.4604 73.9428 56.7192 74.1233 61.6446 74.4243C66.479 74.7253 71.3438 74.9058 76.2086 74.9209C81.0734 74.8908 85.9381 74.7253 90.7726 74.4243C95.698 74.1233 100.957 73.9428 105.518 71.8812C107.67 70.9031 109.58 69.5187 110.914 67.5624C112.293 65.5309 113.111 63.1533 113.702 60.7758C114.99 55.6745 115.581 50.3776 115.915 45.1409C116.248 39.8139 116.521 34.4869 116.203 29.1599L116.188 29.19Z" fill="#D3D5E0"/>
<path fill-rule="evenodd" clip-rule="evenodd" d="M62.1145 71.4598C62.1297 71.3695 62.1145 71.4598 62.1297 71.3696C62.7056 68.9318 62.9935 67.6075 63.5997 65.4256C64.2665 63.048 64.8121 61.4981 65.676 59.2559C66.2215 57.8414 67.4491 55.9754 69.2677 55.2983C71.0105 54.6663 72.4351 54.3051 76.2087 54.3051V55.9604C76.2087 56.1109 76.2087 55.9152 76.2087 56.472C73.1777 56.472 71.3439 56.6676 69.8739 57.6006C69.101 58.0972 68.1614 59.0904 67.6007 60.4597C66.7671 62.5063 66.3579 63.9208 65.7517 65.8469C65.1152 67.9085 64.8121 68.9318 64.4939 70.1356C64.4939 70.1808 64.4484 70.3162 64.4484 70.4215C64.4484 70.4817 64.4484 70.5269 64.4787 70.557C63.7513 70.888 63.5391 70.9633 63.433 70.9934C63.2966 71.0385 62.9935 71.1589 62.6753 71.2642C62.5086 71.3244 62.357 71.3695 62.0994 71.4448L62.1145 71.4598Z" fill="#D3D5E0"/>
<path fill-rule="evenodd" clip-rule="evenodd" d="M56.7798 13.9012C57.7346 18.6113 60.1594 29.5662 60.6443 31.7933C61.1445 34.0204 63.7814 43.8618 65.2666 46.3447C66.0395 47.6389 66.9034 48.5568 67.9188 49.2189C69.8738 50.4679 72.435 50.7087 76.2086 50.7087V48.0753C73.1776 48.0753 71.3438 47.9699 69.8738 47.0219C69.1009 46.5253 68.434 45.803 67.7369 44.7497C65.5697 41.4391 63.8421 34.6374 62.9024 31.2817C62.2962 29.0847 59.4016 17.7385 58.7197 15.0599C58.2044 14.759 57.9619 14.6536 57.7497 14.4731C57.5527 14.3226 57.3709 14.2323 56.7646 13.8862L56.7798 13.9012Z" fill="#D3D5E0"/>
<path fill-rule="evenodd" clip-rule="evenodd" d="M76.2086 50.829C67.1307 50.829 64.7665 49.1888 61.1748 33.9602C57.5982 18.7317 56.8101 13.8862 56.8101 13.8862C56.8101 13.8862 55.234 14.0969 53.6579 14.6687C52.0818 15.2405 51.6726 15.9478 51.6726 15.9478C51.6726 15.9478 51.3392 26.7071 53.279 46.3297C55.2037 65.9523 55.5977 69.2929 55.5977 69.2929C55.5977 69.2929 58.6894 71.0987 60.1746 71.3094C61.493 71.49 62.1144 71.4599 62.1144 71.4599C62.1144 71.4599 63.0086 67.1411 64.3422 63.0932C66.3124 57.1342 66.767 54.3051 76.2086 54.3051V50.814V50.829Z" fill="#D3D5E0"/>
<path fill-rule="evenodd" clip-rule="evenodd" d="M76.2086 54.3051C70.4951 54.3051 67.8884 55.4788 66.4942 57.6608C65.6152 59.0452 65.0696 60.8961 64.2967 63.2135C63.5541 65.4707 63.5086 66.0425 63.1449 67.1561C62.7963 68.2696 62.0992 71.4598 62.0992 71.4598C62.0992 71.4598 59.9927 71.4448 58.9621 71.1137C57.1435 70.5268 56.4767 70.256 55.4007 69.6691C55.4007 69.6691 55.5977 69.4735 55.5674 69.2327C55.4007 67.457 53.9458 53.342 53.7942 51.7921C53.5063 48.8728 53.6882 50.7838 53.2638 46.3296C52.6425 40.0697 52.2636 34.7126 52.0211 30.3186C51.5058 20.9437 51.6574 15.9477 51.6574 15.9477C51.6574 15.9477 52.0211 15.3308 53.3548 14.774C53.5972 14.6837 55.5371 13.841 55.5825 14.2623C55.6129 14.6085 55.7341 15.5866 56.0524 17.4676C56.5373 20.3568 57.5072 25.3678 59.4016 33.4335C59.4471 33.599 59.4774 33.7796 59.5229 33.9451C61.3112 41.6497 61.4021 45.8782 63.448 48.7072C64.2815 49.8509 65.0696 50.6785 65.9638 51.3105C68.0855 52.7702 70.8134 53.7182 76.1934 54.3051H76.2086Z" fill="#D3D5E0"/>
<path fill-rule="evenodd" clip-rule="evenodd" d="M36.7902 25.729C36.7902 25.729 37.7299 16.6701 44.7921 14.2624C54.2792 11.0271 65.4484 11.3882 76.2237 11.3882V10.2596C72.7683 10.2596 52.2787 10.3048 44.1253 13.7056C36.8509 16.7303 36.6235 25.6838 36.6235 25.6838C36.6235 25.6838 36.6235 25.6838 36.8054 25.729H36.7902Z" fill="#D3D5E0"/>
<path d="M62.2811 70.6323V72.0167H76.2086V70.6323H62.2811Z" fill="#D3D5E0"/>
<path fill-rule="evenodd" clip-rule="evenodd" d="M62.2811 71.49C62.6752 71.3546 63.2207 71.2041 63.5693 71.0687C63.8876 70.9483 64.221 70.7827 64.5695 70.6323C64.7362 70.7526 64.9484 70.7677 65.1454 70.7827C65.6759 70.8429 66.964 70.9182 69.8283 70.9784C73.6929 71.0536 76.2086 71.0536 76.2086 71.0536V71.9715C76.2086 71.9715 73.1321 72.0167 68.9342 71.8662C65.9638 71.7609 65.6304 71.7458 64.8272 71.7007C64.4938 71.7007 62.2963 71.49 62.2963 71.49H62.2811Z" fill="#D3D5E0"/>
<path fill-rule="evenodd" clip-rule="evenodd" d="M43.2312 64.4776C43.4888 65.1698 44.8376 67.2313 46.2774 68.39C49.3993 70.9031 56.2039 72.137 59.0531 71.8962C59.4016 71.8661 60.9929 71.9263 61.2506 71.8511C60.2049 71.7307 58.5984 71.2943 56.8859 70.5269C56.4313 70.3162 55.7644 70.0002 55.3401 69.7594C55.2492 69.8497 55.0976 69.9099 54.8854 69.94C54.0974 70.0453 49.0659 69.1725 47.0806 66.9454C46.5047 66.2984 45.459 65.2902 44.8073 63.8907C44.5497 63.996 44.2769 64.0863 44.0193 64.1916C43.7616 64.297 43.4888 64.3873 43.2312 64.4926V64.4776Z" fill="#D3D5E0"/>
<path fill-rule="evenodd" clip-rule="evenodd" d="M58.7501 14.9546C58.7501 14.9546 58.7501 14.7891 58.9017 14.7439C59.0835 14.6837 59.417 14.6236 60.1292 14.5182C61.084 14.3978 62.7208 14.2474 65.5093 14.1571C71.6925 13.9614 75.9814 13.9163 76.2088 13.9163V13.209C76.2088 13.209 69.7224 13.0887 65.0698 13.2843C60.7809 13.4649 58.0833 13.5852 57.0225 13.7508C56.8406 13.7809 56.8254 13.826 56.8254 13.826C57.2952 14.0969 57.3104 14.0969 57.4468 14.1721C57.5983 14.2624 58.1742 14.6085 58.7653 14.9546H58.7501Z" fill="#D3D5E0"/>
<path fill-rule="evenodd" clip-rule="evenodd" d="M42.2764 19.6947C42.3218 19.6045 44.6557 17.0012 47.1563 16.1735C47.9898 15.9026 50.7329 15.1803 51.5513 15.3609C51.7786 15.4061 51.7483 15.5114 51.7483 15.5866C52.4303 15.0901 52.7788 14.8493 52.991 14.759C53.7791 14.443 53.9306 14.3076 56.5524 13.7959C56.4312 13.7959 56.0675 13.826 55.9008 13.8411C54.3398 13.9163 50.7784 14.3828 46.9744 15.7823C44.0647 16.8507 42.2309 19.5593 42.1703 19.6496C42.1703 19.6496 42.2006 19.6647 42.2158 19.6797C42.2309 19.6797 42.2461 19.6947 42.2612 19.7098L42.2764 19.6947Z" fill="#D3D5E0"/>
<path fill-rule="evenodd" clip-rule="evenodd" d="M90.3029 71.4598C90.2878 71.3695 90.3029 71.4598 90.2878 71.3696C89.7119 68.9318 89.4239 67.6075 88.8177 65.4256C88.1509 63.048 87.6053 61.4981 86.7415 59.2559C86.1959 57.8414 84.9835 55.9754 83.1498 55.2983C81.4069 54.6663 79.9975 54.3051 76.2087 54.3051V55.9604C76.2087 56.1109 76.2087 55.9152 76.2087 56.472C79.2398 56.472 81.0735 56.6676 82.5436 57.6006C83.3165 58.0972 84.2561 59.0904 84.8168 60.4597C85.6503 62.5063 86.0595 63.9208 86.6657 65.8469C87.3022 67.9085 87.6053 68.9318 87.9236 70.1356C87.9236 70.1808 87.9691 70.3162 87.9691 70.4215C87.9691 70.4817 87.9691 70.5269 87.9387 70.557C88.6662 70.888 88.8784 70.9633 88.9845 70.9934C89.1208 71.0385 89.4239 71.1589 89.7422 71.2642C89.9089 71.3244 90.0605 71.3695 90.3181 71.4448L90.3029 71.4598Z" fill="#D3D5E0"/>
<path fill-rule="evenodd" clip-rule="evenodd" d="M95.6375 13.9012C94.6827 18.6113 92.2731 29.5662 91.773 31.7933C91.2729 34.0204 88.6359 43.8618 87.1507 46.3447C86.3778 47.6389 85.5139 48.5568 84.4986 49.2189C82.5435 50.4679 79.9823 50.7087 76.2087 50.7087V48.0753C79.2398 48.0753 81.0735 47.9699 82.5436 47.0219C83.3165 46.5253 83.9833 45.803 84.6804 44.7497C86.8476 41.4391 88.5753 34.6374 89.5149 31.2817C90.1211 29.0847 93.0157 17.7385 93.6977 15.0599C94.2129 14.759 94.4554 14.6536 94.6827 14.4731C94.8798 14.3226 95.0616 14.2323 95.6527 13.8862L95.6375 13.9012Z" fill="#D3D5E0"/>
<path fill-rule="evenodd" clip-rule="evenodd" d="M76.2087 50.829C85.2866 50.829 87.6508 49.1888 91.2425 33.9602C94.8343 18.7317 95.6224 13.8862 95.6224 13.8862C95.6224 13.8862 97.1985 14.0969 98.7746 14.6687C100.351 15.2405 100.76 15.9478 100.76 15.9478C100.76 15.9478 101.093 26.7071 99.1535 46.3297C97.2288 65.9523 96.8348 69.2929 96.8348 69.2929C96.8348 69.2929 93.7431 71.0987 92.2579 71.3094C90.9395 71.49 90.3181 71.4599 90.3181 71.4599C90.3181 71.4599 89.4239 67.1411 88.0903 63.0932C86.1201 57.1342 85.6655 54.3051 76.2239 54.3051V50.814L76.2087 50.829Z" fill="#D3D5E0"/>
<path fill-rule="evenodd" clip-rule="evenodd" d="M76.2087 54.3051C81.9222 54.3051 84.5289 55.4788 85.9231 57.6608C86.8021 59.0452 87.3477 60.8961 88.1206 63.2135C88.8632 65.4707 88.9087 66.0425 89.2724 67.1561C89.621 68.2696 90.3181 71.4598 90.3181 71.4598C90.3181 71.4598 92.4246 71.4448 93.44 71.1137C95.2586 70.5268 95.9255 70.256 97.0015 69.6691C97.0015 69.6691 96.8196 69.4735 96.8348 69.2327C97.0015 67.457 98.4564 53.342 98.6079 51.7921C98.8959 48.8728 98.714 50.7838 99.1383 46.3296C99.7597 40.0697 100.139 34.7126 100.381 30.3186C100.896 20.9437 100.745 15.9477 100.745 15.9477C100.745 15.9477 100.396 15.3308 99.0474 14.774C98.8049 14.6837 96.8651 13.841 96.8196 14.2623C96.7893 14.6085 96.6681 15.5866 96.3498 17.4676C95.8648 20.3568 94.8949 25.3678 93.0005 33.4335C92.9551 33.599 92.9248 33.7796 92.8793 33.9451C91.091 41.6497 91.0001 45.8782 88.9541 48.7072C88.1206 49.8509 87.3325 50.6785 86.4384 51.3105C84.3167 52.7702 81.5888 53.7182 76.2087 54.3051Z" fill="#D3D5E0"/>
<path d="M76.2085 70.6323V72.0167H90.1208V70.6323H76.2085Z" fill="#D3D5E0"/>
<path fill-rule="evenodd" clip-rule="evenodd" d="M90.1211 71.49C89.7422 71.3546 89.1815 71.2041 88.8329 71.0687C88.5147 70.9483 88.1813 70.7827 87.8327 70.6323C87.666 70.7526 87.4538 70.7677 87.2568 70.7827C86.7264 70.8429 85.4382 70.9182 82.5587 70.9784C78.6942 71.0536 76.1785 71.0536 76.1785 71.0536V71.9715C76.1785 71.9715 79.2549 72.0167 83.4529 71.8662C86.4233 71.7609 86.7567 71.7458 87.5599 71.7007C87.8933 71.7007 90.0908 71.49 90.0908 71.49H90.1211Z" fill="#D3D5E0"/>
<path fill-rule="evenodd" clip-rule="evenodd" d="M109.171 64.4776C108.913 65.1698 107.564 67.2313 106.125 68.39C103.003 70.9031 96.1981 72.137 93.349 71.8962C93.0004 71.8661 91.4091 71.9263 91.1515 71.8511C92.2123 71.7307 93.8036 71.2943 95.5161 70.5269C95.9708 70.3162 96.6225 70.0002 97.062 69.7594C97.1529 69.8497 97.3044 69.9099 97.5166 69.94C98.3047 70.0453 103.336 69.1725 105.321 66.9454C105.897 66.2984 106.943 65.2902 107.595 63.8907C107.852 63.996 108.125 64.0863 108.383 64.1916C108.64 64.297 108.913 64.3873 109.171 64.4926V64.4776Z" fill="#D3D5E0"/>
<path fill-rule="evenodd" clip-rule="evenodd" d="M107.686 63.695C107.822 63.3941 108.474 61.4228 108.792 60.0534C108.868 59.7224 109.474 56.487 109.58 55.8851C109.959 54.1546 110.414 51.2353 110.732 47.8946C111.368 41.2585 111.762 33.7495 111.762 31.3719C111.838 31.703 111.899 35.3596 111.929 35.8562C111.944 36.1572 111.959 38.1285 111.959 38.5047C111.959 48.0301 109.898 62.7169 107.671 63.695H107.686Z" fill="#D3D5E0"/>
<path fill-rule="evenodd" clip-rule="evenodd" d="M93.6674 14.9546C93.6674 14.9546 93.6674 14.7891 93.5158 14.7439C93.3339 14.6837 93.0005 14.6236 92.2882 14.5182C91.3335 14.3978 89.6967 14.2474 86.9082 14.1571C80.7249 13.9614 76.4361 13.9163 76.2087 13.9163V13.209C76.2087 13.209 82.6951 13.0887 87.3477 13.2843C91.6366 13.4649 94.3342 13.5852 95.395 13.7508C95.5769 13.7809 95.5921 13.826 95.5921 13.826C95.1222 14.0969 95.1071 14.0969 94.9707 14.1721C94.8191 14.2624 94.2433 14.6085 93.6522 14.9546H93.6674Z" fill="#D3D5E0"/>
<path fill-rule="evenodd" clip-rule="evenodd" d="M30.7147 117.796C30.682 117.373 30.6492 117.13 30.6492 116.723V108.533C30.6492 108.046 30.4856 107.266 31.4676 107.119L33.8734 106.876V104.974H21.0587V106.876C21.5988 106.876 23.1045 107.054 23.53 107.217C23.7755 107.314 24.2828 107.493 24.2828 108.549V111.475H14.1031V108.419C14.1031 108.029 14.1849 107.412 14.905 107.168C15.3469 107.006 16.738 106.957 17.3927 106.892V104.991H4.41431V106.892C5.34718 106.989 6.11639 106.989 7.00016 107.184C7.753 107.363 7.7039 108.159 7.7039 108.598V117.065C7.68754 117.893 7.68754 117.715 7.68754 117.715C7.68754 118.462 6.93469 118.69 6.39461 118.706L4.43067 118.852V120.754H17.3927V118.852C16.9835 118.852 15.707 118.674 15.1505 118.609C14.1194 118.462 14.1031 117.845 14.1031 117.276V114.481H24.2828V116.886C24.2828 117.406 24.5119 118.381 23.399 118.56C22.4498 118.706 21.4024 118.852 21.0587 118.852V120.754H33.9552V118.852C33.186 118.771 32.9078 118.771 31.4512 118.56C31.0093 118.495 30.7802 118.153 30.7474 117.845L30.7147 117.796Z" fill="#D3D5E0"/>
<path fill-rule="evenodd" clip-rule="evenodd" d="M57.2769 106.518C54.7075 104.844 51.2869 104.519 47.6864 104.519C44.5113 104.519 40.7308 105.007 38.4722 106.437C35.9518 108.029 34.6917 110.727 34.6917 112.986C34.6917 115.033 36.0828 117.763 38.2431 119.259C40.5344 120.851 44.1186 121.306 47.49 121.306C51.0742 121.306 54.3474 121.062 56.9823 119.454C59.4209 117.991 60.9102 115.488 60.8611 112.921C60.8284 110.386 59.6009 108.094 57.2769 106.518ZM42.0237 114.562C41.5163 112.596 41.9582 110.532 43.0875 109.232C44.9696 106.827 50.5668 106.989 52.3671 109.329C53.8073 111.02 53.8073 113.668 52.8417 115.83C51.7124 117.958 49.4703 118.397 46.6717 118.3C44.2495 118.072 42.6456 116.951 42.0237 114.578V114.562Z" fill="#D3D5E0"/>
<path fill-rule="evenodd" clip-rule="evenodd" d="M79.9931 104.909V106.876C82.8571 106.892 83.1681 107.574 83.1681 109.362V116.983L73.7412 104.893H61.8921V106.794C63.3487 106.794 65.149 107.347 65.149 109.297V116.285C65.018 118.186 65.1162 118.739 61.9739 118.82V120.721H71.8754V118.82C68.7822 118.771 68.815 117.861 68.815 116.025V108.956L78.0128 120.884H86.8668V110.223C86.8668 109.589 86.8505 108.842 87.0141 108.224C87.3578 106.989 88.4053 106.957 90.091 106.811V104.909H79.9767H79.9931Z" fill="#D3D5E0"/>
<path fill-rule="evenodd" clip-rule="evenodd" d="M115.082 106.957C114.1 106.274 112.791 105.836 111.449 105.478C109.747 105.023 107.406 104.974 105.688 104.958H102.546L91.4168 104.974V106.876L93.5935 107.087C94.1663 107.217 94.5591 107.639 94.5427 108.436V117.52C94.5427 117.52 94.4609 118.316 93.8389 118.56C93.217 118.804 92.3169 118.836 91.4004 118.836V120.737H103.119C104.755 120.721 108.323 120.819 110.565 120.445C113.036 120.039 115.54 118.82 116.604 117.26C117.946 115.277 118.094 114.058 118.094 112.677C118.094 110.597 117.275 108.533 115.082 106.957ZM110.598 112.612C110.712 114.936 110.32 118.121 105.148 117.861H100.5V107.997H105.361C107.112 107.997 108.077 108.208 109.125 109.004C110.303 109.914 110.532 111.247 110.598 112.596V112.612Z" fill="#D3D5E0"/>
<path fill-rule="evenodd" clip-rule="evenodd" d="M122.513 104.926V106.957C122.513 106.957 127.242 106.616 125.18 109.687L121.4 115.846C120.205 117.731 119.845 118.82 116.85 118.836V120.737H127.095V118.836C125.704 118.739 123.658 118.495 124.804 116.74C124.804 116.74 125.344 115.96 125.328 115.927H135.376L135.966 116.74C137.618 119.129 133.576 118.836 133.576 118.836V120.737H147.258V118.836C145 118.787 144.541 118.446 143.723 117.195L135.164 104.909H122.496L122.513 104.926ZM126.768 113.278L130.221 107.932L133.772 113.278H126.768Z" fill="#D3D5E0"/>
</svg>
