<svg width="200" height="57" viewBox="0 0 200 57" fill="none" xmlns="http://www.w3.org/2000/svg">
<path d="M10.976 7.312V17H9.702V9.776L6.482 17H5.586L2.352 9.762V17H1.078V7.312H2.45L6.034 15.32L9.618 7.312H10.976ZM12.6606 13.136C12.6606 12.352 12.8193 11.666 13.1366 11.078C13.4539 10.4807 13.8879 10.0187 14.4386 9.692C14.9986 9.36533 15.6193 9.202 16.3006 9.202C16.9726 9.202 17.5559 9.34667 18.0506 9.636C18.5453 9.92533 18.9139 10.2893 19.1566 10.728V9.328H20.4446V17H19.1566V15.572C18.9046 16.02 18.5266 16.3933 18.0226 16.692C17.5279 16.9813 16.9493 17.126 16.2866 17.126C15.6053 17.126 14.9893 16.958 14.4386 16.622C13.8879 16.286 13.4539 15.8147 13.1366 15.208C12.8193 14.6013 12.6606 13.9107 12.6606 13.136ZM19.1566 13.15C19.1566 12.5713 19.0399 12.0673 18.8066 11.638C18.5733 11.2087 18.2559 10.882 17.8546 10.658C17.4626 10.4247 17.0286 10.308 16.5526 10.308C16.0766 10.308 15.6426 10.42 15.2506 10.644C14.8586 10.868 14.5459 11.1947 14.3126 11.624C14.0793 12.0533 13.9626 12.5573 13.9626 13.136C13.9626 13.724 14.0793 14.2373 14.3126 14.676C14.5459 15.1053 14.8586 15.4367 15.2506 15.67C15.6426 15.894 16.0766 16.006 16.5526 16.006C17.0286 16.006 17.4626 15.894 17.8546 15.67C18.2559 15.4367 18.5733 15.1053 18.8066 14.676C19.0399 14.2373 19.1566 13.7287 19.1566 13.15ZM26.8815 17L23.8715 13.612V17H22.5975V6.64H23.8715V12.73L26.8255 9.328H28.6035L24.9915 13.15L28.6175 17H26.8815ZM36.8026 12.87C36.8026 13.1127 36.7886 13.3693 36.7606 13.64H30.6286C30.6753 14.396 30.9319 14.9887 31.3986 15.418C31.8746 15.838 32.4486 16.048 33.1206 16.048C33.6713 16.048 34.1286 15.922 34.4926 15.67C34.8659 15.4087 35.1273 15.0633 35.2766 14.634H36.6486C36.4433 15.3713 36.0326 15.9733 35.4166 16.44C34.8006 16.8973 34.0353 17.126 33.1206 17.126C32.3926 17.126 31.7393 16.9627 31.1606 16.636C30.5913 16.3093 30.1433 15.8473 29.8166 15.25C29.4899 14.6433 29.3266 13.9433 29.3266 13.15C29.3266 12.3567 29.4853 11.6613 29.8026 11.064C30.1199 10.4667 30.5633 10.0093 31.1326 9.692C31.7113 9.36533 32.3739 9.202 33.1206 9.202C33.8486 9.202 34.4926 9.36067 35.0526 9.678C35.6126 9.99533 36.0419 10.434 36.3406 10.994C36.6486 11.5447 36.8026 12.17 36.8026 12.87ZM35.4866 12.604C35.4866 12.1187 35.3793 11.7033 35.1646 11.358C34.9499 11.0033 34.6559 10.7373 34.2826 10.56C33.9186 10.3733 33.5126 10.28 33.0646 10.28C32.4206 10.28 31.8699 10.4853 31.4126 10.896C30.9646 11.3067 30.7079 11.876 30.6426 12.604H35.4866Z" fill="#AFB1BA"/>
<path d="M54.28 10.4667L49.9333 14.8133C49.42 15.3267 48.58 15.3267 48.0666 14.8133L43.72 10.4667" stroke="#AFB1BA" stroke-width="1.5" stroke-miterlimit="10" stroke-linecap="round" stroke-linejoin="round"/>
<path d="M2.688 36.848V48H1.232V36.848H2.688ZM13.9375 48H12.4815L6.6255 39.12V48H5.1695V36.832H6.6255L12.4815 45.696V36.832H13.9375V48ZM22.7235 36.848V38.032H17.8755V41.792H21.8115V42.976H17.8755V48H16.4195V36.848H22.7235ZM25.938 36.848V48H24.482V36.848H25.938ZM37.1875 48H35.7315L29.8755 39.12V48H28.4195V36.832H29.8755L35.7315 45.696V36.832H37.1875V48ZM41.1255 36.848V48H39.6695V36.848H41.1255ZM50.471 36.848V38.032H47.431V48H45.975V38.032H42.919V36.848H50.471ZM53.7193 36.848V48H52.2633V36.848H53.7193Z" fill="#100E34"/>
</svg>
