<svg width="464" height="43" viewBox="0 0 464 43" fill="none" xmlns="http://www.w3.org/2000/svg">
<line x1="3.44088e-08" y1="21.5" x2="464" y2="21.5" stroke="#D3D5E0"/>
<rect width="169" height="43" transform="translate(147.5)" fill="#F8F8F8"/>
<path d="M167.006 30.168C165.454 30.168 164.038 29.808 162.758 29.088C161.478 28.352 160.462 27.336 159.71 26.04C158.974 24.728 158.606 23.256 158.606 21.624C158.606 19.992 158.974 18.528 159.71 17.232C160.462 15.92 161.478 14.904 162.758 14.184C164.038 13.448 165.454 13.08 167.006 13.08C168.574 13.08 169.998 13.448 171.278 14.184C172.558 14.904 173.566 15.912 174.302 17.208C175.038 18.504 175.406 19.976 175.406 21.624C175.406 23.272 175.038 24.744 174.302 26.04C173.566 27.336 172.558 28.352 171.278 29.088C169.998 29.808 168.574 30.168 167.006 30.168ZM167.006 28.272C168.174 28.272 169.222 28 170.15 27.456C171.094 26.912 171.83 26.136 172.358 25.128C172.902 24.12 173.174 22.952 173.174 21.624C173.174 20.28 172.902 19.112 172.358 18.12C171.83 17.112 171.102 16.336 170.174 15.792C169.246 15.248 168.19 14.976 167.006 14.976C165.822 14.976 164.766 15.248 163.838 15.792C162.91 16.336 162.174 17.112 161.63 18.12C161.102 19.112 160.838 20.28 160.838 21.624C160.838 22.952 161.102 24.12 161.63 25.128C162.174 26.136 162.91 26.912 163.838 27.456C164.782 28 165.838 28.272 167.006 28.272ZM189.953 16.848V30H187.769V28.056C187.353 28.728 186.769 29.256 186.017 29.64C185.281 30.008 184.465 30.192 183.569 30.192C182.545 30.192 181.625 29.984 180.809 29.568C179.993 29.136 179.345 28.496 178.865 27.648C178.401 26.8 178.169 25.768 178.169 24.552V16.848H180.329V24.264C180.329 25.56 180.657 26.56 181.313 27.264C181.969 27.952 182.865 28.296 184.001 28.296C185.169 28.296 186.089 27.936 186.761 27.216C187.433 26.496 187.769 25.448 187.769 24.072V16.848H189.953ZM195.825 18.984C196.209 18.232 196.753 17.648 197.457 17.232C198.177 16.816 199.049 16.608 200.073 16.608V18.864H199.497C197.049 18.864 195.825 20.192 195.825 22.848V30H193.641V16.848H195.825V18.984ZM214.297 30.168C213.193 30.168 212.201 29.976 211.321 29.592C210.457 29.192 209.777 28.648 209.281 27.96C208.785 27.256 208.529 26.448 208.513 25.536H210.841C210.921 26.32 211.241 26.984 211.801 27.528C212.377 28.056 213.209 28.32 214.297 28.32C215.337 28.32 216.153 28.064 216.745 27.552C217.353 27.024 217.657 26.352 217.657 25.536C217.657 24.896 217.481 24.376 217.129 23.976C216.777 23.576 216.337 23.272 215.809 23.064C215.281 22.856 214.569 22.632 213.673 22.392C212.569 22.104 211.681 21.816 211.009 21.528C210.353 21.24 209.785 20.792 209.305 20.184C208.841 19.56 208.609 18.728 208.609 17.688C208.609 16.776 208.841 15.968 209.305 15.264C209.769 14.56 210.417 14.016 211.249 13.632C212.097 13.248 213.065 13.056 214.153 13.056C215.721 13.056 217.001 13.448 217.993 14.232C219.001 15.016 219.569 16.056 219.697 17.352H217.297C217.217 16.712 216.881 16.152 216.289 15.672C215.697 15.176 214.913 14.928 213.937 14.928C213.025 14.928 212.281 15.168 211.705 15.648C211.129 16.112 210.841 16.768 210.841 17.616C210.841 18.224 211.009 18.72 211.345 19.104C211.697 19.488 212.121 19.784 212.617 19.992C213.129 20.184 213.841 20.408 214.753 20.664C215.857 20.968 216.745 21.272 217.417 21.576C218.089 21.864 218.665 22.32 219.145 22.944C219.625 23.552 219.865 24.384 219.865 25.44C219.865 26.256 219.649 27.024 219.217 27.744C218.785 28.464 218.145 29.048 217.297 29.496C216.449 29.944 215.449 30.168 214.297 30.168ZM235.078 22.92C235.078 23.336 235.054 23.776 235.006 24.24H224.494C224.574 25.536 225.014 26.552 225.814 27.288C226.63 28.008 227.614 28.368 228.766 28.368C229.71 28.368 230.494 28.152 231.118 27.72C231.758 27.272 232.206 26.68 232.462 25.944H234.814C234.462 27.208 233.758 28.24 232.702 29.04C231.646 29.824 230.334 30.216 228.766 30.216C227.518 30.216 226.398 29.936 225.406 29.376C224.43 28.816 223.662 28.024 223.102 27C222.542 25.96 222.262 24.76 222.262 23.4C222.262 22.04 222.534 20.848 223.078 19.824C223.622 18.8 224.382 18.016 225.358 17.472C226.35 16.912 227.486 16.632 228.766 16.632C230.014 16.632 231.118 16.904 232.078 17.448C233.038 17.992 233.774 18.744 234.286 19.704C234.814 20.648 235.078 21.72 235.078 22.92ZM232.822 22.464C232.822 21.632 232.638 20.92 232.27 20.328C231.902 19.72 231.398 19.264 230.758 18.96C230.134 18.64 229.438 18.48 228.67 18.48C227.566 18.48 226.622 18.832 225.838 19.536C225.07 20.24 224.63 21.216 224.518 22.464H232.822ZM240.145 18.984C240.529 18.232 241.073 17.648 241.777 17.232C242.497 16.816 243.369 16.608 244.393 16.608V18.864H243.817C241.369 18.864 240.145 20.192 240.145 22.848V30H237.961V16.848H240.145V18.984ZM251.81 27.984L255.89 16.848H258.218L253.058 30H250.514L245.354 16.848H247.706L251.81 27.984ZM261.496 14.712C261.08 14.712 260.728 14.568 260.44 14.28C260.152 13.992 260.008 13.64 260.008 13.224C260.008 12.808 260.152 12.456 260.44 12.168C260.728 11.88 261.08 11.736 261.496 11.736C261.896 11.736 262.232 11.88 262.504 12.168C262.792 12.456 262.936 12.808 262.936 13.224C262.936 13.64 262.792 13.992 262.504 14.28C262.232 14.568 261.896 14.712 261.496 14.712ZM262.552 16.848V30H260.368V16.848H262.552ZM265.458 23.4C265.458 22.04 265.73 20.856 266.274 19.848C266.818 18.824 267.57 18.032 268.53 17.472C269.506 16.912 270.618 16.632 271.866 16.632C273.482 16.632 274.81 17.024 275.85 17.808C276.906 18.592 277.602 19.68 277.938 21.072H275.586C275.362 20.272 274.922 19.64 274.266 19.176C273.626 18.712 272.826 18.48 271.866 18.48C270.618 18.48 269.61 18.912 268.842 19.776C268.074 20.624 267.69 21.832 267.69 23.4C267.69 24.984 268.074 26.208 268.842 27.072C269.61 27.936 270.618 28.368 271.866 28.368C272.826 28.368 273.626 28.144 274.266 27.696C274.906 27.248 275.346 26.608 275.586 25.776H277.938C277.586 27.12 276.882 28.2 275.826 29.016C274.77 29.816 273.45 30.216 271.866 30.216C270.618 30.216 269.506 29.936 268.53 29.376C267.57 28.816 266.818 28.024 266.274 27C265.73 25.976 265.458 24.776 265.458 23.4ZM292.852 22.92C292.852 23.336 292.828 23.776 292.78 24.24H282.268C282.348 25.536 282.788 26.552 283.588 27.288C284.404 28.008 285.388 28.368 286.54 28.368C287.484 28.368 288.268 28.152 288.892 27.72C289.532 27.272 289.98 26.68 290.236 25.944H292.588C292.236 27.208 291.532 28.24 290.476 29.04C289.42 29.824 288.108 30.216 286.54 30.216C285.292 30.216 284.172 29.936 283.18 29.376C282.204 28.816 281.436 28.024 280.876 27C280.316 25.96 280.036 24.76 280.036 23.4C280.036 22.04 280.308 20.848 280.852 19.824C281.396 18.8 282.156 18.016 283.132 17.472C284.124 16.912 285.26 16.632 286.54 16.632C287.788 16.632 288.892 16.904 289.852 17.448C290.812 17.992 291.548 18.744 292.06 19.704C292.588 20.648 292.852 21.72 292.852 22.92ZM290.596 22.464C290.596 21.632 290.412 20.92 290.044 20.328C289.676 19.72 289.172 19.264 288.532 18.96C287.908 18.64 287.212 18.48 286.444 18.48C285.34 18.48 284.396 18.832 283.612 19.536C282.844 20.24 282.404 21.216 282.292 22.464H290.596ZM300.391 30.216C299.383 30.216 298.479 30.048 297.679 29.712C296.879 29.36 296.247 28.88 295.783 28.272C295.319 27.648 295.063 26.936 295.015 26.136H297.271C297.335 26.792 297.639 27.328 298.183 27.744C298.743 28.16 299.471 28.368 300.367 28.368C301.199 28.368 301.855 28.184 302.335 27.816C302.815 27.448 303.055 26.984 303.055 26.424C303.055 25.848 302.799 25.424 302.287 25.152C301.775 24.864 300.983 24.584 299.911 24.312C298.935 24.056 298.135 23.8 297.511 23.544C296.903 23.272 296.375 22.88 295.927 22.368C295.495 21.84 295.279 21.152 295.279 20.304C295.279 19.632 295.479 19.016 295.879 18.456C296.279 17.896 296.847 17.456 297.583 17.136C298.319 16.8 299.159 16.632 300.103 16.632C301.559 16.632 302.735 17 303.631 17.736C304.527 18.472 305.007 19.48 305.071 20.76H302.887C302.839 20.072 302.559 19.52 302.047 19.104C301.551 18.688 300.879 18.48 300.031 18.48C299.247 18.48 298.623 18.648 298.159 18.984C297.695 19.32 297.463 19.76 297.463 20.304C297.463 20.736 297.599 21.096 297.871 21.384C298.159 21.656 298.511 21.88 298.927 22.056C299.359 22.216 299.951 22.4 300.703 22.608C301.647 22.864 302.415 23.12 303.007 23.376C303.599 23.616 304.103 23.984 304.519 24.48C304.951 24.976 305.175 25.624 305.191 26.424C305.191 27.144 304.991 27.792 304.591 28.368C304.191 28.944 303.623 29.4 302.887 29.736C302.167 30.056 301.335 30.216 300.391 30.216Z" fill="#100E34"/>
</svg>
