<svg width="185" height="130" viewBox="0 0 185 130" fill="none" xmlns="http://www.w3.org/2000/svg">
<g clip-path="url(#clip0_104_2772)">
<path d="M163.174 109.791H158.619V121.172H163.174V114.019H179.756V121.172H184.314V109.843H163.174V109.791ZM87.3621 106.827H103.612C106.081 106.209 107.874 104.589 108.381 102.766H82.8074V114.046H103.944V116.986H87.5769C85.1629 117.802 83.3895 119.197 82.8895 120.995L82.8074 121.172H108.499V109.972H87.3621V106.824V106.827ZM127.534 116.861V102.763H122.963V121.172H143.842V120.998C146.119 120.158 147.76 118.694 148.237 116.972L127.534 116.858V116.861ZM162.584 106.827H180.221C182.686 106.015 184.502 104.505 185.002 102.673H157.807C158.299 104.505 160.127 106.015 162.584 106.827ZM46.7765 106.827H64.4092C66.874 106.015 68.6747 104.505 69.1904 102.673H41.9953C42.4914 104.505 44.3117 106.015 46.7765 106.827ZM46.7765 121.137H64.4092C66.874 120.332 68.6747 118.801 69.1904 116.976H41.9953C42.4914 118.798 44.3117 120.332 46.7765 121.137ZM0.937012 102.808C1.46826 104.616 3.26512 106.133 5.7065 106.938H13.1283L13.5072 107.084V121.168H18.1361V107.084L18.5501 106.938H25.9681C28.4016 106.133 30.2063 104.616 30.7258 102.808V102.763H0.937012V102.808ZM46.7765 114.043H64.4092C66.874 113.248 68.6747 111.707 69.1904 109.899H41.9953C42.4914 111.707 44.3117 113.248 46.7765 114.043Z" fill="#D3D5E0"/>
</g>
<path d="M93.2793 76.0866L101.774 27.2503C109.872 27.2503 112.426 28.1598 112.797 31.8622C112.797 31.8622 118.233 29.7931 120.973 25.5866C110.28 20.5238 99.538 20.2964 99.538 20.2964L93.2682 28.0991H93.283L87.0131 20.2964C87.0131 20.2964 76.2679 20.5238 65.5784 25.5866C68.3184 29.7893 73.7541 31.8622 73.7541 31.8622C74.1248 28.156 76.6758 27.2503 84.7217 27.2427L93.2867 76.0866H93.2793Z" fill="#D3D5E0"/>
<path d="M93.2755 18.0416C101.918 17.9733 111.814 19.4096 121.94 23.9192C123.294 21.4294 123.639 20.3305 123.639 20.3305C112.567 15.8512 102.2 14.3202 93.2718 14.2823C84.3471 14.3202 73.9802 15.8512 62.9087 20.3305C62.9087 20.3305 63.4018 21.6871 64.6106 23.9192C74.7366 19.4096 84.6327 17.9733 93.2755 18.0416Z" fill="#D3D5E0"/>
<defs>
<clipPath id="clip0_104_2772">
<rect width="184.065" height="18.499" fill="white" transform="translate(0.937012 102.669)"/>
</clipPath>
</defs>
</svg>
