<svg width="130" height="130" viewBox="0 0 130 130" fill="none" xmlns="http://www.w3.org/2000/svg">
<path d="M14.9839 44.1374C14.9839 61.5209 37.5323 75.665 65.2436 75.665C92.9549 75.665 115.503 61.5209 115.503 44.1374C115.503 26.754 92.9549 12.6099 65.2436 12.6099C37.5323 12.6099 14.9839 26.7501 14.9839 44.1374ZM16.5262 44.1374C16.5262 27.6083 38.3806 14.16 65.2436 14.16C92.1066 14.16 113.961 27.6083 113.961 44.1374C113.961 60.6666 92.1066 74.1188 65.2436 74.1188C38.3806 74.1188 16.5262 60.6705 16.5262 44.1374Z" fill="#D3D5E0"/>
<path d="M60.4933 18.3425C48.7294 19.0615 40.185 22.1887 38.7314 26.3055C38.581 26.7346 38.5039 27.1676 38.5039 27.5966C38.5039 28.2924 38.7005 28.9844 39.09 29.6493C40.721 32.4363 45.7913 34.7363 53.0015 35.9733L53.765 36.097L53.8922 35.3316C55.0759 28.0914 57.6747 22.4013 61.0254 19.7109L62.9224 18.184L60.4933 18.3347V18.3425ZM40.4202 28.8723C40.1696 28.4432 40.0462 28.0219 40.0462 27.6044C40.0462 27.3415 40.0925 27.0864 40.185 26.8235C41.2955 23.677 48.8489 20.9285 58.496 20.0433C55.743 23.1628 53.63 28.1919 52.5234 34.3034C46.254 33.1399 41.7466 31.1375 40.4202 28.8723Z" fill="#D3D5E0"/>
<path d="M58.3418 35.7955L58.1914 36.6382L59.0435 36.7039C61.0601 36.8547 63.146 36.9359 65.2397 36.9359C67.3334 36.9359 69.4232 36.8547 71.4398 36.7039L72.288 36.6382L72.1377 35.7955C70.9771 29.2627 68.3976 25.3624 65.2397 25.3624C62.0819 25.3624 59.4985 29.2627 58.3418 35.7955ZM65.2397 26.9086C67.3989 26.9086 69.3924 30.1479 70.4411 35.208C68.733 35.3201 66.9979 35.3896 65.2397 35.3896C63.4815 35.3896 61.7464 35.3201 60.0422 35.208C61.0871 30.1479 63.0844 26.9086 65.2436 26.9086H65.2397Z" fill="#D3D5E0"/>
<path d="M69.4579 19.7148C72.8047 22.4013 75.4074 28.0953 76.5911 35.3355L76.7183 36.1009L77.4817 35.9772C84.6959 34.7441 89.7662 32.4441 91.3933 29.6531C92.0256 28.5824 92.1452 27.4227 91.7557 26.3056C90.2983 22.1887 81.7539 19.0615 69.9939 18.3425L67.5686 18.1917L69.4618 19.7186L69.4579 19.7148ZM71.9912 20.0433C81.6344 20.9286 89.1878 23.6808 90.2944 26.8236C90.3908 27.0864 90.4371 27.3415 90.4371 27.6044C90.4371 28.0219 90.3098 28.4432 90.0669 28.8723C88.7367 31.1375 84.2293 33.1399 77.9637 34.3034C76.861 28.1958 74.748 23.1667 71.995 20.0433H71.9912Z" fill="#D3D5E0"/>
<path d="M31.286 29.34C25.9998 33.7777 23.2043 39.0542 23.2043 44.5936C23.2043 57.6283 39.0592 68.649 60.0808 70.2184L62.4289 70.3962L60.6398 68.8655C56.0322 64.9148 53.1751 55.5447 53.1751 44.4042L53.2214 41.7717L52.5775 41.6403C41.5192 39.6534 33.6534 34.9915 32.5314 29.773L32.2615 28.5205L31.2783 29.34H31.286ZM24.7505 44.5936C24.7505 39.8428 27.064 35.2814 31.4017 31.3231C33.4259 36.5957 40.9794 40.9909 51.6598 43.0357C51.6444 43.6388 51.6328 44.4042 51.6328 44.4042C51.6328 54.7329 54.0774 63.6508 58.1105 68.4634C38.9551 66.4147 24.7466 56.3835 24.7466 44.5936H24.7505Z" fill="#D3D5E0"/>
<path d="M57.7133 43.2019V43.4841C57.7094 53.8361 60.9483 61.6484 65.2397 61.6484C69.5312 61.6484 72.77 53.8361 72.77 43.4841L72.7584 42.367L71.9294 42.4366C69.7471 42.6298 67.4953 42.7226 65.2359 42.7226C62.9764 42.7226 60.7246 42.626 58.5461 42.4366L57.7133 42.3593L57.7056 43.2019H57.7133ZM71.22 44.033C71.1043 53.666 68.0775 60.1022 65.2397 60.1022C62.4019 60.1022 59.3751 53.666 59.2594 44.033C61.222 44.1761 63.2231 44.2688 65.2397 44.2688C67.2563 44.2688 69.2535 44.1799 71.22 44.033Z" fill="#D3D5E0"/>
<path d="M97.9442 29.773C96.826 34.9915 88.9564 39.6534 77.902 41.6403L77.2542 41.7601L77.3043 44.4003C77.3043 55.5409 74.4434 64.911 69.8396 68.8616L68.0505 70.3924L70.3948 70.2146C91.4202 68.6451 107.275 57.6244 107.275 44.5897C107.275 39.0504 104.48 33.7739 99.1934 29.3362L98.2141 28.5167L97.9442 29.7691V29.773ZM99.0778 31.3231C103.423 35.2853 105.737 39.8428 105.737 44.5936C105.737 56.3836 91.5282 66.4108 72.3728 68.4635C76.406 63.6508 78.8505 54.733 78.8505 44.4042C78.8505 44.4042 78.8351 43.6388 78.8235 43.0358C89.5001 40.9909 97.0574 36.5957 99.0816 31.3231H99.0778Z" fill="#D3D5E0"/>
<path d="M98.4919 25.7914C98.5613 25.9886 98.6269 26.1896 98.677 26.3906C98.9662 27.5503 98.9083 28.6867 98.5305 29.7923C103.547 33.94 106.504 39.0542 106.504 44.5935C106.504 58.4245 88.0312 69.6386 65.2438 69.6386C42.4563 69.6386 23.9795 58.4245 23.9795 44.5935C23.9795 39.0581 26.9407 33.9362 31.9493 29.7923C31.5753 28.6829 31.5175 27.5464 31.8067 26.3906C31.8607 26.1857 31.9455 25.9692 32.0457 25.7528C25.2018 30.6389 21.053 37.048 21.053 44.064C21.053 59.3832 40.8368 71.8033 65.2438 71.8033C89.6507 71.8033 109.435 59.3871 109.435 44.064C109.435 37.0634 105.301 30.6698 98.4958 25.7953L98.4919 25.7914Z" fill="#D3D5E0"/>
<path d="M71.3821 35.9308C69.4349 36.0777 67.3798 36.1589 65.2399 36.1589C63.0999 36.1589 61.0487 36.0777 59.1015 35.9308H59.0938L57.8214 36.8586C60.1696 37.0634 62.6488 37.1794 65.2399 37.1794C67.8309 37.1794 70.3102 37.0634 72.6584 36.8586L71.3782 35.9308H71.3821ZM93.9537 26.2128C92.4037 21.0716 79.6141 17.2988 65.2437 17.2988C50.8733 17.2988 38.0877 21.0755 36.5338 26.2128C35.1882 30.6737 42.5372 34.7982 54.1315 36.4372L53.1251 35.208C43.7441 33.6076 38.1686 30.1943 39.4565 26.5646C41.0142 22.1617 52.3385 18.9687 65.2399 18.9687C78.1412 18.9687 89.4694 22.1578 91.0272 26.5646C92.3111 30.1943 86.7396 33.6038 77.3547 35.208L76.3483 36.4372C87.9387 34.8021 95.2955 30.6737 93.9498 26.2128H93.9537Z" fill="#D3D5E0"/>
<path d="M59.1171 35.9308C60.1928 29.9315 62.5294 26.1819 65.24 26.1819C67.9506 26.1819 70.2872 29.9315 71.3668 35.9308H71.3861L72.6469 36.847C71.5827 28.9225 68.6716 23.8625 65.2439 23.8625C61.8161 23.8625 58.9012 28.9264 57.8408 36.847L59.1017 35.9308H59.1209H59.1171Z" fill="#D3D5E0"/>
<path d="M73.0283 41.3388L71.9989 43.2058C71.9989 43.3411 72.0066 43.4803 72.0066 43.6233C72.0066 53.5694 68.9721 61.1073 65.2436 61.1073C61.5151 61.1073 58.4806 53.5656 58.4806 43.6233C58.4806 43.4648 58.4806 43.3102 58.4883 43.1595L57.455 41.3388C57.4241 42.0848 57.4087 42.8386 57.4087 43.6156C57.4087 54.8915 60.9136 63.4305 65.2436 63.4305C69.5736 63.4305 73.0785 54.8915 73.0785 43.6156C73.0785 42.8425 73.0592 42.0848 73.0283 41.3388Z" fill="#D3D5E0"/>
<path d="M54.1508 36.4411C55.6314 25.4281 60.0386 17.2988 65.2438 17.2988C59.6646 17.2988 54.9066 24.5003 53.1406 35.2273L54.1354 36.4411H54.1508Z" fill="#D3D5E0"/>
<path d="M76.3367 36.4411H76.3482L77.343 35.2273C75.5809 24.5003 70.8229 17.2988 65.2437 17.2988C70.4489 17.2988 74.856 25.4281 76.3367 36.4411Z" fill="#D3D5E0"/>
<path d="M78.0331 42.3941L76.7684 40.8788H76.7569C76.8263 42.081 76.8687 43.3064 76.8687 44.5472C76.8687 59.5959 71.6634 71.7995 65.2397 71.7995C72.4384 71.7995 78.0717 60.4849 78.0717 44.5472C78.0717 43.8166 78.0563 43.1015 78.0293 42.3941H78.0331Z" fill="#D3D5E0"/>
<path d="M53.6187 44.5511C53.6187 43.3102 53.6611 42.0848 53.7305 40.8826H53.7228L52.4543 42.3941C52.4273 43.1092 52.4119 43.8243 52.4119 44.5511C52.4119 60.4849 58.049 71.8033 65.2477 71.8033C58.8317 71.8033 53.6226 59.6036 53.6226 44.5511H53.6187Z" fill="#D3D5E0"/>
<path d="M98.5303 29.7923C100.447 31.3772 102.066 33.1089 103.331 34.9451C102.883 31.957 101.692 29.2086 99.9569 26.897C99.4788 26.5181 98.9929 26.147 98.4917 25.7914C98.5611 25.9886 98.6266 26.1896 98.6768 26.3906C98.966 27.5502 98.9081 28.6867 98.5303 29.7923Z" fill="#D3D5E0"/>
<path d="M31.9494 29.7923C31.5754 28.6829 31.5175 27.5464 31.8067 26.3906C31.8607 26.1857 31.9455 25.9692 32.0458 25.7528C31.5214 26.1316 31.0202 26.5104 30.5266 26.9009C28.7915 29.2125 27.604 31.9609 27.1528 34.949C28.4175 33.1128 30.0331 31.381 31.9494 29.7962V29.7923Z" fill="#D3D5E0"/>
<path d="M15.7551 44.1374C15.7551 27.156 37.9103 13.383 65.2437 13.383C92.5771 13.383 114.728 27.1521 114.728 44.1374C114.728 61.1227 92.5733 74.888 65.2437 74.888C37.9141 74.888 15.7551 61.1227 15.7551 44.1374ZM65.2437 71.7994C89.6468 71.7994 109.434 59.3832 109.434 44.0601C109.434 28.737 89.6468 16.317 65.2437 16.317C40.8406 16.317 21.0529 28.7409 21.0529 44.064C21.0529 59.3871 40.8368 71.8033 65.2437 71.8033V71.7994Z" fill="#D3D5E0"/>
<path d="M53.6187 44.551C53.6187 29.657 58.8239 17.2988 65.2437 17.2988C71.6636 17.2988 76.8727 29.657 76.8727 44.551C76.8727 59.4451 71.6674 71.8033 65.2437 71.8033C58.8201 71.8033 53.6187 59.6036 53.6187 44.551ZM65.2437 63.4305C69.5699 63.4305 73.0786 54.8914 73.0786 43.6194C73.0786 32.3475 69.5699 23.8664 65.2437 23.8664C60.9176 23.8664 57.4089 31.9261 57.4089 43.6194C57.4089 55.3128 60.9137 63.4305 65.2437 63.4305Z" fill="#D3D5E0"/>
<path d="M31.8065 26.3906C33.0827 21.3267 48.5057 13.959 65.2436 13.959C81.9814 13.959 96.8723 19.2239 98.6806 26.3906C100.705 34.4233 85.8371 41.6944 65.2436 41.6944C44.65 41.6944 29.7822 34.4233 31.8065 26.3906ZM65.2436 17.2988C50.8732 17.2988 38.0875 21.0755 36.5336 26.2128C34.7947 31.9686 47.5572 37.1794 65.2436 37.1794C82.9299 37.1794 95.6924 31.9686 93.9535 26.2128C92.4035 21.0716 79.614 17.2988 65.2436 17.2988Z" fill="#D3D5E0"/>
<path d="M57.4396 41.3233L57.4473 41.331L58.5077 43.2097C60.6708 43.3952 62.9148 43.4996 65.2398 43.4996C67.5648 43.4996 69.8282 43.3952 72.0028 43.2058L73.0361 41.3349L73.0439 41.3272C70.5569 41.563 67.9543 41.6944 65.2437 41.6944C62.5331 41.6944 59.9266 41.563 57.4396 41.3272V41.3233ZM98.8543 28.1263C98.5882 33.8705 89.7817 38.9576 76.7647 40.8749H76.7685L78.0371 42.4018C90.7726 40.1056 99.1512 34.4696 98.8504 28.1263H98.8543ZM31.6331 28.1263C31.3323 34.4735 39.7109 40.1056 52.4426 42.4018L53.715 40.8826C40.698 38.9614 31.8953 33.8705 31.6292 28.1263H31.6331Z" fill="#D3D5E0"/>
<path d="M64.931 111.524C64.9156 106.115 69.2431 101.752 74.6448 101.744C79.9195 101.752 84.247 106.115 84.3548 111.524C84.2509 116.872 79.9195 121.234 74.6448 121.308C69.2393 121.231 64.9117 116.868 64.931 111.524ZM74.6448 117.706C77.5632 117.659 79.9773 114.898 80.0081 111.524C79.9773 108.085 77.5632 105.324 74.6448 105.343C71.5994 105.324 69.1777 108.085 69.2739 111.524C69.1777 114.898 71.5994 117.659 74.6448 117.706Z" fill="#D3D5E0"/>
<path d="M95.3316 105.152V120.377H91.2122V105.152H85.2798V101.744H101.004V105.152H95.3316Z" fill="#D3D5E0"/>
<path d="M106.513 116.17L104.972 120.377H100.079L107.805 101.744H112.954L120.428 120.377H115.535L113.99 116.17H106.513ZM110.382 113.023H112.954L110.382 106.196L107.805 113.023H110.382Z" fill="#D3D5E0"/>
<path d="M19.3905 105.152V120.377H15.1979V105.152H9.43408V101.744H25.1582V105.152H19.3905Z" fill="#D3D5E0"/>
<path d="M26.0833 111.524C26.091 106.115 30.4155 101.752 35.7914 101.744C41.0979 101.752 45.4302 106.115 45.5072 111.524C45.4302 116.872 41.0979 121.234 35.7914 121.308C30.4155 121.231 26.091 116.868 26.0833 111.524ZM35.7914 117.706C38.745 117.659 41.1595 114.898 41.1595 111.524C41.1595 108.085 38.7412 105.324 35.7914 105.343C32.7761 105.324 30.3577 108.085 30.4309 111.524C30.3616 114.898 32.78 117.659 35.7914 117.706Z" fill="#D3D5E0"/>
<path d="M55.217 120.377H57.3752V113.288L64.931 101.744H60.0781L55.217 109.616L50.6283 101.744H45.5071L53.0629 113.288V120.377H55.217Z" fill="#D3D5E0"/>
</svg>
